<svg width="17" height="16" viewBox="0 0 17 16" fill="none" xmlns="http://www.w3.org/2000/svg">
<path d="M15.744 0.294875C15.974 0.410994 16.1049 0.50897 16.3101 0.719436C16.4976 0.915387 16.6214 1.08231 16.724 1.28552C16.8054 1.44518 16.9009 1.68105 16.9363 1.81168C16.9965 2.03303 17 2.28342 17 6.27502C17 10.2666 16.9965 10.517 16.9363 10.7383C16.9009 10.869 16.8054 11.1048 16.724 11.2645C16.625 11.4605 16.4976 11.6383 16.3278 11.8125C16.1827 11.9649 15.9775 12.1281 15.8325 12.2116C15.6945 12.2878 15.4574 12.3894 15.0187 12.5164M15.744 0.294875C15.5777 0.211414 15.3159 0.10981 15.1602 0.0698939M15.744 0.294875L15.5197 0.741746C15.5195 0.741657 15.5194 0.741567 15.5192 0.741478M15.744 0.294875L15.5186 0.741204C15.5188 0.741295 15.519 0.741387 15.5192 0.741478M15.1602 0.0698939C14.8843 0.000948081 14.7463 -0.00268064 8.49115 0.000948082L2.1051 0.00457681L1.82206 0.0844088C1.66639 0.127953 1.4435 0.211414 1.32674 0.269474C1.20999 0.327533 1.02601 0.45091 0.912799 0.541628M15.1602 0.0698939L15.0361 0.554226C15.1505 0.583569 15.3782 0.670784 15.5192 0.741478M15.1602 0.0698939L15.0391 0.554984C15.0379 0.554692 15.0367 0.554399 15.0356 0.554106L15.1116 0.583671L15.3168 0.663503L15.32 0.664757L15.32 0.664768C15.4541 0.717996 15.6593 0.822858 15.7898 0.929557C15.9005 1.01816 16.0411 1.16273 16.1257 1.27494L15.7263 1.57582L16.1257 1.27495C16.2139 1.39208 16.3061 1.56782 16.4163 1.83046C16.3801 1.73286 16.3271 1.60781 16.2786 1.51256L16.2777 1.51087C16.2026 1.36214 16.1114 1.23522 15.9504 1.06676C15.7799 0.892078 15.6928 0.829188 15.5192 0.741478M0.912799 0.541628C0.803122 0.632346 0.636837 0.802896 0.541311 0.922644M0.912799 0.541628L1.23148 0.926911C1.23053 0.927695 1.22958 0.92849 1.22861 0.929295M0.912799 0.541628L1.22545 0.931817C1.2265 0.93098 1.22755 0.930139 1.22861 0.929295M0.541311 0.922644C0.449324 1.04239 0.318418 1.25649 0.258273 1.39438C0.194589 1.5359 0.109677 1.79354 0.0707596 1.97497C0.00353798 2.29067 0 2.43219 0 6.27502C0 10.0924 0.00353798 10.263 0.0707596 10.5751C0.109677 10.7601 0.205203 11.0323 0.286576 11.2101C0.406868 11.4605 0.491779 11.5766 0.739438 11.827C0.965869 12.0592 1.11093 12.1717 1.30905 12.2697C1.45411 12.3459 1.677 12.4293 1.80437 12.4584C1.93174 12.491 2.10156 12.5164 2.18293 12.5164H2.33507C2.33507 14.0313 2.33801 14.9166 2.34441 15.4154C2.45858 15.3364 2.60817 15.2321 2.78583 15.1073C2.80393 15.0946 2.82233 15.0817 2.841 15.0685M0.541311 0.922644L0.937825 1.22724C0.936918 1.22842 0.936006 1.22961 0.935087 1.23082M0.541311 0.922644L0.93218 1.23445C0.933138 1.23325 0.934107 1.23204 0.935087 1.23082M2.841 15.0685C2.84174 15.1654 2.84255 15.2529 2.84344 15.3317C2.84504 15.4739 2.84686 15.586 2.84887 15.6736C3.27958 15.3728 3.95915 14.8922 4.71259 14.3526C5.98273 13.449 7.08658 12.6652 7.16441 12.6108L7.30593 12.5128L15.0187 12.5164M2.841 15.0685C3.25908 14.7746 3.81628 14.3795 4.42145 13.9461L4.42275 13.9451C5.69145 13.0426 6.79787 12.257 6.87787 12.201L6.8798 12.1997L7.02132 12.1017L7.14985 12.0127L7.30617 12.0128L14.947 12.0164M2.841 15.0685C2.83697 14.5406 2.83507 13.7323 2.83507 12.5164V12.0164H2.33507H2.18293C2.18529 12.0164 2.17728 12.0164 2.15638 12.0144C2.13726 12.0125 2.11328 12.0095 2.08613 12.0053C2.03066 11.9969 1.97308 11.9854 1.92856 11.974L1.9286 11.9739L1.91548 11.9709C1.83564 11.9527 1.65339 11.8858 1.54159 11.827L1.54166 11.8269L1.53069 11.8215C1.41097 11.7623 1.31663 11.6975 1.1434 11.5245M15.0187 12.5164L15.019 12.0164L14.947 12.0164M15.0187 12.5164L14.8797 12.0361C14.9028 12.0295 14.9252 12.0229 14.947 12.0164M14.947 12.0164C14.9651 12.011 14.9828 12.0056 15 12.0004M1.1434 11.5245C1.22461 11.5978 1.31781 11.673 1.39101 11.7204L1.39919 11.7257L1.40757 11.7307C1.49194 11.7808 1.62417 11.8488 1.71228 11.8868L1.71221 11.887L1.72428 11.8918C1.79942 11.922 1.87787 11.9362 1.92808 11.9442C1.98747 11.9536 2.05487 11.961 2.12652 11.9672C2.27028 11.9797 2.4546 11.9891 2.67192 11.9965L2.67224 11.9965L2.85007 12.0024M1.1434 11.5245C1.12678 11.5095 1.11067 11.4946 1.09533 11.48C1.09446 11.4792 1.0936 11.4783 1.09273 11.4775C1.07495 11.4606 1.05824 11.4441 1.04304 11.4285L1.03493 11.4202L1.03503 11.4201C1.01607 11.3997 0.996895 11.3774 0.977435 11.353M1.1434 11.5245C1.12867 11.5098 1.11337 11.4943 1.09744 11.4779L1.09745 11.4779L1.09492 11.4754C1.07761 11.4578 1.06137 11.4413 1.04609 11.4255C1.04339 11.4227 1.04072 11.42 1.03808 11.4172C1.0159 11.3943 0.995802 11.373 0.977435 11.353M2.85007 12.0024L2.87882 14.0692L2.8921 15.0237L3.66915 14.4693L7.1299 12.0004M2.85007 12.0024L2.84344 11.5255L3.34339 11.5185L3.32677 12.0182L2.85007 12.0024ZM7.1299 12.0004H14.9303H15M7.1299 12.0004H6.96982V11.5004L7.26021 11.9074L7.1299 12.0004ZM15 12.0004H15.0273L15.1173 11.9641C15.12 11.963 15.1227 11.9619 15.1255 11.9608M15 12.0004C15.0415 11.9877 15.0805 11.9754 15.1171 11.9635C15.1199 11.9626 15.1227 11.9617 15.1255 11.9608M15.1255 11.9608C15.3771 11.8786 15.5133 11.8162 15.5867 11.7761C15.6847 11.7189 15.8501 11.5891 15.9656 11.4677L15.9698 11.4634L15.9698 11.4634C16.1063 11.3234 16.2031 11.1867 16.2778 11.0389L16.2786 11.0375C16.3256 10.9452 16.3767 10.8251 16.4128 10.7289L16.3858 10.7955C16.3259 10.9499 16.2178 11.1529 16.1257 11.2751C16.0374 11.3923 15.8953 11.5325 15.7897 11.6169C15.6489 11.732 15.4284 11.8383 15.1255 11.9608ZM15.0178 0.549622C14.9517 0.533443 14.8395 0.51646 14.0626 0.508177C13.2153 0.499144 11.6208 0.499133 8.49144 0.500948L2.1744 0.504538L1.95779 0.565633L1.95675 0.565927L1.95675 0.565925C1.82509 0.602755 1.63263 0.675771 1.54938 0.717173C1.47429 0.754511 1.32315 0.854018 1.22861 0.929295M15.0178 0.549622L0.692249 10.8864M15.0178 0.549622L14.9301 0.54965C9.24131 0.551464 6.026 0.555092 4.21912 0.562809C3.31627 0.566664 2.76235 0.571548 2.42653 0.577802C2.25933 0.580916 2.14143 0.584448 2.05977 0.588665C2.01932 0.590753 1.98219 0.593281 1.94975 0.596708L1.94876 0.596812C1.92774 0.599029 1.86963 0.605156 1.80846 0.625123M15.0178 0.549622L14.9303 1.04965C3.55213 1.05328 2.07326 1.06416 1.96358 1.10045M1.22861 0.929295C1.14799 0.996609 1.01055 1.13703 0.935087 1.23082M0.935087 1.23082C0.863669 1.32474 0.757389 1.5007 0.716573 1.59428L0.714264 1.59957L0.714234 1.59956C0.712656 1.60307 0.711051 1.60669 0.709421 1.61044M0.709421 1.61044C0.698675 1.63187 0.688783 1.6522 0.679951 1.67092L0.679824 1.67086L0.675034 1.68167L0.586584 1.88125L0.543705 1.97801V2.07568L0.0707956 1.97498L0.543705 2.07642V2.08384V2.16138M0.709421 1.61044C0.701467 1.62872 0.692916 1.64978 0.684042 1.67285C0.682656 1.67646 0.681261 1.68011 0.67986 1.68381C0.656746 1.74485 0.631772 1.81845 0.609628 1.89146C0.589465 1.95794 0.571647 2.02393 0.559713 2.0795C0.559688 2.07961 0.559664 2.07973 0.55964 2.07984M0.709421 1.61044C0.76919 1.49126 0.855377 1.33814 0.932491 1.23927L0.934258 1.23701L0.934264 1.23701C1.03113 1.11429 1.2052 0.957659 1.34525 0.861892L1.61598 1.25782L1.34525 0.861892C1.48102 0.769058 1.67568 0.668453 1.80846 0.625123M0.543705 2.16138C0.528473 2.25441 0.516993 2.39873 0.510102 2.81069C0.500904 3.36055 0.5 4.35108 0.5 6.27502C0.5 8.18621 0.500903 9.1777 0.510103 9.73123C0.517019 10.1474 0.528603 10.2954 0.543705 10.3887M0.543705 2.16138C0.548386 2.13278 0.553422 2.10903 0.558788 2.08384C0.558881 2.0834 0.558975 2.08296 0.559068 2.08253L0.55964 2.07984M0.543705 2.16138V10.3887M0.543705 10.3887V10.4662V10.4732V10.4756V10.5774L0.590844 10.6781C0.625971 10.7532 0.659706 10.8225 0.692249 10.8864M0.543705 10.3887L0.55964 2.07984M0.692249 10.8864C0.708062 10.9263 0.723995 10.9641 0.739363 10.9979C0.809956 11.1445 0.855561 11.2205 0.977435 11.353M0.692249 10.8864C0.797557 11.0932 0.890373 11.244 0.977435 11.353M0.55964 2.07984L1.40104 11.0794C1.32674 10.9996 1.21353 10.8291 1.0437 10.4662V2.08384L1.13215 1.88426C1.18522 1.77177 1.27014 1.61936 1.32674 1.54679C1.38689 1.47058 1.52133 1.34721 1.62747 1.27463C1.73361 1.20206 1.88574 1.12585 1.96358 1.10045M1.80846 0.625123C1.80781 0.625333 1.80717 0.625545 1.80653 0.625758L1.96358 1.10045M1.80846 0.625123L1.96358 1.10045M2.37045 15.5C2.61244 15.5 2.74156 15.6582 2.78319 15.7194C2.52914 15.8965 2.37706 16 2.37045 16C2.3595 16 2.35131 15.8815 2.34559 15.5006C2.35365 15.5002 2.36194 15.5 2.37045 15.5ZM5.064 4.12605H11.9537V4.14209H5.064V4.12605ZM5.064 6.30328H11.9537V6.31932H5.064V6.30328ZM5.064 8.48052H11.9537V8.49656H5.064V8.48052Z" fill="black" stroke="url(#paint0_linear_987_8837)"/>
<defs>
<linearGradient id="paint0_linear_987_8837" x1="9.46527" y1="0.412487" x2="8.94967" y2="16.0149" gradientUnits="userSpaceOnUse">
<stop stop-color="#10A8A0"/>
<stop offset="1" stop-color="#83C24C"/>
</linearGradient>
</defs>
</svg>
