<svg width="23" height="21" viewBox="0 0 23 21" fill="none" xmlns="http://www.w3.org/2000/svg">
<path fill-rule="evenodd" clip-rule="evenodd" d="M4.89648 0.000617218C5.42207 -0.00389005 5.57031 0.014139 6.01953 0.126821C6.30254 0.19443 6.69785 0.325141 6.89551 0.410779C7.09316 0.49191 7.43457 0.681215 7.65918 0.829955C7.8793 0.974188 8.2252 1.25815 8.42734 1.45647C8.625 1.65929 8.90352 1.99283 9.04277 2.20467C9.17754 2.41652 9.35723 2.72752 9.43359 2.9033C9.50996 3.07458 9.62227 3.38107 9.68066 3.57939C9.73906 3.77771 9.80195 4.06618 9.86035 4.50338H13.1396L13.1756 4.22393C13.198 4.06618 13.2609 3.77771 13.3193 3.57939C13.3777 3.38107 13.49 3.07458 13.5664 2.9033C13.6428 2.72752 13.8225 2.41652 13.9572 2.20467C14.0965 1.99283 14.375 1.65929 14.5727 1.45647C14.7748 1.25815 15.1162 0.974188 15.3408 0.829955C15.5609 0.681215 15.8979 0.496417 16.082 0.419794C16.2662 0.338663 16.5717 0.234995 16.7559 0.185415C16.94 0.135835 17.2051 0.0727336 17.3398 0.0411827C17.4926 0.00963177 17.807 -0.00389005 18.1709 0.00963176C18.4898 0.0186463 18.9076 0.063719 19.0918 0.104284C19.276 0.149357 19.5994 0.248517 19.8105 0.325141C20.0217 0.406272 20.3541 0.568534 20.5518 0.685723C20.7494 0.802912 21.0594 1.02377 21.2391 1.168C21.4143 1.31674 21.6838 1.58718 21.832 1.76747C21.9758 1.94325 22.1959 2.25425 22.3127 2.45257C22.4295 2.65089 22.5912 2.98443 22.6721 3.19627C22.7484 3.40812 22.8562 3.78222 22.9057 4.03012C22.9641 4.31408 23 4.64762 23 4.93157C23 5.21102 22.9641 5.56259 22.9057 5.85556C22.8562 6.11699 22.7619 6.46855 22.699 6.64434C22.6361 6.81561 22.5328 7.06351 22.4699 7.18521C22.407 7.31141 22.2723 7.54128 22.1645 7.70355C22.0611 7.86581 21.8545 8.12723 21.7063 8.28949C21.5625 8.45175 21.293 8.69965 21.1088 8.83938C20.9246 8.9791 20.6146 9.18644 20.417 9.29912C20.2193 9.4118 19.8734 9.56505 19.6533 9.63717C19.4287 9.71379 19.0469 9.80394 18.7998 9.84901C18.4719 9.9031 18.2113 9.91211 17.3174 9.86704L15.4172 12.9996L15.5969 13.27C15.6957 13.4188 15.8529 13.7027 15.9473 13.901C16.0461 14.0994 16.1719 14.4329 16.2348 14.6447C16.2932 14.8566 16.365 15.1856 16.392 15.3794C16.4189 15.5687 16.4414 15.8752 16.4414 16.0555C16.4414 16.2313 16.41 16.5739 16.3695 16.8082C16.3336 17.0426 16.2437 17.4122 16.1719 17.6331C16.0955 17.8494 15.9832 18.1334 15.9203 18.2641C15.8529 18.3903 15.7092 18.6382 15.5924 18.814C15.4801 18.9853 15.215 19.3008 15.0039 19.5126C14.7928 19.7244 14.4514 20.0129 14.2402 20.1526C14.0291 20.2924 13.7236 20.4727 13.5529 20.5448C13.3867 20.6214 13.0768 20.7341 12.8566 20.7927C12.641 20.8513 12.3715 20.9234 12.2502 20.9504C12.1334 20.9775 11.7965 21 11.5 21C11.2035 21 10.8666 20.9775 10.7453 20.9504C10.6285 20.9234 10.359 20.8513 10.1389 20.7927C9.92324 20.7341 9.61328 20.6214 9.44258 20.5448C9.27637 20.4727 8.9709 20.2924 8.75977 20.1526C8.54863 20.0129 8.20723 19.7244 7.99609 19.5126C7.78496 19.3008 7.51992 18.9853 7.40762 18.814C7.29082 18.6382 7.13809 18.3768 7.06621 18.228C6.98984 18.0793 6.87754 17.7908 6.81016 17.588C6.74727 17.3807 6.66191 17.0246 6.62598 16.7992C6.59004 16.5694 6.55859 16.2313 6.55859 16.0555C6.55859 15.8752 6.58106 15.5687 6.60801 15.3794C6.63496 15.1856 6.70684 14.8566 6.76523 14.6447C6.82813 14.4329 6.95391 14.0994 7.05273 13.901C7.14707 13.7027 7.3043 13.4188 7.58281 12.9996L5.68262 9.86704L5.16602 9.89408C4.78867 9.91211 4.52812 9.9031 4.2002 9.84901C3.95312 9.80844 3.5668 9.71379 3.34668 9.63717C3.12207 9.56054 2.81211 9.42983 2.65039 9.33969C2.48867 9.25405 2.20117 9.06925 2.00352 8.92502C1.81035 8.78529 1.51836 8.52838 1.35215 8.35259C1.19043 8.18132 0.961328 7.89736 0.849023 7.72158C0.736719 7.5503 0.592969 7.30691 0.530078 7.18521C0.467188 7.06351 0.363867 6.81561 0.300977 6.64434C0.242578 6.46855 0.148242 6.126 0.0943359 5.8781C0.0314453 5.58964 0 5.26511 0 4.97665C0 4.72875 0.0359375 4.34112 0.0763672 4.12026C0.134766 3.81377 0.179688 3.68306 0.265039 3.58841C0.332422 3.5208 0.440234 3.4577 0.516602 3.44417C0.606445 3.42614 0.700781 3.44868 0.795117 3.51178C0.875977 3.56136 0.96582 3.65602 0.988281 3.72813C1.02422 3.81828 1.01973 3.96702 0.961328 4.30056C0.907422 4.62057 0.893945 4.87298 0.911914 5.17947C0.929883 5.41385 0.983789 5.76993 1.0332 5.96825C1.08711 6.16657 1.19492 6.46855 1.27578 6.64434C1.35664 6.81561 1.48691 7.06351 1.57227 7.18521C1.65762 7.31141 1.80586 7.50973 1.90469 7.62692C2.00801 7.74862 2.15625 7.89736 2.38086 8.06413L2.74922 7.69002C3.02324 7.41508 3.21641 7.27085 3.48145 7.13112C3.6791 7.02746 3.99805 6.91027 4.18672 6.86069C4.37988 6.81561 4.53711 6.77054 4.53711 6.75702C4.53711 6.7435 4.45176 6.70744 4.34844 6.67138C4.24062 6.63983 4.03398 6.54968 3.88574 6.47306C3.7375 6.40094 3.50391 6.22516 3.36465 6.08544C3.22539 5.94571 3.0502 5.70682 2.97383 5.55358C2.89297 5.39582 2.79863 5.15243 2.7627 5.0127C2.72676 4.86847 2.69531 4.6386 2.69531 4.50338C2.69531 4.36816 2.72676 4.13829 2.7627 3.99857C2.79863 3.85434 2.89297 3.61094 2.97383 3.4577C3.0502 3.29994 3.22539 3.06106 3.36465 2.92133C3.50391 2.7816 3.74199 2.60582 3.89473 2.5292C4.05195 2.44807 4.29453 2.35341 4.43379 2.31736C4.57754 2.2813 4.80664 2.24975 4.94141 2.24975C5.07617 2.24975 5.30527 2.2813 5.44453 2.31736C5.58828 2.35341 5.83086 2.44807 5.98359 2.5292C6.14082 2.60582 6.37891 2.7816 6.51816 2.92133C6.65742 3.06106 6.83262 3.29994 6.90898 3.4577C6.98984 3.61094 7.08418 3.85434 7.12012 3.99857C7.15605 4.13829 7.1875 4.36816 7.1875 4.50338C7.1875 4.6386 7.15605 4.86847 7.12012 5.0127C7.08418 5.15243 6.98984 5.39582 6.90898 5.55358C6.83262 5.70682 6.65742 5.94571 6.51816 6.08544C6.37891 6.22516 6.14531 6.40094 5.99707 6.47306C5.84883 6.54968 5.64219 6.63983 5.53437 6.67138C5.43105 6.70744 5.3457 6.7435 5.3457 6.75702C5.3457 6.77054 5.50293 6.81561 5.69609 6.86069C5.88477 6.91027 6.20371 7.02746 6.40137 7.13112C6.66641 7.27085 6.85957 7.41508 7.50195 8.06413L7.6457 7.95595C7.72656 7.89736 7.8748 7.74862 7.97813 7.62692C8.07695 7.50973 8.22519 7.31141 8.31055 7.18521C8.3959 7.06351 8.52617 6.81561 8.60703 6.64434C8.68789 6.46855 8.80019 6.15755 8.85859 5.94571C8.94394 5.62569 8.95742 5.45892 8.95742 4.93157C8.95293 4.43127 8.93047 4.22393 8.8541 3.93997C8.8002 3.74165 8.66992 3.39459 8.55762 3.17374C8.4498 2.94837 8.23418 2.61033 8.07695 2.41652C7.91973 2.2227 7.64121 1.94325 7.45703 1.79451C7.27285 1.64577 6.93594 1.43393 6.71582 1.32576C6.49121 1.21307 6.1498 1.08236 5.95215 1.03278C5.75449 0.983203 5.40859 0.929115 5.18848 0.911086C4.90098 0.893057 4.64941 0.906579 4.3125 0.965174C4.05195 1.00574 3.71055 1.09588 3.54883 1.15448C3.38711 1.21758 3.1625 1.31674 3.04121 1.37534C2.92441 1.43393 2.7582 1.48351 2.67285 1.48351C2.57402 1.48351 2.4752 1.44745 2.40332 1.38435C2.34043 1.32576 2.27305 1.20857 2.25957 1.12293C2.2416 1.01475 2.25508 0.929115 2.30449 0.843477C2.3584 0.757839 2.53359 0.645157 2.83906 0.49191C3.09512 0.365706 3.47246 0.225981 3.68359 0.176401C3.89473 0.126821 4.11484 0.0682263 4.17773 0.0456899C4.24062 0.0231536 4.56406 0.00512449 4.89648 0.000617218ZM16.6346 1.168C16.4414 1.24012 16.1629 1.37534 16.0146 1.46548C15.8664 1.55563 15.6283 1.7224 15.4846 1.83508C15.3408 1.95227 15.0893 2.20918 14.932 2.4075C14.7703 2.60582 14.5502 2.94837 14.4424 3.17374C14.3301 3.39459 14.1998 3.74165 14.1459 3.93997C14.0695 4.22393 14.0471 4.43127 14.0426 4.93157C14.0426 5.45892 14.0561 5.62569 14.1414 5.94571C14.1998 6.15755 14.3121 6.46855 14.393 6.64434C14.4738 6.81561 14.6041 7.06351 14.6895 7.18521C14.7748 7.31141 14.923 7.50973 15.0219 7.62692C15.1252 7.74862 15.2734 7.89736 15.3498 7.95595L15.498 8.06413C16.1404 7.41508 16.3336 7.27085 16.5986 7.13112C16.7963 7.02746 17.1152 6.91027 17.3039 6.86069C17.4971 6.81561 17.6543 6.77054 17.6543 6.75702C17.6543 6.7435 17.5689 6.70744 17.4656 6.67138C17.3578 6.63983 17.1512 6.54968 17.0029 6.47306C16.8547 6.40094 16.6211 6.22516 16.4818 6.08544C16.3426 5.94571 16.1674 5.70682 16.091 5.55358C16.0102 5.39582 15.9158 5.15243 15.8799 5.0127C15.8439 4.86847 15.8125 4.6386 15.8125 4.50338C15.8125 4.36816 15.8439 4.13829 15.8799 3.99857C15.9158 3.85434 16.0102 3.61094 16.091 3.4577C16.1674 3.29994 16.3426 3.06106 16.4818 2.92133C16.6211 2.7816 16.8592 2.60582 17.0119 2.5292C17.1691 2.44807 17.4117 2.35341 17.551 2.31736C17.6947 2.2813 17.9238 2.24975 18.0586 2.24975C18.1934 2.24975 18.4225 2.2813 18.5617 2.31736C18.7055 2.35341 18.948 2.44807 19.1008 2.5292C19.258 2.60582 19.4961 2.7816 19.6354 2.92133C19.7746 3.06106 19.9498 3.29994 20.0262 3.4577C20.107 3.61094 20.2014 3.85434 20.2373 3.99857C20.2732 4.13829 20.3047 4.36816 20.3047 4.50338C20.3047 4.6386 20.2732 4.86847 20.2373 5.0127C20.2014 5.15243 20.107 5.39582 20.0262 5.55358C19.9498 5.70682 19.7746 5.94571 19.6354 6.08544C19.4961 6.22516 19.2625 6.40094 19.1143 6.47306C18.966 6.54968 18.7594 6.63983 18.6516 6.67138C18.5482 6.70744 18.4629 6.7435 18.4629 6.75702C18.4629 6.77054 18.6201 6.81561 18.8133 6.86069C19.002 6.91027 19.3209 7.02746 19.5186 7.13112C19.7836 7.27085 19.9768 7.41508 20.2463 7.69002L20.6191 8.06413C20.8438 7.89736 20.992 7.74862 21.0953 7.62692C21.1941 7.50973 21.3424 7.31141 21.4277 7.18521C21.5131 7.06351 21.6434 6.81561 21.7242 6.64434C21.8051 6.46855 21.9174 6.15755 21.9758 5.94571C22.0611 5.62569 22.0746 5.45892 22.0746 4.93157C22.0701 4.43127 22.0477 4.22393 21.9713 3.93997C21.9174 3.74165 21.7871 3.39459 21.6748 3.17374C21.567 2.94837 21.3514 2.61033 21.1941 2.41652C21.0369 2.2227 20.7584 1.94325 20.5742 1.79451C20.39 1.64577 20.0531 1.43393 19.833 1.32576C19.6084 1.21307 19.267 1.08236 19.0693 1.03278C18.8447 0.974188 18.5168 0.929115 18.1934 0.920101C17.852 0.906579 17.56 0.920101 17.3264 0.965174C17.1377 1.00123 16.8232 1.09138 16.6301 1.168H16.6346ZM4.11934 3.44417C4.025 3.5208 3.89023 3.66954 3.81836 3.78222C3.74648 3.8949 3.66563 4.08871 3.63867 4.21041C3.60723 4.33661 3.59824 4.52592 3.61172 4.6386C3.6207 4.75128 3.67012 4.93157 3.71953 5.04426C3.76445 5.15694 3.89473 5.33723 4.00703 5.4454C4.11484 5.55808 4.29453 5.6888 4.40684 5.73838C4.55059 5.80598 4.70332 5.83303 4.9459 5.83303C5.18848 5.83303 5.34121 5.80598 5.48496 5.73838C5.59727 5.6888 5.77695 5.55808 5.88477 5.4454C5.99707 5.33723 6.12734 5.15694 6.17676 5.04426C6.24414 4.90002 6.27109 4.74678 6.27109 4.50338C6.27109 4.25999 6.24414 4.10674 6.17676 3.96251C6.12734 3.84983 5.99707 3.66954 5.88477 3.56136C5.77695 3.44868 5.59727 3.31797 5.48496 3.2729C5.37266 3.22332 5.16152 3.17374 5.01328 3.16472C4.8291 3.15571 4.67188 3.17374 4.51914 3.22782C4.39785 3.2729 4.21816 3.37206 4.11934 3.44417ZM17.2365 3.44417C17.1422 3.5208 17.0074 3.66954 16.9355 3.78222C16.8637 3.8949 16.7828 4.08871 16.7559 4.21041C16.7244 4.33661 16.7154 4.52592 16.7289 4.6386C16.7379 4.75128 16.7873 4.93157 16.8367 5.04426C16.8816 5.15694 17.0119 5.33723 17.1242 5.4454C17.232 5.55808 17.4117 5.6888 17.524 5.73838C17.6678 5.80598 17.8205 5.83303 18.0631 5.83303C18.3057 5.83303 18.4584 5.80598 18.6021 5.73838C18.7145 5.6888 18.8941 5.55808 19.002 5.4454C19.1143 5.33723 19.2445 5.15694 19.2939 5.04426C19.3613 4.90002 19.3883 4.74678 19.3883 4.50338C19.3883 4.25999 19.3613 4.10674 19.2939 3.96251C19.2445 3.84983 19.1143 3.66954 19.002 3.56136C18.8941 3.44868 18.7145 3.31797 18.6021 3.2729C18.4898 3.22332 18.2787 3.17374 18.1305 3.16472C17.9463 3.15571 17.7891 3.17374 17.6363 3.22782C17.515 3.2729 17.3354 3.37206 17.2365 3.44417ZM9.82891 5.66626C9.81094 5.80598 9.74805 6.10346 9.68516 6.32883C9.62227 6.54968 9.48301 6.91477 9.3752 7.14014C9.26738 7.36099 9.05625 7.70805 8.90801 7.90637C8.75977 8.10469 8.50371 8.39767 8.33301 8.55542C8.1623 8.71768 7.83887 8.96558 7.61875 9.10982C7.39414 9.25405 7.07969 9.42983 6.91348 9.49744C6.74727 9.56505 6.6125 9.63266 6.62148 9.64618C6.62598 9.66421 6.98535 10.2637 7.4166 10.9893C7.84785 11.7105 8.2207 12.301 8.24766 12.301C8.27012 12.3055 8.33301 12.2604 8.38242 12.2108C8.43184 12.1567 8.63398 12.008 8.83164 11.8818C9.0293 11.7556 9.35273 11.5843 9.55039 11.4987C9.74805 11.413 10.1029 11.2913 10.3365 11.2282C10.7094 11.1291 10.8531 11.1156 11.5045 11.1156C12.1559 11.1156 12.2996 11.1291 12.6725 11.2282C12.9061 11.2913 13.2609 11.413 13.4586 11.4987C13.6562 11.5843 13.9797 11.7556 14.1773 11.8818C14.375 12.008 14.5771 12.1567 14.6266 12.2108C14.676 12.2604 14.7344 12.3055 14.7613 12.301C14.7838 12.301 15.1611 11.7105 15.5924 10.9893C16.0236 10.2637 16.383 9.66421 16.3875 9.64618C16.3965 9.63266 16.2617 9.56505 16.0955 9.49744C15.9293 9.42983 15.6104 9.25405 15.3902 9.10982C15.1656 8.96558 14.8467 8.71768 14.676 8.55542C14.5053 8.39767 14.2492 8.10469 14.101 7.90637C13.9527 7.70805 13.7416 7.36099 13.6338 7.14014C13.526 6.91477 13.3867 6.54968 13.3238 6.32883C13.2609 6.10346 13.1936 5.80598 13.1756 5.66175L13.1441 5.40484H9.85586L9.82891 5.66626ZM3.91719 7.9244C3.78691 7.9875 3.55781 8.14977 3.41406 8.28048C3.26582 8.41119 3.14902 8.53739 3.14902 8.56444C3.14902 8.58697 3.2748 8.65458 3.42754 8.71317C3.58477 8.77177 3.8498 8.85741 4.025 8.90248C4.2541 8.96558 4.50117 8.98812 4.9459 8.98812C5.39062 8.98812 5.6377 8.96558 5.8668 8.90248C6.0375 8.85741 6.30703 8.77177 6.45977 8.71317C6.61699 8.65458 6.74277 8.58697 6.74277 8.56444C6.74277 8.53739 6.62148 8.41119 6.47773 8.28048C6.33398 8.14977 6.10488 7.9875 5.97461 7.9244C5.83984 7.85679 5.61074 7.77116 5.4625 7.73059C5.31426 7.69002 5.07168 7.66298 4.92344 7.66298C4.7752 7.66298 4.5416 7.69904 4.40684 7.7351C4.27207 7.77116 4.05195 7.85679 3.91719 7.9244ZM17.0344 7.9244C16.9041 7.9875 16.675 8.14977 16.5312 8.28048C16.383 8.41119 16.2662 8.53739 16.2662 8.56444C16.2662 8.58697 16.392 8.65458 16.5447 8.71317C16.702 8.77177 16.967 8.85741 17.1422 8.90248C17.3713 8.96558 17.6184 8.98812 18.0631 8.98812C18.5078 8.98812 18.7549 8.96558 18.984 8.90248C19.1547 8.85741 19.4242 8.77177 19.577 8.71317C19.7342 8.65458 19.86 8.58697 19.86 8.56444C19.86 8.53739 19.7387 8.41119 19.5949 8.28048C19.4512 8.14977 19.2221 7.9875 19.0918 7.9244C18.957 7.85679 18.7279 7.77116 18.5797 7.73059C18.4314 7.69002 18.1889 7.66298 18.0406 7.66298C17.8924 7.66298 17.6588 7.69904 17.524 7.7351C17.3893 7.77116 17.1691 7.85679 17.0344 7.9244ZM10.076 12.2559C9.88731 12.3325 9.60879 12.4632 9.46055 12.5534C9.3123 12.6435 9.07422 12.8103 8.93047 12.9275C8.78672 13.0447 8.53516 13.2971 8.37793 13.4999C8.21621 13.6937 7.99609 14.0408 7.88379 14.2661C7.77598 14.487 7.64121 14.8295 7.5873 15.0324C7.51543 15.3118 7.49297 15.5282 7.48848 16.024C7.48398 16.5468 7.50195 16.7181 7.5873 17.0381C7.6457 17.2454 7.75801 17.561 7.83887 17.7367C7.91523 17.908 8.05 18.1514 8.13535 18.2776C8.21621 18.3993 8.36895 18.5976 8.46777 18.7193C8.57109 18.8365 8.71934 18.9853 8.7957 19.0438L8.94395 19.1565C9.58633 18.5075 9.77949 18.3587 10.0445 18.2235C10.2422 18.1199 10.5611 17.9982 10.7498 17.9531C10.943 17.908 11.1002 17.8584 11.1002 17.8494C11.1002 17.8359 11.0148 17.7953 10.9115 17.7638C10.8037 17.7277 10.5971 17.6421 10.4488 17.5655C10.3006 17.4888 10.067 17.3131 9.92773 17.1733C9.78848 17.0381 9.61328 16.7947 9.53242 16.6415C9.45605 16.4882 9.36172 16.2448 9.32578 16.1006C9.28984 15.9564 9.2584 15.731 9.2584 15.5958C9.2584 15.4561 9.28984 15.2307 9.32578 15.0865C9.36172 14.9422 9.45605 14.6988 9.53242 14.5456C9.61328 14.3923 9.78848 14.1489 9.92773 14.0137C10.067 13.874 10.3051 13.6937 10.4578 13.6171C10.615 13.5405 10.8576 13.4458 10.9969 13.4052C11.1406 13.3692 11.3697 13.3376 11.5045 13.3376C11.6393 13.3376 11.8684 13.3692 12.0076 13.4052C12.1514 13.4458 12.3939 13.5405 12.5467 13.6171C12.7039 13.6937 12.942 13.874 13.0813 14.0137C13.2205 14.1489 13.3957 14.3923 13.4721 14.5456C13.5529 14.6988 13.6473 14.9422 13.6832 15.0865C13.7191 15.2307 13.7506 15.4561 13.7506 15.5958C13.7506 15.731 13.7191 15.9564 13.6832 16.1006C13.6473 16.2448 13.5529 16.4882 13.4721 16.6415C13.3957 16.7947 13.2205 17.0381 13.0813 17.1733C12.942 17.3131 12.7084 17.4888 12.5602 17.5655C12.4119 17.6421 12.2053 17.7277 12.0975 17.7638C11.9941 17.7953 11.9088 17.8359 11.9088 17.8494C11.9088 17.8584 12.066 17.908 12.2547 17.9531C12.4479 17.9982 12.7668 18.1199 12.9645 18.2235C13.2295 18.3587 13.4182 18.5075 13.6922 18.7824L14.065 19.1565C14.2896 18.9853 14.4379 18.8365 14.5412 18.7193C14.64 18.5976 14.7883 18.3993 14.8736 18.2776C14.959 18.1514 15.0893 17.908 15.1701 17.7367C15.251 17.561 15.3633 17.2454 15.4172 17.0381C15.507 16.7181 15.5205 16.5468 15.5205 16.024C15.516 15.5237 15.4936 15.3163 15.4172 15.0324C15.3633 14.8295 15.233 14.487 15.1207 14.2661C15.0129 14.0408 14.7973 13.6982 14.64 13.5044C14.4828 13.3106 14.2043 13.0311 14.0201 12.8824C13.8359 12.7337 13.499 12.5218 13.2789 12.4136C13.0543 12.3055 12.7129 12.1748 12.5152 12.1207C12.2906 12.0621 11.9627 12.0215 11.6393 12.008C11.2979 11.9945 11.0059 12.0125 10.7723 12.0576C10.5836 12.0936 10.2691 12.1838 10.076 12.2559ZM10.6779 14.5366C10.5836 14.6087 10.4488 14.7619 10.377 14.8746C10.3051 14.9828 10.2242 15.1766 10.1973 15.3028C10.1658 15.4245 10.1568 15.6183 10.1658 15.731C10.1793 15.8392 10.2287 16.024 10.2781 16.1367C10.323 16.2448 10.4533 16.4296 10.5611 16.5378C10.6734 16.646 10.8531 16.7812 10.9654 16.8308C11.1092 16.8939 11.2619 16.9209 11.5045 16.9209C11.7471 16.9209 11.8998 16.8939 12.0436 16.8308C12.1559 16.7812 12.3355 16.646 12.4434 16.5378C12.5557 16.4296 12.6859 16.2448 12.7354 16.1367C12.8027 15.9879 12.8252 15.8347 12.8252 15.5958C12.8252 15.3524 12.8027 15.1991 12.7354 15.0549C12.6859 14.9422 12.5557 14.7574 12.4434 14.6493C12.3355 14.5411 12.1559 14.4104 12.0436 14.3608C11.9313 14.3112 11.7201 14.2661 11.5719 14.2571C11.3877 14.2436 11.2305 14.2661 11.0777 14.3202C10.952 14.3653 10.7768 14.4599 10.6779 14.5366ZM10.4758 19.0123C10.3455 19.0754 10.1164 19.2377 9.97266 19.3684C9.82441 19.4991 9.70762 19.6253 9.70762 19.6523C9.70762 19.6749 9.8334 19.7425 9.98613 19.8011C10.1434 19.8597 10.4084 19.9453 10.5836 19.9904C10.8127 20.0535 11.0598 20.076 11.5045 20.076C11.9492 20.076 12.1963 20.0535 12.4254 19.9904C12.5961 19.9453 12.8656 19.8597 13.0184 19.8011C13.1756 19.7425 13.3014 19.6749 13.3014 19.6523C13.3014 19.6253 13.1801 19.4991 13.0363 19.3684C12.8926 19.2377 12.6635 19.0754 12.5332 19.0123C12.3984 18.9447 12.1693 18.859 12.0211 18.8185C11.8729 18.7779 11.6303 18.7509 11.482 18.7509C11.3338 18.7509 11.1002 18.7869 10.9654 18.823C10.8307 18.859 10.6105 18.9447 10.4758 19.0123ZM1.38359 1.80353C1.44199 1.80353 1.5498 1.85761 1.62168 1.92522C1.70254 1.99734 1.77441 2.11453 1.79238 2.21369C1.81934 2.36243 1.80586 2.39398 1.64863 2.55173C1.49141 2.70949 1.46445 2.72301 1.31172 2.69146C1.21738 2.67343 1.10059 2.60582 1.02422 2.52469C0.956836 2.44807 0.90293 2.33538 0.90293 2.26327C0.898438 2.19566 0.943359 2.08298 0.992773 2.01086C1.04219 1.94325 1.13203 1.86663 1.18594 1.84409C1.23984 1.82606 1.32969 1.80353 1.38359 1.80353Z" fill="url(#paint0_linear_987_8839)"/>
<defs>
<linearGradient id="paint0_linear_987_8839" x1="12.806" y1="0.541389" x2="12.1494" y2="21.0208" gradientUnits="userSpaceOnUse">
<stop stop-color="#10A8A0"/>
<stop offset="1" stop-color="#83C24C"/>
</linearGradient>
</defs>
</svg>
