<svg width="33" height="26" viewBox="0 0 33 26" fill="none" xmlns="http://www.w3.org/2000/svg">
<path fill-rule="evenodd" clip-rule="evenodd" d="M3.92464 0L4.1312 0.189583C4.32399 0.358854 4.36531 0.473958 4.68203 1.96354C4.87482 2.83698 5.0263 3.56146 5.0263 3.575C5.0263 3.58177 11.1749 3.58854 18.6937 3.58854C31.5693 3.58854 32.3749 3.59531 32.609 3.71042C32.7536 3.77813 32.8913 3.92031 32.9601 4.0625C33.0703 4.29948 33.0496 4.3875 31.5762 10.9349C30.7499 14.5844 30.0339 17.638 29.9788 17.726C29.9237 17.8073 29.7722 17.9224 29.6414 17.9766C29.4279 18.0646 28.0715 18.0781 18.797 18.0781C12.9651 18.0781 8.19356 18.0984 8.19356 18.1323C8.19356 18.1594 8.24175 18.349 8.29684 18.5521C8.35192 18.7552 8.47585 19.0464 8.56536 19.1953C8.65487 19.3443 8.83389 19.5542 8.95783 19.6625C9.08865 19.7708 9.36406 19.9401 9.94932 20.2109L29.0011 20.2786L29.1663 20.4682C29.2765 20.5833 29.3316 20.7323 29.3316 20.888C29.3316 21.0167 29.2971 21.1927 29.2627 21.2807C29.2214 21.362 29.0975 21.4839 28.9873 21.5516C28.8083 21.6531 28.5879 21.6667 26.0266 21.6667L26.1574 21.9578C26.2263 22.1135 26.3227 22.4385 26.3709 22.6823C26.4328 23.0208 26.4328 23.224 26.3709 23.5625C26.3295 23.8063 26.2194 24.1583 26.1299 24.3411C26.0404 24.5307 25.82 24.8422 25.6341 25.0453C25.4551 25.2417 25.2072 25.4651 25.0971 25.5328C24.98 25.6005 24.6908 25.7359 24.443 25.8307C24.0987 25.9594 23.8715 26 23.4652 26C23.0246 26 22.8387 25.9661 22.4324 25.7969C22.157 25.6818 21.7921 25.4786 21.6269 25.3365C21.4547 25.201 21.2275 24.9641 21.1173 24.8151C21.0072 24.6661 20.8626 24.4224 20.7937 24.2734C20.7249 24.1245 20.6354 23.8063 20.5872 23.5625C20.5321 23.2443 20.5252 23.0073 20.5803 22.7161C20.6216 22.4927 20.7111 22.1677 20.9314 21.6667H15.01L15.1409 21.9578C15.2097 22.1135 15.3061 22.4385 15.3543 22.6823C15.4163 23.0208 15.4163 23.224 15.3543 23.5625C15.313 23.8063 15.2028 24.1583 15.1133 24.3411C15.0238 24.5307 14.8035 24.8422 14.6176 25.0453C14.4386 25.2417 14.1907 25.4651 14.0805 25.5328C13.9635 25.6005 13.6743 25.7359 13.4264 25.8307C13.089 25.9594 12.8549 26 12.4625 26C12.07 26 11.829 25.9594 11.4641 25.8172C11.1956 25.7156 10.8306 25.5057 10.6379 25.3568C10.4519 25.201 10.1834 24.9234 10.0526 24.7406C9.92178 24.5578 9.74964 24.226 9.6739 24.0026C9.58439 23.7318 9.54308 23.4203 9.54308 23.0547C9.54997 22.6281 9.58439 22.4182 9.72899 22.0729C9.86669 21.7479 9.88735 21.6193 9.82538 21.5854C9.77718 21.5583 9.63259 21.5177 9.50177 21.4974C9.37095 21.4703 9.06111 21.3552 8.81324 21.2401C8.53782 21.1115 8.17978 20.8542 7.89749 20.5833C7.53256 20.2516 7.36043 20.0146 7.15387 19.6016C6.91288 19.1005 6.75452 18.4302 3.05709 1.45573L0.330496 1.38802L0.165248 1.20521C0.0550827 1.08333 0 0.934375 0 0.778646C0 0.65 0.0344267 0.473958 0.0826241 0.392708C0.123936 0.304688 0.227216 0.182812 0.302955 0.121875C0.433776 0.0203125 0.647222 0.00677083 3.92464 0ZM5.38434 5.23385C5.40499 5.3151 5.64598 6.43906 5.92828 7.73229L6.43779 10.0885C10.0664 10.0885 10.1903 10.0818 10.1628 9.97344C10.149 9.90573 10.0113 8.775 9.86669 7.46146L9.60505 5.07812H5.34991L5.38434 5.23385ZM11.3608 7.55625C11.5123 8.8901 11.6362 10.0141 11.6362 10.0411C11.6362 10.0682 12.9858 10.0953 14.6313 10.0953H17.6265V5.0849C12.5589 5.0849 11.0854 5.09167 11.0854 5.09844C11.0854 5.10521 11.2093 6.20885 11.3608 7.55625ZM19.0724 10.0953C23.9679 10.0953 24.3053 10.0818 24.3053 9.99375C24.3053 9.93281 24.4292 8.8224 24.5807 7.5224C24.7321 6.21563 24.8561 5.13229 24.8561 5.11875C24.8561 5.09844 23.5548 5.0849 21.9642 5.0849H19.0724V10.0953ZM26.0679 7.5224C25.9302 8.76823 25.7994 9.85833 25.7856 9.93958L25.7512 10.0953H30.2611C31.0942 6.3375 31.3283 5.21354 31.3283 5.16615C31.3283 5.09844 30.7844 5.0849 28.8496 5.0849C26.9286 5.0849 26.364 5.09844 26.3433 5.16615C26.3295 5.21354 26.2056 6.26979 26.0679 7.5224ZM6.82337 11.8354C6.8578 11.9776 7.09879 13.0948 7.36731 14.3271C7.63584 15.5526 7.84929 16.5682 7.84929 16.575C7.84929 16.5818 8.53094 16.5953 9.36406 16.5953C10.7618 16.5953 10.8788 16.5818 10.8788 16.4734C10.8788 16.4057 10.7756 15.3766 10.6379 14.1917C10.507 12.9932 10.3831 11.9234 10.3624 11.8016L10.328 11.5849H6.76829L6.82337 11.8354ZM12.0838 13.9818C12.2146 15.1734 12.3385 16.25 12.3592 16.3719L12.3936 16.5885H17.6265V11.5781C12.0287 11.5781 11.8428 11.5849 11.8428 11.7C11.8428 11.7609 11.953 12.7901 12.0838 13.9818ZM19.0724 16.5885H23.5479C23.6029 16.1417 23.7269 15.0786 23.8577 13.9344C23.9885 12.7833 24.0987 11.788 24.0987 11.7135C24.0987 11.5781 24.0505 11.5781 21.5855 11.5781H19.0724V16.5885ZM25.5859 11.8354C25.5653 11.9708 25.4344 13.0406 25.3036 14.2052C25.1728 15.363 25.0626 16.3786 25.0626 16.4531C25.0626 16.5885 25.104 16.5885 26.9355 16.575L28.8083 16.5547C29.6345 12.8307 29.8755 11.7068 29.8755 11.6661C29.8824 11.5984 29.4142 11.5781 27.7548 11.5781H25.6272L25.5859 11.8354ZM11.4434 22.0932C11.3195 22.2151 11.168 22.4318 11.1129 22.5875C11.0441 22.7568 11.0097 23.0005 11.0234 23.2375C11.0441 23.5286 11.0992 23.6911 11.2575 23.9146C11.3746 24.0771 11.6087 24.2802 11.7739 24.375C11.9943 24.4901 12.1871 24.5375 12.4625 24.5375C12.731 24.5375 12.9238 24.4901 13.1441 24.375C13.3162 24.2802 13.5504 24.0771 13.6605 23.9146C13.8326 23.6844 13.8808 23.5354 13.9015 23.2036C13.9153 22.8854 13.8946 22.7229 13.7845 22.5198C13.7087 22.3641 13.5572 22.1609 13.4471 22.0661C13.3438 21.9646 13.1372 21.8359 12.9926 21.775C12.8549 21.7141 12.6208 21.6734 12.4762 21.6734C12.3385 21.6734 12.0975 21.7208 11.9461 21.775C11.7946 21.8292 11.5674 21.9714 11.4434 22.0932ZM22.46 22.0932C22.336 22.2151 22.1846 22.4318 22.1295 22.5875C22.0606 22.7568 22.0262 23.0005 22.04 23.2375C22.0606 23.5286 22.1157 23.6911 22.2741 23.9146C22.3911 24.0771 22.6252 24.2802 22.7905 24.375C23.0108 24.4901 23.2036 24.5375 23.479 24.5375C23.7475 24.5375 23.9403 24.4901 24.1607 24.375C24.3328 24.2802 24.5669 24.0771 24.6771 23.9146C24.8492 23.6844 24.8974 23.5354 24.918 23.2036C24.9318 22.8854 24.9112 22.7229 24.801 22.5198C24.7253 22.3641 24.5738 22.1609 24.4636 22.0661C24.3603 21.9646 24.1538 21.8359 24.0092 21.775C23.8715 21.7141 23.6374 21.6734 23.4928 21.6734C23.3551 21.6734 23.1141 21.7208 22.9626 21.775C22.8111 21.8292 22.5839 21.9714 22.46 22.0932Z" fill="white"/>
</svg>
