<svg width="20" height="22" viewBox="0 0 20 22" fill="none" xmlns="http://www.w3.org/2000/svg">
<path fill-rule="evenodd" clip-rule="evenodd" d="M5.57334 0H8.07279V2.29838C8.07279 3.56141 8.08595 4.59676 8.10787 4.59676C8.12541 4.59676 8.26573 4.47217 8.42359 4.31752C8.58145 4.16286 8.72616 4.03827 8.75247 4.03827C8.77439 4.03827 9.19097 4.42492 10.5503 5.75669L8.70862 7.56102C7.69568 8.55341 6.84499 9.36536 6.82307 9.36536C6.79675 9.36536 5.95045 8.55341 3.09581 5.75669L3.96843 4.89748C4.45078 4.42492 4.86297 4.03827 4.88928 4.03827C4.91559 4.03827 5.06468 4.16286 5.22254 4.31752C5.3804 4.47217 5.52072 4.59676 5.54264 4.59676C5.56018 4.59676 5.57334 3.56141 5.57334 2.29838V0ZM6.36264 3.60008C6.36264 5.15095 6.34948 6.43976 6.33194 6.45694C6.31002 6.47413 5.98114 6.182 5.59526 5.79965L4.89366 5.11228L4.23591 5.75669L6.82307 8.29135L9.41022 5.75669L8.75247 5.11228C7.66499 6.182 7.33173 6.47413 7.31419 6.45694C7.29665 6.43976 7.28349 5.15095 7.28349 3.60008V0.773286H6.36264V3.60008ZM5.72681 9.15056L7.30542 12.248H13.2909L14.8476 9.15056H17.4216C18.838 9.15056 20 9.16345 20 9.17633C20 9.18493 19.5922 9.98828 18.2021 12.7206V22H1.80224V16.544H0.925236C0.36834 16.544 0.048235 16.5269 0.048235 16.5011C0.048235 16.4753 0.425345 15.6118 0.885771 14.5764C1.3462 13.5411 1.72331 12.6776 1.72331 12.6561C1.72331 12.6303 1.33743 11.8399 0.863846 10.8947C0.390265 9.94962 0 9.16774 0 9.16345C0.004385 9.15915 1.28919 9.15056 5.72681 9.15056ZM1.8417 11.0967L2.41614 12.248H6.40649L5.24446 9.92384C2.16619 9.92384 1.27604 9.93244 1.27165 9.93673C1.27165 9.94103 1.53037 10.4651 1.8417 11.0967ZM14.1679 12.248H17.5882C18.474 10.4651 18.7283 9.94103 18.7283 9.93673C18.7283 9.93244 17.961 9.92814 17.027 9.92814H15.3256L14.1679 12.248ZM1.80662 14.4476C1.4909 15.1521 1.23219 15.7364 1.23219 15.7493C1.23219 15.7579 3.58255 15.7622 6.45911 15.7579L11.686 15.7493C12.6244 13.6485 12.8963 13.0342 12.8963 13.0299C12.8963 13.0256 10.5503 13.0213 7.67814 13.0213C2.75378 13.0213 2.45999 13.0213 2.42052 13.0943C2.3986 13.1373 2.12234 13.743 1.80662 14.4476ZM13.9048 21.2267L17.4128 21.2224V13.017H13.9048V21.2267ZM12.5718 15.6848L12.2078 16.5226L2.59154 16.544V21.2267H13.0717C13.0717 16.1359 13.0629 14.6538 13.0498 14.6538C13.0366 14.6538 13.0059 14.701 12.984 14.7526C12.9577 14.8041 12.7735 15.2252 12.5718 15.6848ZM12.984 0.0472564C12.9971 0.0472564 13.8347 0.859207 16.6893 3.66022L14.9134 5.39582L14.2556 4.75142V9.41261H11.7123V4.75142L11.0546 5.39582L9.27867 3.66022L11.1204 1.85589C12.1333 0.863503 12.9708 0.0472564 12.984 0.0472564ZM10.3968 3.63445L11.0546 4.27885L12.5016 2.86116L12.5236 8.62214L13.4663 8.64362V2.86546L14.9353 4.30463L15.5931 3.65593C13.5891 1.69264 12.9971 1.12127 12.984 1.12127C12.9708 1.12127 12.3832 1.68834 11.6773 2.38L10.3968 3.63445Z" fill="url(#paint0_linear_987_8836)"/>
<defs>
<linearGradient id="paint0_linear_987_8836" x1="11.1356" y1="0.56717" x2="10.3074" y2="22.0119" gradientUnits="userSpaceOnUse">
<stop stop-color="#10A8A0"/>
<stop offset="1" stop-color="#83C24C"/>
</linearGradient>
</defs>
</svg>
