<svg width="29" height="29" viewBox="0 0 29 29" fill="none" xmlns="http://www.w3.org/2000/svg">
<path fill-rule="evenodd" clip-rule="evenodd" d="M14.4717 0C15.0947 0 15.7574 0.0226663 15.9443 0.0509993C16.1313 0.0793322 16.5391 0.147331 16.8506 0.192664C17.1621 0.243663 17.7115 0.356995 18.0684 0.44766C18.4252 0.538326 19.0256 0.719656 19.3994 0.849988C19.7732 0.985986 20.4756 1.29198 20.957 1.52998C21.4385 1.77364 22.1012 2.14197 22.4297 2.3573C22.7582 2.57263 23.2793 2.95796 23.5908 3.20729C23.9023 3.46228 24.4291 3.94394 24.7633 4.27827C25.0975 4.61827 25.5393 5.09993 25.7432 5.34926C25.9527 5.59859 26.3209 6.10858 26.5701 6.48257C26.8193 6.85657 27.2271 7.57056 27.4707 8.06922C27.7199 8.56788 28.0088 9.21953 28.1164 9.5142C28.224 9.80886 28.4053 10.3982 28.5129 10.8175C28.6262 11.2368 28.7791 12.0245 28.8584 12.5628C28.966 13.2825 29 13.7755 29 14.4611C29 14.9654 28.9604 15.6851 28.915 16.0591C28.8641 16.4331 28.7734 17.0054 28.7111 17.3341C28.6432 17.6627 28.5072 18.2237 28.4053 18.5807C28.3033 18.9377 28.1107 19.4987 27.9805 19.8274C27.8502 20.156 27.5727 20.751 27.3631 21.159C27.1535 21.5614 26.808 22.162 26.5928 22.4907C26.3775 22.8193 26.0037 23.3293 25.7658 23.624C25.5279 23.9187 25.0521 24.4343 24.718 24.7686C24.3781 25.103 23.8967 25.545 23.6475 25.7546C23.3982 25.9586 22.8885 26.3326 22.5146 26.5819C22.1408 26.8313 21.4385 27.2336 20.957 27.4716C20.4756 27.7096 19.7732 28.0156 19.3994 28.1516C19.0256 28.2819 18.4139 28.4689 18.04 28.5653C17.6662 28.6559 17.0262 28.7862 16.624 28.8542C16.1199 28.9336 15.5195 28.9789 14.7266 28.9959C13.9902 29.0072 13.3898 28.9959 13.084 28.9506C12.8178 28.9109 12.3703 28.8429 12.0928 28.7976C11.8096 28.7579 11.2885 28.6446 10.9316 28.5539C10.5748 28.4633 9.97441 28.2819 9.60059 28.1516C9.22676 28.0156 8.52441 27.7096 8.04297 27.4716C7.56152 27.2279 6.89883 26.8596 6.57031 26.6443C6.2418 26.4289 5.7207 26.0436 5.40918 25.7943C5.09766 25.5393 4.5709 25.0576 4.23672 24.7233C3.90254 24.3833 3.46074 23.9017 3.25117 23.6523C3.04727 23.403 2.67344 22.893 2.42422 22.519C2.175 22.145 1.77285 21.4424 1.53496 20.9607C1.29707 20.479 0.991211 19.7764 0.855273 19.4024C0.725 19.0284 0.538086 18.4164 0.441797 18.0424C0.351172 17.6684 0.20957 16.9431 0.135938 16.4274C0.0396484 15.7474 0 15.2374 0 14.5575C0 14.0418 0.0396484 13.3165 0.0849609 12.9425C0.130273 12.5685 0.198242 12.1095 0.232227 11.9225C0.260547 11.7355 0.3625 11.2878 0.453125 10.9308C0.54375 10.5738 0.725 9.97319 0.855273 9.59919C0.991211 9.2252 1.29707 8.52254 1.53496 8.04088C1.77852 7.55922 2.14668 6.89623 2.36191 6.56757C2.57715 6.23891 2.9623 5.71758 3.21152 5.40592C3.46641 5.09426 3.94785 4.56727 4.28203 4.23294C4.62187 3.89861 5.10332 3.45662 5.35254 3.24695C5.60176 3.04296 6.11152 2.66896 6.48535 2.41963C6.85918 2.1703 7.56152 1.76797 8.04297 1.52998C8.52441 1.29198 9.22676 0.985986 9.60059 0.849988C9.97441 0.719656 10.5861 0.532659 10.96 0.436327C11.3338 0.345662 12.0248 0.209664 12.4893 0.135998C13.1406 0.0396661 13.6051 0.00566658 14.4717 0ZM8.28086 7.71789C7.62949 8.38655 7.52187 8.52254 7.28965 9.0042C7.11973 9.35553 6.99512 9.71253 6.93281 10.0242C6.86484 10.3698 6.84785 10.6362 6.87617 10.9592C6.89883 11.2085 6.9498 11.5428 6.98945 11.6958C7.03477 11.8545 7.14805 12.1945 7.24434 12.4608C7.34629 12.7271 7.59551 13.2881 7.80508 13.7075C8.02031 14.1268 8.3998 14.7898 8.66035 15.1808C8.9209 15.5718 9.32305 16.1328 9.56094 16.4274C9.79316 16.7221 10.4105 17.3851 10.926 17.9064C11.4414 18.4221 12.0814 19.0171 12.3477 19.2267C12.6139 19.4364 13.1746 19.8387 13.5938 20.122C14.0129 20.4054 14.7662 20.836 15.2646 21.0797C15.7631 21.3234 16.4881 21.6294 16.8789 21.754C17.2697 21.8787 17.7795 22.009 18.0117 22.0373C18.2949 22.0789 18.5876 22.0808 18.8896 22.043C19.1389 22.0147 19.4674 21.9467 19.626 21.8957C19.7789 21.839 20.0848 21.7087 20.3 21.5897C20.5209 21.4764 20.9004 21.2044 21.1496 20.9834C21.4045 20.7624 21.716 20.4564 21.852 20.3034C21.9822 20.1504 22.1068 19.9577 22.1182 19.8727C22.1352 19.782 22.1068 19.629 22.0615 19.5327C22.0162 19.4307 21.3365 18.7054 20.5492 17.9177C19.524 16.8978 19.0652 16.4784 18.9463 16.4558C18.85 16.4331 18.7141 16.4331 18.6348 16.4558C18.5555 16.4728 18.074 16.9091 17.5586 17.4191C16.9752 17.9971 16.5447 18.3824 16.4088 18.4391C16.2955 18.4844 16.052 18.5241 15.8707 18.5241C15.6555 18.5241 15.4761 18.4863 15.3326 18.4107C15.2193 18.3484 14.9248 18.1501 14.6813 17.9744C14.4434 17.7931 13.9902 17.4304 13.6787 17.1584C13.3672 16.8921 12.7951 16.3424 12.4043 15.9401C12.0135 15.5378 11.515 14.9824 11.2998 14.7105C11.0789 14.4328 10.8297 14.1041 10.7447 13.9738C10.6598 13.8435 10.5578 13.6338 10.5295 13.5091C10.4955 13.3845 10.4842 13.1748 10.5012 13.0445C10.5182 12.9085 10.5748 12.7158 10.6258 12.6195C10.6768 12.5175 11.1525 11.9905 11.6736 11.4578C12.4836 10.6305 12.6309 10.4492 12.6309 10.3075C12.6309 10.2112 12.5969 10.0695 12.5516 9.98452C12.5063 9.89386 11.8379 9.19687 11.0619 8.42621C10.2916 7.65556 9.58926 6.99823 9.49863 6.96423C9.41367 6.9359 9.32871 6.91323 9.30039 6.91323C9.27773 6.9189 9.2041 6.9359 9.13613 6.94723C9.0625 6.95857 8.68301 7.30423 8.28086 7.71789Z" fill="url(#paint0_linear_987_7994)"/>
<defs>
<linearGradient id="paint0_linear_987_7994" x1="14.5" y1="0" x2="14.5" y2="29.1266" gradientUnits="userSpaceOnUse">
<stop stop-color="#00F0FF"/>
<stop offset="1" stop-color="#06549C"/>
</linearGradient>
</defs>
</svg>
