<svg width="20" height="21" viewBox="0 0 20 21" fill="none" xmlns="http://www.w3.org/2000/svg">
<path d="M10.0001 3.42164e-08C10.8855 -0.000121089 11.7389 0.321337 12.3928 0.901257C13.0467 1.48118 13.4539 2.27766 13.5344 3.13433H19.0325C19.2777 3.1344 19.5138 3.2249 19.6929 3.38755C19.8721 3.55019 19.981 3.77285 19.9977 4.01054C20.0145 4.24822 19.9377 4.48321 19.783 4.66802C19.6282 4.85283 19.4071 4.97368 19.1642 5.00615L19.0325 5.01493H18.2803L16.6454 18.7809C16.5726 19.392 16.2711 19.9557 15.7984 20.3649C15.3257 20.774 14.7146 21.0001 14.0815 21H5.9188C5.28569 21.0001 4.67464 20.774 4.20189 20.3649C3.72915 19.9557 3.4277 19.392 3.35489 18.7809L1.71874 5.01493H0.967756C0.733898 5.01492 0.507953 4.93263 0.331707 4.78328C0.155461 4.63393 0.0408371 4.42762 0.00903235 4.20251L0 4.07463C9.86195e-06 3.8474 0.0847014 3.62787 0.238413 3.45662C0.392124 3.28538 0.604456 3.17401 0.836141 3.1431L0.967756 3.13433H6.4659C6.54639 2.27766 6.95356 1.48118 7.60747 0.901257C8.26139 0.321337 9.1148 -0.000121089 10.0001 3.42164e-08ZM8.06464 7.83582C7.7485 7.83582 7.48398 8.03015 7.42979 8.28591L7.41946 8.38496V16.0641L7.42979 16.1618C7.48398 16.4176 7.7485 16.6119 8.06464 16.6119C8.38077 16.6119 8.64529 16.4176 8.69948 16.1618L8.70981 16.0628V8.38621L8.69948 8.28591C8.64529 8.0314 8.38077 7.83582 8.06464 7.83582ZM11.9357 7.83582C11.6195 7.83582 11.355 8.03015 11.3008 8.28591L11.2905 8.38496V16.0641L11.3008 16.1618C11.355 16.4176 11.6195 16.6119 11.9357 16.6119C12.2518 16.6119 12.5163 16.4176 12.5705 16.1618L12.5808 16.0628V8.38621L12.5705 8.28591C12.5163 8.0314 12.2518 7.83582 11.9357 7.83582ZM10.0001 1.8806C9.21949 1.8806 8.56787 2.4197 8.41948 3.13433H11.5808C11.4311 2.4197 10.7808 1.8806 10.0001 1.8806Z" fill="#FF4E4E"/>
</svg>
