<svg width="10" height="6" viewBox="0 0 10 6" fill="none" xmlns="http://www.w3.org/2000/svg">
<path d="M0 0.78353C0 0.702353 0.0234899 0.575294 0.0536912 0.504705C0.0805369 0.430588 0.144295 0.324706 0.194631 0.268235C0.244967 0.211765 0.345638 0.137647 0.419463 0.102353C0.493289 0.0670586 0.620805 0.0352941 0.704698 0.0352941C0.788591 0.0352941 0.922819 0.0705881 1.00671 0.109412C1.12081 0.162353 1.60738 0.652941 4.96644 4.18235L6.88591 2.16353C8.35235 0.624705 8.84564 0.127059 8.95973 0.0741177C9.04362 0.0352941 9.17785 -4.76837e-07 9.26174 -4.76837e-07C9.34564 -4.76837e-07 9.47315 0.031764 9.54698 0.0670586C9.6208 0.102353 9.71812 0.169412 9.76174 0.215294C9.80872 0.261177 9.8792 0.381176 9.92282 0.47647C9.96309 0.575294 10 0.695293 10 0.751764C10 0.804705 9.96309 0.931764 9.91611 1.03412C9.84899 1.18588 9.44966 1.62353 7.61074 3.55412C6.04027 5.20235 5.34899 5.90824 5.26174 5.94706C5.19127 5.97529 5.0604 6 4.96644 6C4.87584 6 4.74161 5.97529 4.6745 5.94706C4.58389 5.90824 3.89597 5.20588 2.3557 3.58941C0.661074 1.80706 0.147651 1.24941 0.0838926 1.11176C0.033557 1.00588 0 0.875293 0 0.787058L0 0.78353Z" fill="black"/>
</svg>
