<svg width="13" height="10" viewBox="0 0 13 10" fill="none" xmlns="http://www.w3.org/2000/svg">
<path d="M11.2039 0C12.1961 0 13 0.783333 13 1.75V8.25C13 9.21667 12.1961 10 11.2039 10H1.79605C1.31971 10 0.862877 9.81563 0.526052 9.48744C0.189226 9.15925 0 8.71413 0 8.25V1.75C0 0.783333 0.803947 0 1.79605 0H11.2039ZM12.1447 3.117L6.70595 6.03167C6.64999 6.06165 6.58785 6.07903 6.52409 6.08255C6.46033 6.08607 6.39658 6.07563 6.3375 6.052L6.29405 6.032L0.855263 3.11667V8.25C0.855263 8.49312 0.954382 8.72627 1.13081 8.89818C1.30725 9.07009 1.54654 9.16667 1.79605 9.16667H11.2039C11.4535 9.16667 11.6928 9.07009 11.8692 8.89818C12.0456 8.72627 12.1447 8.49312 12.1447 8.25V3.117ZM11.2039 0.833333H1.79605C1.54654 0.833333 1.30725 0.92991 1.13081 1.10182C0.954382 1.27373 0.855263 1.50688 0.855263 1.75V2.16633L6.5 5.191L12.1447 2.166V1.75C12.1447 1.50688 12.0456 1.27373 11.8692 1.10182C11.6928 0.92991 11.4535 0.833333 11.2039 0.833333Z" fill="#10A39A"/>
</svg>
