<svg width="293" height="274" viewBox="0 0 293 274" fill="none" xmlns="http://www.w3.org/2000/svg">
<path opacity="0.2" d="M145.88 0C145.933 0 147.96 1.81953 150.36 4.06719C152.813 6.31484 157.56 10.2215 160.92 12.7902C164.28 15.359 169.187 18.784 171.853 20.3895C174.467 22.0484 179.373 24.7777 182.627 26.4367C185.933 28.0957 191.053 30.3969 193.987 31.5742C196.92 32.7516 202.04 34.5176 205.293 35.5344C208.6 36.5512 214.2 37.9426 217.72 38.6918C221.24 39.441 226.733 40.4043 229.987 40.8859C233.187 41.3676 239.213 41.9562 243.32 42.2773C247.427 42.5449 252.547 42.8125 258.52 42.8125L258.84 66.2523C259.053 79.0961 259.053 96.007 258.84 103.82C258.68 111.634 258.04 123.193 257.453 129.508C256.867 135.823 256.013 143.315 255.587 146.098C255.107 148.88 254.147 154.071 253.4 157.604C252.707 161.136 251.267 166.915 250.253 170.447C249.24 173.979 247.427 179.491 246.253 182.756C245.08 185.967 242.467 192.014 240.44 196.135C238.467 200.255 235.427 205.928 233.667 208.711C231.96 211.494 228.813 216.15 226.68 219.039C224.547 221.876 219.853 227.281 216.227 230.973C212.653 234.72 207.427 239.643 204.653 241.998C201.88 244.352 196.813 248.098 193.453 250.4C190.093 252.701 185.133 255.858 182.52 257.41C179.853 258.962 175.427 261.37 172.653 262.762C169.88 264.153 165.08 266.401 161.987 267.685C158.893 269.023 154.573 270.789 152.387 271.592C150.2 272.395 148.173 273.304 147.853 273.518C147.587 273.786 146.787 274 145.987 274C145.24 274 144.387 273.786 144.12 273.572C143.8 273.304 141.773 272.395 139.587 271.592C137.4 270.789 133.08 269.023 129.987 267.685C126.893 266.401 122.093 264.153 119.32 262.762C116.547 261.37 112.067 258.962 109.453 257.41C106.787 255.858 101.88 252.701 98.52 250.4C95.16 248.098 90.0933 244.352 87.32 241.998C84.5466 239.643 79.32 234.72 75.6933 230.973C72.1199 227.281 67.4266 221.876 65.2933 218.986C63.16 216.15 60.0133 211.494 58.3066 208.711C56.5466 205.928 53.5066 200.255 51.5333 196.135C49.5066 192.014 46.8933 185.967 45.7199 182.756C44.5466 179.491 42.7333 173.979 41.7199 170.447C40.7066 166.915 39.2666 161.136 38.5733 157.604C37.8266 154.071 36.8666 148.88 36.3866 146.098C35.9599 143.315 35.1066 135.823 34.5199 129.508C33.9333 123.193 33.2933 111.634 33.1333 103.82C32.9199 96.007 32.9199 79.0961 33.4533 42.8125H37.2933C39.4266 42.8125 44.5466 42.5449 48.6533 42.2773C52.76 41.9562 58.7333 41.3676 61.9866 40.8859C65.1866 40.4043 70.7333 39.441 74.2533 38.6918C77.7733 37.9426 83.3733 36.5512 86.6266 35.5344C89.9333 34.5176 95.0533 32.7516 97.9866 31.5742C100.92 30.3969 106.04 28.0957 109.293 26.4367C112.6 24.7777 117.453 22.0484 120.12 20.3895C122.733 18.784 127.693 15.359 131.053 12.7902C134.413 10.2215 139.107 6.31484 141.453 4.1207C143.8 1.87305 145.773 0.0535156 145.827 0H145.88Z" fill="#3E3D3D"/>
<path opacity="0.1" d="M292.5 156.099C292.5 163.605 288.504 170.814 281.153 177.428C273.801 184.042 263.136 190.022 249.913 195.054C249.334 195.274 248.749 195.493 248.16 195.71C247.243 193.843 246.265 191.952 245.227 190.04C237.975 176.681 227.798 162.278 215.192 147.74C222.352 135.314 228.314 123.145 232.972 111.609C238.987 113.289 244.65 115.141 249.913 117.143C263.136 122.175 273.801 128.155 281.153 134.769C288.504 141.384 292.5 148.592 292.5 156.099ZM244.348 190.518C245.362 192.385 246.318 194.232 247.215 196.055C226.255 203.632 199.373 208.874 169.467 210.668C177.018 202.27 184.473 193.169 191.681 183.462C200.305 171.846 207.994 160.145 214.662 148.655C227.122 163.057 237.178 177.308 244.348 190.518ZM168.512 211.726C198.949 209.983 226.338 204.68 247.656 196.959C252.459 206.897 255.478 216.107 256.507 224.181C257.755 233.972 256.07 242.035 251.16 247.727C246.249 253.42 238.503 256.29 228.602 256.528C218.701 256.767 206.702 254.371 193.385 249.595C180.413 244.943 166.216 238.042 151.523 229.153C157.194 223.763 162.878 217.941 168.512 211.726ZM190.878 182.866C183.472 192.841 175.806 202.171 168.046 210.751C161.015 211.146 153.821 211.351 146.5 211.351C138.927 211.351 131.489 211.132 124.228 210.71C117.577 205.743 110.916 200.417 104.31 194.756C92.519 184.652 81.7642 174.219 72.2265 163.792C80.2243 148.579 90.134 132.784 101.753 117.134C105.559 112.008 109.433 107.053 113.354 102.282C124.002 101.343 135.098 100.847 146.5 100.847C152.709 100.847 158.826 100.994 164.83 101.28C168.761 104.387 172.686 107.617 176.593 110.965C190.619 122.984 203.18 135.47 213.969 147.857C207.282 159.406 199.557 171.177 190.878 182.866ZM125.686 211.793C132.486 212.16 139.435 212.351 146.5 212.351C153.487 212.351 160.361 212.165 167.089 211.805C161.629 217.793 156.126 223.408 150.637 228.615C142.427 223.61 134.068 217.988 125.686 211.793ZM103.659 195.515C109.879 200.846 116.149 205.88 122.415 210.6C97.8386 209.051 75.3397 205.171 56.5386 199.582C60.3147 188.594 65.4138 176.855 71.7333 164.734C81.2405 175.105 91.942 185.475 103.659 195.515ZM56.2157 200.53C75.4957 206.265 98.6242 210.203 123.87 211.69C132.604 218.201 141.322 224.097 149.884 229.327C138.412 240.133 127.015 249.143 116.219 256.024C104.296 263.625 93.1289 268.613 83.4212 270.568C73.7132 272.524 65.5215 271.437 59.4665 266.971C53.4118 262.505 49.9752 255.016 49.0138 245.192C48.0524 235.368 49.5744 223.266 53.3815 209.68C54.2172 206.697 55.1628 203.644 56.2157 200.53ZM11.8471 134.769C18.1722 129.078 26.9508 123.857 37.7003 119.306C45.838 133.48 57.1322 148.707 71.0154 163.948C64.5897 176.237 59.4086 188.147 55.5799 199.295C51.204 197.972 47.0327 196.556 43.0867 195.054C29.8643 190.022 19.1985 184.042 11.8471 177.428C4.49558 170.814 0.5 163.605 0.5 156.099C0.5 148.592 4.49558 141.384 11.8471 134.769ZM71.5101 163.006C57.8167 147.94 46.6742 132.905 38.6296 118.916C40.0808 118.313 41.5668 117.722 43.0867 117.143C61.7407 110.044 85.4319 104.851 111.958 102.408C108.239 106.957 104.564 111.671 100.95 116.538C89.3866 132.113 79.5057 147.84 71.5101 163.006ZM146.5 99.8468C135.42 99.8468 124.626 100.314 114.246 101.201C120.709 93.3946 127.293 86.0912 133.897 79.3541C143.645 85.4804 153.576 92.4595 163.48 100.217C157.909 99.9724 152.243 99.8468 146.5 99.8468ZM133.03 78.8107C126.242 85.7444 119.479 93.2714 112.848 101.323C85.8498 103.734 61.7134 108.985 42.731 116.209C41.1619 116.806 39.6277 117.417 38.1297 118.041C37.5899 117.09 37.0647 116.144 36.554 115.203C29.8193 102.796 25.643 91.3317 24.3951 81.5398C23.1472 71.748 24.8322 63.6857 29.7424 57.9934C34.6529 52.3007 42.3988 49.4307 52.3002 49.192C62.2013 48.9533 74.2002 51.3497 87.5177 56.1258C101.56 61.162 117.04 68.8336 133.03 78.8107ZM165.199 100.296C154.968 92.2219 144.697 84.9703 134.615 78.6241C148.803 64.2414 163.067 52.4818 176.412 43.9755C188.335 36.3753 199.502 31.3868 209.21 29.4315C218.918 27.4762 227.11 28.5629 233.165 33.0289C239.219 37.4947 242.656 44.9843 243.617 54.808C244.579 64.6319 243.057 76.7336 239.25 90.3201C237.456 96.7201 235.157 103.444 232.377 110.406C212.993 105.073 190.063 101.5 165.199 100.296ZM166.547 101.365C190.765 102.628 213.087 106.146 232.002 111.34C227.407 122.705 221.538 134.693 214.497 146.941C203.722 134.598 191.204 122.168 177.243 110.205C173.691 107.161 170.122 104.213 166.547 101.365Z" stroke="black"/>
<path d="M186.262 145.238H175.293V108.912C175.293 93.0728 162.381 80.1853 146.543 80.1853C130.704 80.1853 117.792 93.0728 117.792 108.912V145.238H106.823V108.912C106.823 87.0226 124.629 69.1917 146.543 69.1917C168.456 69.1917 186.262 87.0226 186.262 108.912V145.238Z" fill="white"/>
<path d="M198.83 127.997H94.2548C91.9049 127.997 90 129.902 90 132.252V200.206C90 202.556 91.9049 204.461 94.2548 204.461H198.83C201.18 204.461 203.085 202.556 203.085 200.206V132.252C203.085 129.902 201.18 127.997 198.83 127.997Z" fill="url(#paint0_linear_10_184)"/>
<path d="M152.101 162.208L155.077 183.359H138.008L140.984 162.208C138.697 160.511 137.197 157.805 137.197 154.706C137.197 149.566 141.378 145.385 146.543 145.385C151.707 145.385 155.888 149.566 155.888 154.706C155.888 157.805 154.388 160.511 152.101 162.208Z" fill="white"/>
<defs>
<linearGradient id="paint0_linear_10_184" x1="152.964" y1="129.968" x2="151.192" y2="204.571" gradientUnits="userSpaceOnUse">
<stop stop-color="#10A8A0"/>
<stop offset="1" stop-color="#83C24C"/>
</linearGradient>
</defs>
</svg>
