<svg width="6" height="10" viewBox="0 0 6 10" fill="none" xmlns="http://www.w3.org/2000/svg">
<path d="M0.78353 0C0.702353 0 0.575294 0.0234899 0.504705 0.0536912C0.430588 0.0805369 0.324706 0.144295 0.268235 0.194631C0.211765 0.244967 0.137647 0.345638 0.102353 0.419463C0.0670586 0.493289 0.0352941 0.620805 0.0352941 0.704698C0.0352941 0.788591 0.0705881 0.922819 0.109412 1.00671C0.162353 1.12081 0.652941 1.60738 4.18235 4.96644L2.16353 6.88591C0.624705 8.35235 0.127059 8.84564 0.0741177 8.95973C0.0352941 9.04362 -4.76837e-07 9.17785 -4.76837e-07 9.26174C-4.76837e-07 9.34564 0.031764 9.47315 0.0670586 9.54698C0.102353 9.6208 0.169412 9.71812 0.215294 9.76174C0.261177 9.80872 0.381176 9.8792 0.47647 9.92282C0.575294 9.96309 0.695293 10 0.751764 10C0.804705 10 0.931764 9.96309 1.03412 9.91611C1.18588 9.84899 1.62353 9.44966 3.55412 7.61074C5.20235 6.04027 5.90824 5.34899 5.94706 5.26174C5.97529 5.19127 6 5.0604 6 4.96644C6 4.87584 5.97529 4.74161 5.94706 4.6745C5.90824 4.58389 5.20588 3.89597 3.58941 2.3557C1.80706 0.661074 1.24941 0.147651 1.11176 0.0838926C1.00588 0.033557 0.875293 0 0.787058 0H0.78353Z" fill="black"/>
</svg>
