<svg width="12" height="15" viewBox="0 0 12 15" fill="none" xmlns="http://www.w3.org/2000/svg">
<path d="M10.9091 5.89286C10.9091 4.61413 10.3919 3.38779 9.47125 2.48359C8.55062 1.5794 7.30197 1.07143 6 1.07143C4.69803 1.07143 3.44938 1.5794 2.52875 2.48359C1.60812 3.38779 1.09091 4.61413 1.09091 5.89286C1.09091 7.87071 2.70218 10.4486 6 13.5364C9.29782 10.4486 10.9091 7.87071 10.9091 5.89286ZM6 15C1.99964 11.4289 0 8.3925 0 5.89286C0 4.32997 0.632141 2.8311 1.75736 1.72598C2.88258 0.620853 4.4087 0 6 0C7.5913 0 9.11742 0.620853 10.2426 1.72598C11.3679 2.8311 12 4.32997 12 5.89286C12 8.3925 10.0004 11.4289 6 15Z" fill="url(#paint0_linear_29_103)"/>
<path d="M6 7.5C6.43399 7.5 6.85021 7.33068 7.15708 7.02928C7.46396 6.72788 7.63636 6.3191 7.63636 5.89286C7.63636 5.46662 7.46396 5.05783 7.15708 4.75644C6.85021 4.45504 6.43399 4.28571 6 4.28571C5.56601 4.28571 5.14979 4.45504 4.84292 4.75644C4.53604 5.05783 4.36364 5.46662 4.36364 5.89286C4.36364 6.3191 4.53604 6.72788 4.84292 7.02928C5.14979 7.33068 5.56601 7.5 6 7.5ZM6 8.57143C5.27668 8.57143 4.58299 8.28922 4.07153 7.78689C3.56006 7.28456 3.27273 6.60326 3.27273 5.89286C3.27273 5.18246 3.56006 4.50115 4.07153 3.99882C4.58299 3.49649 5.27668 3.21429 6 3.21429C6.72332 3.21429 7.41701 3.49649 7.92847 3.99882C8.43994 4.50115 8.72727 5.18246 8.72727 5.89286C8.72727 6.60326 8.43994 7.28456 7.92847 7.78689C7.41701 8.28922 6.72332 8.57143 6 8.57143Z" fill="url(#paint1_linear_29_103)"/>
<defs>
<linearGradient id="paint0_linear_29_103" x1="6.68137" y1="0.386707" x2="6.03992" y2="15.0018" gradientUnits="userSpaceOnUse">
<stop stop-color="#10A8A0"/>
<stop offset="1" stop-color="#83C24C"/>
</linearGradient>
<linearGradient id="paint1_linear_29_103" x1="6.68137" y1="0.386707" x2="6.03992" y2="15.0018" gradientUnits="userSpaceOnUse">
<stop stop-color="#10A8A0"/>
<stop offset="1" stop-color="#83C24C"/>
</linearGradient>
</defs>
</svg>
