<svg width="11" height="16" viewBox="0 0 11 16" fill="none" xmlns="http://www.w3.org/2000/svg">
<path d="M8.49477 4.06206C8.49477 4.40102 8.49936 4.73998 8.49227 5.07894C8.48977 5.18762 8.52607 5.24552 8.60701 5.30654C9.94295 6.31629 10.7319 7.68683 10.953 9.41948C11.3398 12.4452 9.2925 15.3867 6.48127 15.9105C3.73095 16.4231 1.11415 14.6851 0.268443 11.9494C-0.482554 9.51969 0.380675 6.76616 2.37666 5.31456C2.47053 5.24597 2.50224 5.17737 2.50141 5.05934C2.49556 4.44823 2.49723 3.83713 2.4989 3.22602C2.50433 1.36598 3.9066 -0.069137 5.64641 0.00257437C7.17844 0.0658229 8.46098 1.45818 8.49227 3.09596C8.49853 3.41799 8.49311 3.74047 8.49311 4.06251C8.49394 4.06206 8.49436 4.06206 8.49477 4.06206ZM0.99983 10.1272C0.996075 12.7734 3.015 14.9337 5.49371 14.9355C7.96699 14.9372 9.98508 12.7912 9.99385 10.15C10.0026 7.50331 7.98743 5.34039 5.50748 5.33371C3.02877 5.32703 1.00358 7.4806 0.99983 10.1272ZM7.49511 4.6705C7.49511 4.15248 7.50054 3.65317 7.49386 3.15387C7.48009 2.08354 6.70949 1.19806 5.69147 1.07423C4.72811 0.956644 3.74889 1.66129 3.57157 2.69598C3.46268 3.33292 3.4994 3.99837 3.46894 4.6843C4.83325 4.13288 6.15959 4.13288 7.49511 4.6705Z" fill="#10A39A"/>
<path d="M4.99722 11.1958C4.99722 10.8515 4.99346 10.5072 4.99972 10.1629C5.00181 10.0604 4.97052 10.0088 4.88665 9.95798C4.33676 9.62436 4.10979 8.94466 4.333 8.32376C4.55288 7.71221 5.14617 7.36702 5.75364 7.49797C6.34734 7.6258 6.77458 8.20617 6.74245 8.86494C6.71867 9.34954 6.49879 9.71879 6.10452 9.95932C6.01857 10.0119 5.99396 10.0662 5.99479 10.1664C5.99855 10.8662 5.99938 11.5659 5.99521 12.2657C5.99354 12.5676 5.77492 12.7979 5.50331 12.8015C5.22585 12.8051 5.00514 12.5712 4.99805 12.2621C4.99513 12.1289 4.99722 11.9957 4.99722 11.8621C4.99722 11.6399 4.99722 11.418 4.99722 11.1958ZM5.74529 8.80481C5.74738 8.66049 5.63556 8.538 5.50039 8.53578C5.36479 8.53355 5.25047 8.65247 5.24838 8.79723C5.2463 8.94155 5.3577 9.06448 5.49329 9.06671C5.62805 9.06849 5.74321 8.94912 5.74529 8.80481Z" fill="#10A39A"/>
</svg>
