<svg width="15" height="16" viewBox="0 0 15 16" fill="none" xmlns="http://www.w3.org/2000/svg">
<path d="M7.48805 0C7.59021 0 7.69876 0.0218804 7.77219 0.0593897C7.83923 0.0937732 7.93181 0.159414 7.97651 0.209427C8.02439 0.256313 8.08505 0.343835 8.11378 0.400099C8.15848 0.490746 8.16486 0.781443 8.1489 6.23904L8.06909 6.3547C8.02439 6.42034 7.93181 6.51098 7.86477 6.55787C7.75303 6.63289 7.70834 6.64227 7.49444 6.64227C7.28054 6.64227 7.23585 6.63289 7.12411 6.55787C7.05707 6.51098 6.96448 6.42034 6.83998 6.23904L6.8304 3.36958C6.82401 0.600148 6.82721 0.496998 6.88467 0.381344C6.91979 0.318829 6.98683 0.228181 7.03791 0.184421C7.0858 0.137534 7.1688 0.0781443 7.22308 0.0531381C7.27416 0.0250062 7.39547 0.00312577 7.48486 0L7.48805 0ZM4.80316 1.9161C4.99471 1.92235 5.04899 1.93485 5.16392 2.01612C5.25011 2.07551 5.32993 2.16929 5.37781 2.26618C5.42251 2.35683 5.45443 2.47874 5.45443 2.55376C5.45443 2.62877 5.43209 2.7413 5.40335 2.80382C5.37781 2.86946 5.31716 2.96323 5.26927 3.01012C5.22138 3.06013 5.02345 3.17891 4.8319 3.27268C4.63715 3.36958 4.36579 3.51649 4.22532 3.60089C4.08485 3.68841 3.85499 3.8447 3.71452 3.9541C3.57405 4.06038 3.34419 4.2573 3.20372 4.39484C3.06325 4.53237 2.86213 4.74805 2.75358 4.8762C2.64504 5.00436 2.46945 5.24505 2.35771 5.40759C2.24917 5.57013 2.08316 5.8577 1.98738 6.04837C1.8948 6.23592 1.76071 6.561 1.69048 6.7673C1.62024 6.9736 1.53405 7.28305 1.49893 7.45497C1.46381 7.62688 1.41912 7.92071 1.39677 8.11138C1.37442 8.31455 1.36804 8.63651 1.37761 8.89282C1.38719 9.13351 1.4255 9.49297 1.46062 9.68989C1.49574 9.88682 1.57555 10.215 1.63621 10.4151C1.70006 10.6182 1.81179 10.9214 1.88841 11.0871C1.96503 11.2559 2.1055 11.5278 2.20447 11.6904C2.30025 11.8529 2.47264 12.1061 2.58438 12.253C2.69292 12.3999 2.9164 12.65 3.07283 12.8125C3.23245 12.972 3.47189 13.1908 3.60278 13.3002C3.73368 13.4064 3.9795 13.5815 4.14551 13.6909C4.31152 13.7972 4.55734 13.9378 4.68823 14.0035C4.81913 14.0691 5.05537 14.1754 5.215 14.2379C5.37143 14.3004 5.67472 14.4004 5.88542 14.4567C6.09613 14.513 6.4473 14.5849 6.66758 14.613C6.98364 14.6567 7.19434 14.6661 7.68918 14.6505C8.1904 14.638 8.38834 14.6192 8.71078 14.5505C8.93106 14.5067 9.25989 14.4192 9.44505 14.3598C9.63022 14.3004 9.96543 14.1629 10.1953 14.0503C10.422 13.9409 10.7316 13.7722 10.8817 13.6721C11.0317 13.5752 11.252 13.4127 11.3765 13.3158C11.4978 13.2158 11.7373 12.997 11.9065 12.8282C12.0725 12.6563 12.3023 12.3999 12.4109 12.253C12.5226 12.1061 12.6886 11.8592 12.7812 11.706C12.8738 11.5497 13.0047 11.3122 13.0685 11.1746C13.1324 11.0371 13.2409 10.762 13.308 10.5651C13.375 10.3682 13.4612 10.065 13.4963 9.89307C13.5315 9.72115 13.5761 9.44296 13.5921 9.27417C13.6113 9.1085 13.6272 8.83656 13.6272 8.67402C13.6272 8.51148 13.6113 8.23954 13.5921 8.07074C13.5761 7.90508 13.5315 7.62688 13.4963 7.45497C13.4612 7.28305 13.375 6.9736 13.3048 6.7673C13.2345 6.561 13.1005 6.23592 13.0047 6.04837C12.9121 5.8577 12.7461 5.57013 12.6344 5.40759C12.5258 5.24505 12.3502 5.00436 12.2417 4.8762C12.1363 4.74805 11.932 4.53237 11.7915 4.39484C11.6511 4.2573 11.4212 4.06038 11.2807 3.9541C11.1403 3.84783 10.9232 3.69466 10.8019 3.61964C10.6774 3.5415 10.406 3.39146 10.1953 3.28831C9.98459 3.18516 9.77388 3.06013 9.72599 3.01012C9.67811 2.96323 9.61745 2.86946 9.59191 2.80382C9.56318 2.7413 9.54083 2.62877 9.54083 2.55376C9.54083 2.47874 9.57275 2.35683 9.61745 2.26618C9.66534 2.16929 9.74515 2.07551 9.83135 2.01612C9.94308 1.9411 10.0069 1.91922 10.1761 1.90985C10.3677 1.90047 10.4124 1.91297 10.6582 2.02237C10.8083 2.09114 11.086 2.23493 11.2807 2.34433C11.4723 2.45686 11.8043 2.67254 12.015 2.8257C12.2257 2.98199 12.5705 3.27894 12.7812 3.48524C12.9919 3.69154 13.2952 4.02912 13.4516 4.23542C13.6113 4.44172 13.8315 4.76368 13.9465 4.95435C14.0582 5.1419 14.2115 5.43259 14.2913 5.59513C14.3679 5.75767 14.4892 6.05462 14.5562 6.25154C14.6265 6.44847 14.7191 6.75167 14.7638 6.92359C14.8053 7.0955 14.8563 7.32681 14.8755 7.43934C14.8915 7.55187 14.9298 7.81131 14.9521 8.01761C14.9777 8.22391 15 8.5021 15 8.63338C15 8.76779 14.9777 9.07724 14.9521 9.32105C14.9234 9.56799 14.8659 9.93996 14.8244 10.1494C14.7797 10.3619 14.6808 10.7214 14.6041 10.9465C14.5275 11.1746 14.403 11.4966 14.3296 11.6591C14.253 11.8217 14.1189 12.0811 14.0327 12.2374C13.9433 12.3906 13.79 12.6375 13.6879 12.7844C13.5857 12.9313 13.4101 13.1626 13.2984 13.3002C13.1835 13.4377 12.9153 13.719 12.6982 13.9253C12.4811 14.1316 12.1651 14.4004 11.9991 14.5223C11.833 14.6474 11.5585 14.8287 11.3925 14.9287C11.2265 15.0287 10.9168 15.1881 10.7061 15.2882C10.4954 15.3882 10.157 15.5226 9.95585 15.5914C9.75473 15.6601 9.43867 15.7508 9.2535 15.7945C9.06834 15.8383 8.76824 15.9008 8.58308 15.9289C8.38515 15.9602 7.99247 15.9883 7.62533 15.9977C7.24223 16.004 6.90383 15.9977 6.74739 15.9758C6.60692 15.9539 6.29725 15.9008 6.06101 15.857C5.82476 15.8133 5.41293 15.7101 5.15115 15.6257C4.87659 15.5351 4.46795 15.3725 4.1934 15.2381C3.92842 15.11 3.57086 14.9131 3.39527 14.7974C3.21968 14.6849 2.94513 14.488 2.7887 14.3629C2.62907 14.2379 2.33536 13.9691 2.13424 13.7628C1.92992 13.5596 1.67771 13.2814 1.57236 13.1439C1.467 13.0063 1.32334 12.8094 1.24991 12.7063C1.17968 12.6031 1.05198 12.3906 0.962589 12.2374C0.876392 12.0811 0.742307 11.8217 0.665687 11.6591C0.592259 11.4966 0.467752 11.1746 0.391132 10.9465C0.314512 10.7214 0.215545 10.3619 0.174042 10.1494C0.129347 9.93996 0.0686898 9.55549 0.0399573 9.29917C0.00483983 8.98034 -0.00793015 8.71465 0.00483984 8.47084C0.0144173 8.27392 0.0463423 7.94259 0.0750748 7.73629C0.103807 7.52999 0.167657 7.1924 0.218737 6.9861C0.269817 6.7798 0.368785 6.44534 0.439019 6.24217C0.512447 6.04212 0.636954 5.73892 0.716767 5.57013C0.796579 5.40446 0.959397 5.10439 1.08071 4.90746C1.19883 4.71054 1.39996 4.41359 1.52766 4.25105C1.65536 4.08851 1.86287 3.84157 1.99057 3.70404C2.11827 3.56651 2.3641 3.33207 2.53649 3.18516C2.70889 3.03825 2.96109 2.8382 3.09198 2.74443C3.22288 2.65066 3.48147 2.48499 3.66663 2.37559C3.8518 2.26618 4.12955 2.11615 4.28917 2.04113C4.55415 1.91922 4.59565 1.90985 4.80316 1.9161Z" fill="url(#paint0_linear_987_8838)"/>
<defs>
<linearGradient id="paint0_linear_987_8838" x1="8.35171" y1="0.412487" x2="7.76754" y2="16.01" gradientUnits="userSpaceOnUse">
<stop stop-color="#10A8A0"/>
<stop offset="1" stop-color="#83C24C"/>
</linearGradient>
</defs>
</svg>
