<svg width="20" height="16" viewBox="0 0 20 16" fill="none" xmlns="http://www.w3.org/2000/svg">
<path fill-rule="evenodd" clip-rule="evenodd" d="M13.9986 0H15.0691C16.124 0 16.1357 0 16.2256 0.0859813C16.2855 0.14081 16.3245 0.23053 16.3428 0.35514C16.3545 0.459813 16.4483 1.4243 16.5498 2.50467C16.6475 3.58505 16.7374 4.47477 16.7491 4.48598C16.7569 4.4972 17.0929 4.42243 17.4953 4.3215C17.9876 4.19813 18.2611 4.14579 18.3314 4.16075C18.4056 4.17944 18.4603 4.22804 18.4994 4.31776C18.5502 4.42991 18.558 4.77757 18.558 6.6729C18.558 8.56822 18.5502 8.91589 18.4994 9.02804C18.4603 9.11776 18.4096 9.16636 18.3314 9.18131C18.2728 9.19252 18.1869 9.19252 18.1361 9.18131C18.0853 9.17009 18.0267 9.1028 17.9915 9.02804C17.9407 8.91589 17.9329 8.58692 17.9329 4.78505L17.0421 5.00561C16.5537 5.12897 13.4477 5.89533 10.1385 6.71028C6.82935 7.52523 3.64518 8.30654 3.06696 8.45234C2.48482 8.59439 1.98082 8.7215 1.94175 8.72897C1.87924 8.74766 1.87534 8.91215 1.87534 14.2804L3.2623 14.2617L3.28184 9.98131L3.38733 9.90654C3.49281 9.83178 3.54751 9.82804 5.48927 9.82804C7.43102 9.82804 7.48572 9.83178 7.69669 9.98131L7.71623 14.2617L17.9329 14.2804L17.9524 9.93645L18.0579 9.84673C18.1204 9.79813 18.2025 9.75701 18.2455 9.75701C18.2884 9.75701 18.3705 9.79813 18.5385 9.93645L18.558 14.2804H18.937C19.2261 14.2804 19.3589 14.2991 19.4761 14.3514C19.5621 14.3888 19.6871 14.4785 19.7574 14.5458C19.8239 14.6168 19.9098 14.7477 19.9489 14.8411C19.9958 14.957 20.0075 15.0692 19.9958 15.1963C19.9841 15.2972 19.9489 15.4318 19.9176 15.4953C19.8825 15.5551 19.8043 15.6561 19.7418 15.7196C19.6793 15.7794 19.5465 15.8692 19.2613 16H10.5878L10.4902 15.8878C10.4355 15.8243 10.3925 15.7458 10.3925 15.7084C10.3886 15.6748 10.4237 15.6 10.5488 15.4393L19.23 15.4206L19.3238 15.3159C19.3746 15.2598 19.4175 15.1738 19.4175 15.1215C19.4175 15.0692 19.3746 14.9869 19.2222 14.8411H0.742321L0.664182 14.9421C0.617298 15.0019 0.582136 15.0841 0.586043 15.129C0.586043 15.1776 0.629019 15.2598 0.773576 15.4206L5.23531 15.4393C9.63845 15.4579 9.69705 15.4579 9.75175 15.5327C9.783 15.5738 9.80645 15.6523 9.80645 15.7084C9.80645 15.7682 9.76347 15.8542 9.61501 16H0.742321L0.558694 15.914C0.457113 15.8692 0.324277 15.7794 0.257859 15.7196C0.195348 15.6561 0.113302 15.5402 0.0742321 15.4579C0.0351626 15.3757 0 15.2411 0 15.1589C0 15.0766 0.0273487 14.9346 0.0586043 14.8411C0.0937668 14.7477 0.175813 14.6168 0.246138 14.5458C0.316463 14.4785 0.441485 14.3888 0.527438 14.3514C0.636833 14.3028 0.773576 14.2804 1.28929 14.2804V11.372C1.28539 8.58318 1.28929 8.46355 1.35962 8.37383C1.42213 8.29533 1.55887 8.25047 2.2504 8.0785C2.6997 7.96636 3.07868 7.86542 3.0943 7.85421C3.10603 7.84299 3.149 7.51028 3.18026 7.1215C3.21542 6.72897 3.25449 6.36635 3.2623 6.30654C3.27402 6.25047 3.32091 6.17196 3.36779 6.13084C3.41858 6.08972 3.49281 6.05607 3.53579 6.05234C3.57877 6.05234 3.66081 6.08598 3.71942 6.13084C3.81709 6.19439 3.82881 6.23178 3.82881 6.40374C3.8249 6.50841 3.80146 6.84112 3.77411 7.14019C3.74286 7.43925 3.72332 7.68598 3.72723 7.69346C3.72723 7.6972 4.23123 7.58131 4.84462 7.43551C5.45801 7.28598 5.96982 7.15514 5.98936 7.14393C6.00498 7.13271 5.95029 6.41495 5.72368 3.98131L4.8915 3.97009C4.12574 3.96262 4.06323 3.96635 4.06323 4.02617C4.06323 4.06355 4.03588 4.37009 4.00462 4.71028C3.94602 5.28224 3.9343 5.33458 3.84835 5.40935C3.79365 5.45794 3.71551 5.49533 3.67253 5.49533C3.62956 5.49533 3.55923 5.47664 3.51626 5.45794C3.47328 5.43551 3.41858 5.38692 3.39905 5.34579C3.3717 5.29346 3.39905 4.82991 3.49672 3.78318C3.57486 2.95327 3.65691 2.26168 3.68425 2.21308C3.7116 2.16449 3.79365 2.10841 3.86788 2.08972C3.94993 2.06729 4.40313 2.05607 4.98918 2.06355C5.9581 2.07477 5.97763 2.07477 6.06359 2.16075C6.14954 2.24299 6.16126 2.34393 6.37614 4.60935C6.50117 5.91028 6.60665 6.9757 6.61056 6.98318C6.61837 6.99065 6.98172 6.90467 8.22413 6.59813L8.73203 1.18878L8.82971 1.11776C8.91957 1.04673 8.9938 1.04299 11.0567 1.04673L11.1543 1.14019C11.209 1.19252 11.252 1.25607 11.252 1.2785C11.252 1.30467 11.3419 2.28411 11.4474 3.45794C11.5568 4.62804 11.6544 5.62617 11.6818 5.75701L12.4905 5.5514C12.9398 5.43925 13.311 5.33458 13.3227 5.32336C13.3344 5.31215 13.4555 4.14953 13.5884 2.74019C13.8189 0.4 13.8462 0.171963 13.9205 0.0897196L13.9986 0ZM14.3619 0.740187C14.3502 0.837383 14.3307 1.01308 14.319 1.13271L14.2955 1.34579C15.8036 1.34579 15.8583 1.34206 15.8427 1.28224C15.8349 1.24486 15.8153 1.06916 15.8036 0.88972L15.7802 0.560748H14.3815L14.3619 0.740187ZM9.23994 2.06729L9.2204 2.39626H10.7441C10.7441 2.23551 10.7285 2.05981 10.7129 1.89907L10.6855 1.61121C9.36887 1.61121 9.29854 1.61495 9.28291 1.67477C9.27119 1.71215 9.25557 1.88785 9.23994 2.06729ZM14.2408 2.02991C14.2291 2.0972 14.1588 2.81495 14.0846 3.62991C14.0064 4.44112 13.9478 5.12523 13.9478 5.1514C13.9478 5.18505 14.2916 5.11402 15.0496 4.92336L16.1552 4.65047C16.1396 4.48224 16.0927 3.94393 16.038 3.34953C15.9833 2.7514 15.9325 2.18318 15.9208 2.08598L15.9013 1.91028H14.2604L14.2408 2.02991ZM4.16481 3.03925L4.14137 3.40187H5.66508C5.62992 2.95327 5.61429 2.77757 5.60257 2.7215L5.58694 2.61682C4.52816 2.61682 4.2156 2.63178 4.20388 2.64673C4.19606 2.66168 4.17653 2.83738 4.16481 3.03925ZM8.9938 4.68411C8.90785 5.63364 8.84143 6.41869 8.85315 6.42991C8.86096 6.44112 9.36496 6.32523 9.97444 6.1757C10.58 6.02243 11.0801 5.89907 11.084 5.89533C11.0879 5.89159 11.0293 5.25607 10.959 4.48598C10.8848 3.71589 10.8223 3.05421 10.8223 3.02056C10.8223 2.96075 10.7558 2.95327 9.99007 2.95327H9.15398L8.9938 4.68411ZM3.86788 14.2841H7.11065V10.3963H3.86788V14.2841ZM10.2401 8.26542C10.8809 8.26542 10.9043 8.26542 11.1153 8.44486V9.25234C11.1153 10.0411 11.1114 10.0598 11.0254 10.1421C10.9395 10.2243 10.9121 10.228 10.2401 10.228C9.59547 10.228 9.53296 10.2206 9.45873 10.1533C9.37668 10.0822 9.37277 10.0449 9.36887 8.41869L9.47435 8.34019C9.57594 8.26916 9.63845 8.26542 10.2401 8.26542ZM9.96272 9.68598L10.5292 9.66729V8.84486L9.96663 8.82243L9.96272 9.68598ZM13.1899 8.26542C13.6235 8.26542 13.8619 8.28037 13.9283 8.31028C13.983 8.33645 14.0455 8.4 14.065 8.45234C14.0924 8.50841 14.1002 8.84486 14.0963 9.30093C14.0846 10.0299 14.0806 10.0598 13.9947 10.1421C13.9087 10.2243 13.8814 10.228 13.2094 10.228C12.5648 10.228 12.5022 10.2206 12.428 10.1533C12.346 10.0822 12.3421 10.0449 12.3381 8.41869L12.4436 8.34392C12.5452 8.2729 12.6038 8.26542 13.1899 8.26542ZM12.932 9.68598L13.4985 9.66729L13.5141 8.82617H12.932V9.68598ZM16.1591 8.26542C16.5928 8.26542 16.8311 8.28037 16.8976 8.31028C16.9484 8.33645 17.0109 8.39626 17.0343 8.44112C17.0538 8.48972 17.0734 8.85234 17.0734 9.27477C17.0734 10.0112 17.0695 10.0224 16.8858 10.228H15.4637L15.3856 10.1346C15.3192 10.0486 15.3113 9.97757 15.3074 8.41869L15.4129 8.34392C15.5145 8.2729 15.5731 8.26542 16.1591 8.26542ZM15.9013 9.68598L16.4678 9.66729L16.4834 8.82617H15.9013V9.68598ZM10.2362 11.1439C10.8848 11.1439 10.9434 11.1477 11.0176 11.2187C11.0606 11.2598 11.1036 11.3458 11.1192 11.4131C11.1309 11.4804 11.1348 11.8542 11.127 12.2393C11.1153 12.9421 11.1153 12.9458 11.0176 13.0168C10.9277 13.0841 10.8574 13.0916 10.2245 13.0879C9.58375 13.0879 9.52514 13.0804 9.45482 13.0131C9.38059 12.9421 9.37668 12.8897 9.37668 12.1159C9.37668 11.3421 9.38059 11.2897 9.45482 11.2187C9.52514 11.1477 9.58375 11.1439 10.2362 11.1439ZM9.96272 12.5271H10.5488V11.7047H9.96272V12.5271ZM13.1938 11.1402C13.8267 11.1402 13.897 11.1477 14.0846 11.286V12.9458L13.9869 13.0168C13.897 13.0841 13.8267 13.0916 13.1938 13.0879C12.553 13.0879 12.4944 13.0804 12.4241 13.0131C12.3499 12.9421 12.346 12.8897 12.346 12.1159C12.346 11.3421 12.3499 11.2897 12.4241 11.2187C12.4944 11.1477 12.553 11.1439 13.1938 11.1402ZM12.932 12.5271H13.518V11.7047H12.932V12.5271ZM16.1631 11.1402C16.796 11.1402 16.8663 11.1477 17.0538 11.286V12.1084C17.0538 12.8785 17.0499 12.9346 16.9757 13.0093C16.9015 13.0841 16.8624 13.0879 16.1826 13.0879C15.5223 13.0879 15.4637 13.0804 15.3934 13.0131C15.3192 12.9421 15.3152 12.8897 15.3152 12.1159C15.3152 11.3421 15.3192 11.2897 15.3934 11.2187C15.4637 11.1477 15.5223 11.1439 16.1631 11.1402ZM15.9013 12.5271H16.4873V11.7047H15.9013V12.5271Z" fill="#83C24C"/>
</svg>
