<svg width="17" height="17" viewBox="0 0 17 17" fill="none" xmlns="http://www.w3.org/2000/svg">
<path fill-rule="evenodd" clip-rule="evenodd" d="M8.5 0C8.66681 0 8.71294 0.0141667 8.83361 0.113333C8.91169 0.177083 8.99332 0.283333 9.02171 0.343542C9.0501 0.414375 9.06785 0.598542 9.06785 1.15104L9.31628 1.17583C9.45115 1.19354 9.73507 1.23604 9.94802 1.27854C10.1574 1.3175 10.5443 1.42375 10.8069 1.50875C11.0695 1.59375 11.4954 1.76729 11.7474 1.89125C11.9994 2.01875 12.3543 2.21354 12.5282 2.33042C12.7021 2.44375 12.9683 2.635 13.1138 2.75187C13.2593 2.86875 13.5219 3.10958 13.6958 3.27958C13.8697 3.45312 14.104 3.70812 14.214 3.84271C14.3276 3.97729 14.5263 4.25 14.6576 4.44479C14.7854 4.63958 14.9948 5.00437 15.119 5.25937C15.2432 5.51437 15.3958 5.865 15.4562 6.03854C15.5165 6.21208 15.6159 6.54854 15.6727 6.78229C15.7294 7.01604 15.7969 7.37021 15.8643 7.92979L16.2618 7.94042C16.599 7.95104 16.6735 7.96167 16.7587 8.02542C16.8119 8.06792 16.89 8.14583 16.929 8.19542C16.9823 8.26625 17 8.34771 17 8.5C17 8.65229 16.9823 8.73375 16.929 8.80458C16.89 8.85417 16.8119 8.93208 16.7587 8.97458C16.6735 9.03833 16.599 9.04896 15.8643 9.07021L15.8217 9.43146C15.7969 9.62979 15.7294 9.98396 15.6727 10.2177C15.6159 10.4515 15.5165 10.7879 15.4562 10.9615C15.3958 11.135 15.2432 11.4892 15.119 11.7406C14.9948 11.9921 14.7854 12.3604 14.6576 12.5552C14.5263 12.75 14.3276 13.0192 14.214 13.1573C14.104 13.2954 13.8768 13.5398 13.7136 13.7027C13.5503 13.8656 13.3054 14.0923 13.167 14.2021C13.0286 14.3154 12.7589 14.5137 12.5637 14.6448C12.3685 14.7758 11.9994 14.9848 11.7474 15.1052C11.4954 15.2292 11.1405 15.3815 10.9666 15.4417C10.7927 15.5019 10.4555 15.601 10.2213 15.6577C9.98706 15.7144 9.63215 15.7817 9.06785 15.849V16.196C9.06785 16.4015 9.0501 16.5856 9.02171 16.6565C8.99332 16.7167 8.91169 16.8229 8.83361 16.8867C8.71294 16.9858 8.66681 17 8.5 17C8.33319 17 8.28706 16.9858 8.16639 16.8867C8.08831 16.8229 8.00668 16.7167 7.97829 16.6565C7.9499 16.5856 7.93215 16.4015 7.93215 15.849L7.57015 15.8065C7.36785 15.7817 7.01294 15.7144 6.77871 15.6577C6.54447 15.601 6.20731 15.5019 6.0334 15.4417C5.8595 15.3815 5.50814 15.2292 5.25261 15.1052C4.99708 14.9812 4.63152 14.7723 4.43633 14.6448C4.24113 14.5137 3.96785 14.3154 3.83299 14.2021C3.69812 14.0923 3.44969 13.8656 3.28643 13.7027C3.12317 13.5398 2.89603 13.2954 2.78601 13.1573C2.67244 13.0192 2.4737 12.75 2.34238 12.5552C2.21461 12.3604 2.00522 11.9921 1.881 11.7406C1.75324 11.4892 1.58643 11.0819 1.5048 10.8375C1.42317 10.5931 1.32025 10.2106 1.27411 9.9875C1.22798 9.76437 1.17829 9.46688 1.1357 9.07021L0.738205 9.05958C0.408142 9.0525 0.326514 9.03833 0.244885 8.97812C0.195198 8.93917 0.117119 8.86125 0.0745303 8.80813C0.0177453 8.73021 0 8.65583 0 8.5C0 8.34417 0.0177453 8.26979 0.0745303 8.19188C0.117119 8.13875 0.195198 8.06083 0.244885 8.02187C0.326514 7.96167 0.408142 7.9475 1.1357 7.92979L1.16409 7.67479C1.17829 7.53312 1.22798 7.23562 1.27411 7.0125C1.32025 6.78937 1.42317 6.40687 1.5048 6.1625C1.58643 5.91812 1.75324 5.51437 1.881 5.25937C2.00522 5.00437 2.21461 4.63958 2.34238 4.44479C2.4737 4.25 2.67954 3.97021 2.80021 3.825C2.91733 3.67979 3.14447 3.43542 3.30063 3.28312C3.45679 3.12729 3.69812 2.90771 3.83299 2.79792C3.96785 2.68458 4.24113 2.48625 4.43633 2.35521C4.63152 2.22771 4.99708 2.01875 5.25261 1.89479C5.50814 1.76729 5.91273 1.60083 6.15762 1.51938C6.40251 1.43792 6.7858 1.33521 7.00939 1.28917C7.23299 1.24313 7.53466 1.19354 7.93215 1.15104V0.803958C7.93215 0.598542 7.9499 0.414375 7.97829 0.343542C8.00668 0.283333 8.08831 0.177083 8.16639 0.113333C8.28706 0.0141667 8.33319 0 8.5 0ZM7.20459 2.40833C7.00939 2.44729 6.68288 2.53937 6.47704 2.60667C6.27119 2.67396 5.94468 2.81208 5.74948 2.91125C5.55428 3.00687 5.25971 3.17687 5.0929 3.28312C4.9261 3.39292 4.67766 3.57354 4.5428 3.68333C4.40793 3.79312 4.14175 4.04458 3.9572 4.23937C3.77265 4.43062 3.50647 4.75646 3.36806 4.96188C3.2261 5.16375 3.0238 5.50375 2.91733 5.71979C2.80731 5.93583 2.6618 6.27583 2.59436 6.48125C2.52338 6.68667 2.4382 7.00542 2.39916 7.18958C2.36013 7.37375 2.30689 7.6925 2.2856 7.89792C2.26075 8.11396 2.25365 8.46812 2.2643 8.74792C2.2785 9.01 2.31754 9.40667 2.36013 9.62625C2.39916 9.84229 2.49144 10.2106 2.56952 10.4373C2.64405 10.6675 2.79666 11.0394 2.91023 11.2625C3.02025 11.4856 3.19415 11.7902 3.28998 11.9354C3.38935 12.0806 3.54551 12.2967 3.63779 12.4135C3.73006 12.5304 3.98914 12.7996 4.20919 13.0121C4.45407 13.2458 4.76994 13.5008 5.00418 13.6567C5.22067 13.7983 5.56138 13.9967 5.76722 14.0958C5.97307 14.1985 6.29958 14.3367 6.49478 14.4004C6.68998 14.4642 6.9952 14.5492 7.1691 14.5881C7.34301 14.6271 7.66242 14.6767 7.87891 14.7015C8.1096 14.7263 8.46451 14.7333 8.74843 14.7227C9.01106 14.7085 9.35532 14.6767 9.51148 14.6483C9.66764 14.62 9.92317 14.5669 10.0793 14.5244C10.2355 14.4854 10.491 14.4075 10.6472 14.3508C10.8033 14.2942 11.0979 14.1631 11.3038 14.0604C11.5096 13.9577 11.7971 13.7948 11.9426 13.6956C12.0881 13.6 12.3188 13.43 12.4537 13.3202C12.5885 13.2104 12.8511 12.9625 13.0392 12.7642C13.2273 12.5694 13.4935 12.2435 13.6319 12.0381C13.7704 11.8362 13.962 11.5175 14.0543 11.3333C14.1466 11.1492 14.2743 10.8623 14.3418 10.6958C14.4056 10.5294 14.4908 10.2602 14.5334 10.0937C14.576 9.92729 14.6328 9.66521 14.6612 9.50937C14.6896 9.35354 14.7215 9.01 14.7357 8.74792C14.7463 8.46458 14.7392 8.11042 14.7144 7.88021C14.6896 7.66417 14.6399 7.34542 14.6008 7.17187C14.5618 6.99833 14.4731 6.68667 14.4056 6.48125C14.3347 6.27583 14.1927 5.93583 14.0827 5.71979C13.9762 5.50375 13.8058 5.20979 13.71 5.06458C13.6106 4.91937 13.4722 4.72812 13.4048 4.63958C13.3338 4.55104 13.1315 4.33146 12.9576 4.15083C12.7802 3.96667 12.5388 3.74354 12.4217 3.64792C12.3046 3.55583 12.081 3.39646 11.9248 3.29021C11.7687 3.1875 11.467 3.0175 11.2505 2.91125C11.034 2.805 10.6756 2.65625 10.452 2.58542C10.2284 2.51104 9.91608 2.42604 9.75992 2.39417C9.60376 2.36229 9.33048 2.32333 9.15658 2.30208C8.98267 2.28437 8.66326 2.27021 8.44676 2.27021C8.23027 2.27375 7.9428 2.28792 7.80793 2.30562C7.67307 2.31979 7.39979 2.36583 7.20459 2.40833ZM8.60647 5.68437C8.81232 5.69146 9.06785 5.71979 9.17432 5.74813C9.28079 5.78 9.45825 5.83667 9.56472 5.87562C9.67119 5.91458 9.88413 6.02792 10.0332 6.12708C10.1858 6.22271 10.3987 6.39271 10.5052 6.49896C10.6117 6.60521 10.782 6.81771 10.8779 6.96646C10.9772 7.11875 11.0908 7.33125 11.1299 7.4375C11.1689 7.54375 11.2257 7.72083 11.2541 7.82708C11.2825 7.93333 11.3144 8.14937 11.3286 8.30521C11.3392 8.46812 11.3322 8.71604 11.3038 8.88958C11.2825 9.05604 11.2115 9.32521 11.1511 9.49167C11.0908 9.65812 10.963 9.90958 10.8708 10.0477C10.7785 10.1894 10.6117 10.3948 10.5052 10.501C10.3987 10.6073 10.1858 10.7773 10.0332 10.8729C9.88413 10.9721 9.67119 11.0854 9.56472 11.1244C9.45825 11.1633 9.28079 11.22 9.17432 11.2483C9.06785 11.2767 8.83361 11.3121 8.65971 11.3227C8.47516 11.3333 8.23737 11.3263 8.09186 11.3015C7.95699 11.2802 7.72276 11.22 7.57724 11.174C7.43173 11.1244 7.1833 11.0075 7.02714 10.9119C6.87098 10.8163 6.64029 10.6356 6.51608 10.5152C6.38831 10.3912 6.21086 10.1681 6.11503 10.0229C6.01921 9.87771 5.90919 9.66875 5.87015 9.5625C5.83111 9.45625 5.77077 9.27208 5.73883 9.15521C5.69979 9.01 5.6785 8.80104 5.6785 8.5C5.6785 8.19896 5.69979 7.99 5.73883 7.84479C5.77077 7.72792 5.83111 7.54375 5.87015 7.4375C5.90919 7.33125 6.02276 7.11875 6.12213 6.96646C6.21795 6.81771 6.38831 6.60521 6.49478 6.49896C6.60125 6.39271 6.8071 6.22979 6.94906 6.13417C7.08747 6.04208 7.32526 5.92167 7.47077 5.865C7.61628 5.81188 7.85052 5.74458 7.98539 5.71625C8.138 5.68792 8.37578 5.67375 8.60647 5.68437ZM7.66952 7.02313C7.55595 7.08688 7.3785 7.225 7.27557 7.33125C7.1762 7.4375 7.04843 7.61104 6.99875 7.71375C6.94551 7.81292 6.87808 7.99 6.84969 8.10333C6.82129 8.21313 6.79645 8.39375 6.79645 8.5C6.79645 8.60625 6.82129 8.79042 6.85324 8.90729C6.88163 9.02417 6.95971 9.21187 7.02004 9.32875C7.08393 9.44208 7.22234 9.61917 7.32881 9.72187C7.43528 9.82104 7.60919 9.94854 7.71211 9.99812C7.81148 10.0512 7.98894 10.1185 8.09896 10.1469C8.21253 10.1752 8.39353 10.2 8.5 10.2C8.60647 10.2 8.79102 10.1752 8.90814 10.1433C9.02526 10.115 9.21336 10.0371 9.33048 9.97688C9.44405 9.91313 9.6215 9.775 9.72443 9.66875C9.8238 9.5625 9.95157 9.38896 10.0013 9.28979C10.0545 9.18708 10.1219 9.01 10.1503 8.90021C10.1787 8.78687 10.2035 8.60625 10.2035 8.5C10.2035 8.39375 10.1787 8.21313 10.1503 8.10333C10.1219 7.99 10.0545 7.81292 10.0013 7.71375C9.95157 7.61104 9.8238 7.4375 9.72443 7.33125C9.6215 7.225 9.44405 7.08688 9.33048 7.02313C9.21336 6.96292 9.02526 6.885 8.90814 6.85667C8.79102 6.82479 8.59937 6.8 8.48225 6.80354C8.36514 6.80354 8.18058 6.82833 8.07411 6.85667C7.96764 6.885 7.78664 6.96292 7.66952 7.02313Z" fill="url(#paint0_linear_29_100)"/>
<defs>
<linearGradient id="paint0_linear_29_100" x1="9.46527" y1="0.438267" x2="8.88329" y2="17.0135" gradientUnits="userSpaceOnUse">
<stop stop-color="#10A8A0"/>
<stop offset="1" stop-color="#83C24C"/>
</linearGradient>
</defs>
</svg>
