<svg width="284" height="272" viewBox="0 0 284 272" fill="none" xmlns="http://www.w3.org/2000/svg">
<path d="M84.2238 123.62C86.1181 126.316 84.5152 129.813 82.6209 131.78C80.2895 134.184 77.8852 133.82 76.8652 136.006C75.5537 138.556 78.3223 140.523 76.8652 143.219C75.9909 144.894 74.7523 144.457 72.9309 146.57C70.818 149.193 72.9308 149.921 71.4008 151.816C66.4465 157.863 64.4793 153.637 61.4922 155.24C57.6307 157.353 55.0078 159.102 53.1135 158.664C45.6092 157.062 47.9406 152.18 44.2978 150.286C39.4163 147.663 37.012 137.244 40.3634 133.528C42.112 131.561 43.8606 131.343 44.0791 129.74C44.2977 127.408 40.8005 126.753 40.4363 123.984C39.9991 120.778 44.2249 119.248 43.5692 116.553C42.9863 113.93 38.6877 114.075 38.3962 112.181C37.9591 109.34 47.2121 104.313 56.7564 104.604C61.2736 104.75 68.7051 106.207 69.9437 110.068C70.6722 112.254 68.778 113.638 69.8708 116.48C70.5994 118.52 72.2752 119.686 74.5337 121.216C76.6466 122.6 80.7995 118.811 84.2238 123.62Z" fill="#EEEEEE"/>
<path d="M61.4194 121.871C62.8766 121.799 63.678 131.853 62.8037 133.164C61.9294 134.476 60.2537 135.423 60.1809 136.88C60.0351 138.264 60.6908 163.692 61.2008 163.327C61.7837 162.963 66.1552 156.26 65.2809 154.73C64.4066 153.2 63.3866 150.796 63.6052 148.756C63.8238 146.716 63.8237 143.874 64.4066 143.947C64.9895 144.02 64.4794 148.975 64.8437 149.922C65.2809 150.869 65.3537 151.67 65.9366 151.67C66.4466 151.67 66.5195 146.424 67.3209 146.497C68.1952 146.57 67.6123 154.366 67.3209 155.75C67.0295 157.207 66.0095 162.162 65.0623 163.983C64.1152 165.805 61.2737 167.699 61.2008 168.355C61.1523 168.743 61.298 173.868 61.638 183.728L54.1337 183.873C55.9794 164.445 56.708 154.415 56.3194 153.783C55.6637 152.763 51.8022 144.894 50.9279 144.093C50.1265 143.292 49.6165 138.41 50.0536 138.337C50.4907 138.264 50.7093 143.073 51.6565 143.146C52.5308 143.219 53.0408 133.893 53.6965 133.966C54.3522 134.039 53.0408 143.656 53.4051 144.239C53.7694 144.822 55.8822 148.392 56.538 148.319C57.2665 148.246 56.1737 122.09 56.7565 121.799C57.3394 121.507 57.8494 121.726 58.2137 124.494C58.578 127.19 59.2337 133.164 59.6708 133.164C60.108 133.164 61.128 132.29 61.128 131.634C61.128 131.051 60.6909 121.944 61.4194 121.871Z" fill="#BDBDBD"/>
<path d="M228.628 150.213C229.866 149.338 230.813 148.683 231.251 147.517C231.833 145.914 230.813 145.113 231.251 143.874C231.906 141.761 236.132 140.887 238.682 140.814C244.074 140.668 249.319 143.51 249.101 145.113C248.955 146.205 246.478 146.133 246.114 147.59C245.749 149.12 248.154 149.994 247.935 151.743C247.716 153.346 245.749 153.71 245.895 155.094C245.968 155.968 246.988 156.114 247.935 157.207C249.902 159.32 248.518 165.221 245.749 166.679C243.709 167.771 244.948 170.54 240.722 171.414C239.702 171.706 238.172 170.686 235.986 169.52C234.311 168.573 233.218 170.977 230.376 167.553C229.502 166.46 230.741 166.096 229.502 164.638C228.482 163.4 227.826 163.618 227.316 162.671C226.515 161.141 228.045 160.048 227.316 158.591C226.733 157.353 225.349 157.571 224.038 156.187C222.945 155.094 222.071 153.127 223.163 151.597C225.058 148.828 227.389 151.014 228.628 150.213Z" fill="#EEEEEE"/>
<path d="M236.205 156.114C236.205 156.478 236.788 156.988 237.006 156.988C237.298 156.988 237.662 153.637 237.88 152.107C238.099 150.504 238.318 150.358 238.682 150.577C239.046 150.723 238.39 165.513 238.828 165.586C239.192 165.586 240.358 163.618 240.576 163.254C240.795 162.89 240.066 157.498 240.43 157.425C240.795 157.353 241.086 162.671 241.596 162.598C242.106 162.598 242.252 159.903 242.47 159.903C242.762 159.975 242.47 162.744 241.96 163.181C241.523 163.618 239.338 168.136 238.973 168.646C238.73 169.034 239.119 174.717 240.139 185.694L235.913 185.621C236.108 180.036 236.18 177.121 236.132 176.879C236.132 176.587 234.529 175.494 233.946 174.474C233.436 173.381 232.853 170.613 232.707 169.811C232.562 169.01 232.197 164.566 232.707 164.566C233.145 164.493 233.217 167.48 233.509 167.48C233.8 167.48 233.873 167.043 234.092 166.46C234.31 165.95 234.019 163.108 234.383 163.108C234.675 163.036 234.675 164.711 234.82 165.804C234.893 166.97 234.383 168.354 233.873 169.228C233.363 170.103 235.84 173.818 236.132 174.037C236.423 174.256 236.787 159.903 236.787 159.101C236.715 158.3 235.767 157.717 235.257 156.988C234.747 156.26 235.185 150.577 236.059 150.577C236.423 150.65 236.205 155.823 236.205 156.114Z" fill="#BDBDBD"/>
<path d="M142 271.958C220.424 271.958 284 249.45 284 221.686C284 193.922 220.424 171.414 142 171.414C63.5755 171.414 0 193.922 0 221.686C0 249.45 63.5755 271.958 142 271.958Z" fill="url(#paint0_linear_987_7682)"/>
<path d="M150.816 167.699C151.034 168.063 150.889 170.905 150.816 171.123C150.743 171.342 149.942 172.216 148.994 172.289C148.12 172.362 145.862 171.925 145.789 171.706C145.716 171.488 145.789 169.593 145.789 169.083C145.789 168.573 146.153 167.772 146.444 167.116C149.262 167.262 150.719 167.456 150.816 167.699Z" fill="#F2DAD4"/>
<path d="M139.523 167.554C140.033 167.626 140.543 168.428 140.689 168.792C140.761 169.229 140.397 169.958 140.397 170.322C140.397 170.759 140.397 171.779 140.251 172.144C140.033 172.508 135.661 172.581 135.661 171.925C135.661 171.342 135.224 170.686 135.151 170.395C135.079 170.031 135.079 168.719 135.224 168.136C137.799 167.651 139.231 167.456 139.523 167.554Z" fill="#F2DAD4"/>
<path d="M155.552 104.241C156.645 105.552 157.009 111.162 157.009 112.984C157.009 114.878 156.135 122.674 155.916 124.568C155.625 126.462 154.532 133.53 154.678 135.861C154.75 138.265 155.479 147.737 155.333 150.214C155.187 152.691 152.492 162.964 152.2 163.984C151.909 164.931 152.273 166.971 152.055 167.481C151.763 168.064 150.015 168.501 148.922 168.501C147.829 168.501 146.226 167.773 145.935 167.408C145.643 167.044 145.716 152.545 145.935 150.651C146.226 148.83 146.809 143.802 146.372 143.001C145.935 142.127 144.259 127.919 143.967 125.734C143.603 123.548 141.417 116.772 141.053 116.845C140.616 116.845 139.742 122.455 139.377 123.621C139.013 124.787 138.43 133.457 138.285 135.861C138.212 138.265 136.973 142.418 137.046 143.584C137.119 144.75 138.503 153.493 138.722 155.605C138.94 157.718 140.324 166.388 140.252 167.19C140.252 167.918 139.669 168.428 137.774 168.793C135.88 169.157 134.86 168.574 134.204 168.428C133.549 168.283 132.31 161.58 131.509 158.52C130.634 155.533 128.886 147.227 128.886 142.127C128.886 137.027 127.283 125.515 126.7 121.289C126.117 117.064 126.919 106.718 127.866 103.439C145.595 103.148 154.823 103.415 155.552 104.241Z" fill="#505050"/>
<path d="M171.435 72.7657C171.872 72.4743 172.6 71.8914 172.746 71.5271C172.819 71.09 173.329 70.07 173.839 69.7785C174.349 69.56 175.369 69.1957 175.879 69.0499C176.389 68.9042 177.628 68.1756 177.846 68.1028C178.065 67.9571 178.793 67.8842 178.939 68.2485C179.158 68.6128 178.866 69.4142 178.356 69.5599C177.846 69.7785 176.68 70.1428 176.753 70.4342C176.899 70.7257 178.065 71.0171 178.939 70.5071C179.886 70.07 181.416 69.7057 181.78 69.4871C182.145 69.2685 184.841 68.1756 185.132 68.1756C185.423 68.1756 185.715 68.3214 185.861 68.5399C185.933 68.8314 186.735 68.1756 187.026 68.6128C187.245 69.0499 186.662 69.2685 186.662 69.4142C186.589 69.56 186.953 69.7057 186.953 69.9971C186.953 70.3614 186.516 70.5071 185.788 70.8714C184.986 71.1628 181.562 73.3485 181.052 73.64C180.469 73.9314 179.376 74.5143 177.992 74.66C176.608 74.7328 174.932 74.8057 174.568 75.3157C174.13 75.8257 173.183 77.1371 172.965 77.21C172.746 77.3557 171.143 77.5743 170.779 76.6272C170.536 75.9957 170.755 74.7086 171.435 72.7657Z" fill="#F2DAD4"/>
<path d="M112.565 73.5671C112.201 74.4414 110.598 74.2229 110.38 74.15C110.161 74.0771 109.87 73.4214 109.433 72.9114C109.068 72.4014 107.392 72.4014 106.008 72.2557C104.624 72.11 103.531 71.5271 102.948 71.2357C102.438 70.9443 99.0139 68.8314 98.2124 68.4671C97.4839 68.1028 97.0467 67.9571 97.0467 67.5928C97.0467 67.3014 97.411 67.1556 97.3381 67.0099C97.3381 66.8642 96.7553 66.6456 96.9738 66.2085C97.2653 65.7714 98.0667 66.4271 98.1396 66.1356C98.2853 65.9171 98.5767 65.7713 98.8681 65.7713C99.1596 65.7713 101.855 66.8642 102.22 67.0828C102.584 67.3014 104.114 67.6656 105.061 68.1756C105.935 68.6128 107.101 68.3214 107.247 68.0299C107.32 67.8114 106.154 67.3742 105.644 67.2285C105.134 67.0099 104.842 66.2085 105.061 65.8442C105.207 65.4799 105.935 65.5528 106.154 65.6985C106.372 65.7713 107.611 66.4999 108.121 66.6456C108.631 66.8642 109.651 67.1556 110.161 67.3742C110.671 67.6656 111.181 68.7585 111.254 69.1228C111.4 69.4871 112.128 70.0699 112.565 70.3614C112.808 71.8671 112.808 72.9357 112.565 73.5671Z" fill="#F2DAD4"/>
<path d="M147.974 55.3525C149.14 55.3525 155.697 57.684 157.154 58.4854C158.538 59.214 160.214 67.7384 160.506 69.0498C160.724 70.2884 164.076 76.627 164.294 76.9913C164.513 77.3556 166.261 76.3356 167.354 75.7527C168.447 75.097 171.07 72.7656 171.434 72.6198C171.871 72.4013 171.726 73.567 171.726 74.5142C171.726 75.3884 173.037 76.627 173.401 76.7728C173.766 76.9913 172.454 78.2299 171.726 79.4685C171.07 80.7071 164.731 87.1914 161.598 87.3371C158.538 87.5557 155.406 78.667 154.896 78.7399C154.458 78.8128 155.114 90.3243 155.114 93.6029C155.114 96.8086 157.737 104.896 157.518 106.353C157.3 107.81 145.861 109.923 140.178 109.704C134.568 109.559 127.282 107.082 126.627 106.28C125.898 105.406 128.448 95.8615 129.031 93.6757C129.614 91.4172 130.342 81.0714 129.978 81.0714C129.687 81.0714 125.242 87.5557 123.931 87.6286C122.62 87.7014 117.447 83.4757 116.208 81.8728C115.042 80.1971 110.379 74.6599 110.234 74.1499C110.015 73.6399 110.744 73.9313 111.764 72.8384C112.784 71.8184 112.347 70.2884 112.565 70.2884C112.711 70.2884 121.235 76.8456 121.745 76.8456C122.255 76.8456 123.494 72.547 124.077 70.7255C124.66 68.9041 125.825 62.4197 127.137 59.724C128.448 57.0283 135.807 56.0811 137.701 55.8626C143.821 55.5225 147.245 55.3525 147.974 55.3525Z" fill="#10A8A0"/>
<path d="M146.59 52.9487C146.663 53.0216 146.954 55.1344 146.808 55.7901C146.736 56.373 143.311 61.8373 141.344 61.6916C139.377 61.5459 137.337 56.1544 137.701 55.863C138.066 55.6444 137.628 54.4058 137.628 53.5315C143.554 53.0944 146.541 52.9001 146.59 52.9487Z" fill="url(#paint1_linear_987_7682)"/>
<path d="M134.933 46.2455C134.641 43.9141 133.84 41.6555 134.35 39.3969C134.86 37.0654 136.536 34.2968 139.96 33.9325C143.312 33.5682 144.987 34.8797 146.663 37.0654C148.339 39.1783 148.12 46.0269 147.683 46.4641C147.173 46.9741 144.332 48.2855 141.053 48.3584C138.916 48.407 136.876 47.7027 134.933 46.2455Z" fill="#505050"/>
<path d="M135.588 49.9611C135.37 49.9611 134.641 49.2325 134.423 47.994C134.277 46.6825 134.35 44.7882 134.787 44.7882C135.151 44.7882 135.734 46.6825 136.171 46.6825C136.463 46.6339 136.414 45.8325 136.026 44.2782C138.94 43.8411 141.198 40.9268 141.636 40.9268C142.146 40.9268 145.643 41.5825 146.153 42.2382C146.663 42.8939 146.736 45.8082 147.027 45.8082C147.319 45.8082 147.61 43.8411 148.12 43.8411C148.63 43.8411 148.703 46.0268 148.557 47.4111C148.339 48.7954 147.464 48.7225 147.319 48.6497C147.246 48.6497 147.391 51.1997 147.173 52.5111C147.027 53.8226 143.676 56.154 142.073 56.2269C140.47 56.2998 137.92 54.2597 137.41 53.8226C137.118 53.5797 136.754 52.2197 136.317 49.7426C136.026 49.5968 135.88 49.9611 135.588 49.9611Z" fill="#F2DAD4"/>
<path d="M151.107 171.998C151.471 172.581 151.471 174.111 152.2 175.568C153.001 177.025 153.657 178.264 153.657 179.284C153.657 180.377 152.637 182.053 151.107 182.271C149.577 182.563 147.901 182.635 147.1 182.198C146.371 181.834 145.424 181.105 145.424 180.013C145.424 178.92 145.643 176.734 145.424 176.37C145.278 176.005 145.06 174.912 145.06 174.33C145.06 173.82 144.987 172.144 145.278 171.78C145.57 171.342 146.808 170.541 148.047 170.541C149.286 170.614 150.743 171.488 151.107 171.998Z" fill="#505050"/>
<path d="M138.138 170.541C139.377 170.541 140.615 171.342 140.98 171.78C141.271 172.144 141.125 173.82 141.125 174.33C141.125 174.912 140.98 176.005 140.761 176.37C140.615 176.734 140.761 178.92 140.761 180.013C140.761 181.105 139.887 181.834 139.085 182.198C138.357 182.635 136.608 182.563 135.151 182.271C133.621 182.053 132.528 180.377 132.601 179.284C132.601 178.264 133.184 177.025 133.985 175.568C134.787 174.111 134.714 172.581 135.151 171.998C135.443 171.488 136.9 170.614 138.138 170.541Z" fill="#505050"/>
<path d="M102.729 68.1753L54.5703 49.4509C50.7088 47.9937 48.7417 43.6223 50.2717 39.7608L63.8961 4.78904C65.3533 0.927578 69.7247 -0.96672 73.5862 0.490436L121.745 19.2149C125.607 20.7449 127.501 25.1164 126.044 28.9778L112.419 63.9496C110.889 67.8111 106.591 69.7054 102.729 68.1753Z" fill="#EEEEEE"/>
<g opacity="0.5">
<path d="M72.3314 26.9791L72.191 27.3804C71.9262 28.1377 71.5818 28.7806 71.1577 29.3092C70.7398 29.8348 70.2636 30.2434 69.7291 30.5348C69.1962 30.8218 68.6271 30.9866 68.0218 31.0294C67.4181 31.0676 66.7988 30.9758 66.1639 30.7538C65.5246 30.5302 64.9785 30.2145 64.5256 29.8068C64.0789 29.3961 63.7343 28.9117 63.4918 28.3536C63.2554 27.7926 63.1353 27.1755 63.1315 26.5024C63.1338 25.8264 63.2674 25.1097 63.5322 24.3524L63.6726 23.9511C63.9374 23.1938 64.2795 22.5501 64.699 22.02C65.1231 21.4914 65.5993 21.0828 66.1277 20.7943C66.6622 20.5029 67.2313 20.338 67.835 20.2998C68.4448 20.2586 69.0694 20.3498 69.7088 20.5734C70.3437 20.7954 70.8844 21.1117 71.3312 21.5224C71.784 21.9301 72.1286 22.4145 72.365 22.9756C72.603 23.5321 72.723 24.1491 72.7253 24.8268C72.7275 25.5044 72.5962 26.2219 72.3314 26.9791ZM69.7695 26.5336L69.9146 26.1187C70.0859 25.629 70.1935 25.1831 70.2374 24.7812C70.2873 24.3763 70.2751 24.0183 70.2007 23.7073C70.1262 23.3962 69.9911 23.1352 69.7951 22.9242C69.6053 22.7102 69.3585 22.5501 69.0547 22.4439C68.7373 22.3329 68.4377 22.3019 68.1559 22.351C67.8757 22.3955 67.6118 22.5169 67.3643 22.7154C67.1168 22.9138 66.8864 23.1869 66.6732 23.5348C66.466 23.8796 66.2768 24.2969 66.1056 24.7867L65.9605 25.2016C65.7908 25.6868 65.6787 26.1311 65.6242 26.5344C65.5758 26.9348 65.5857 27.2919 65.654 27.6059C65.7269 27.9215 65.8582 28.1862 66.048 28.4002C66.2424 28.6158 66.4983 28.779 66.8157 28.89C67.1195 28.9963 67.4123 29.0249 67.6941 28.9758C67.9759 28.9268 68.2413 28.8008 68.4904 28.5978C68.7441 28.3964 68.9767 28.1241 69.1884 27.7808C69.4061 27.4346 69.5999 27.0188 69.7695 26.5336Z" fill="#31333D"/>
<path d="M77.6194 23.4924L74.1561 33.396L71.7687 32.5611L75.232 22.6575L77.6194 23.4924ZM80.0278 28.9607L79.3856 30.7972L74.8555 29.213L75.4978 27.3765L80.0278 28.9607ZM81.857 24.9744L81.2124 26.8177L76.2946 25.0979L76.9393 23.2546L81.857 24.9744Z" fill="#31333D"/>
<path d="M85.2376 26.1565L81.7742 36.0601L79.3868 35.2252L82.8501 25.3216L85.2376 26.1565ZM87.646 31.6248L87.0037 33.4613L82.4737 31.8771L83.1159 30.0406L87.646 31.6248ZM89.4751 27.6385L88.8305 29.4818L83.9127 27.762L84.5574 25.9187L89.4751 27.6385Z" fill="#31333D"/>
<path d="M94.4626 38.4362L93.8204 40.2727L88.5421 38.4269L89.1843 36.5903L94.4626 38.4362ZM92.8557 28.8206L89.3923 38.7242L87.0049 37.8893L90.4682 27.9857L92.8557 28.8206ZM95.2286 34.0628L94.6078 35.8381L90.0097 34.2301L90.6306 32.4548L95.2286 34.0628ZM97.3041 30.3763L96.6595 32.2196L91.3608 30.3666L92.0054 28.5233L97.3041 30.3763Z" fill="#31333D"/>
<path d="M98.2632 30.7117L102.161 32.0747C102.922 32.3411 103.545 32.686 104.028 33.1093C104.511 33.5327 104.827 34.0197 104.975 34.5703C105.128 35.1225 105.09 35.7251 104.862 36.3781C104.664 36.9449 104.41 37.3879 104.099 37.707C103.789 38.026 103.432 38.2547 103.027 38.3931C102.629 38.5286 102.193 38.6027 101.721 38.6155L100.784 38.7841L97.5121 37.64L98.1431 35.7919L100.565 36.6387C100.868 36.745 101.139 36.7786 101.377 36.7395C101.614 36.7004 101.818 36.5986 101.987 36.434C102.163 36.2664 102.3 36.042 102.398 35.7609C102.498 35.4752 102.532 35.2121 102.499 34.9716C102.466 34.731 102.366 34.5207 102.2 34.3405C102.039 34.1619 101.811 34.021 101.516 33.918L100.006 33.3899L97.1873 41.4501L94.7998 40.6152L98.2632 30.7117ZM100.221 42.511L99.5626 37.3647L102.098 38.2359L102.814 43.3034L102.778 43.4054L100.221 42.511Z" fill="#31333D"/>
<path d="M109.909 42.9448C109.963 42.7906 109.989 42.6444 109.986 42.5061C109.985 42.3633 109.943 42.216 109.858 42.0644C109.774 41.9127 109.635 41.742 109.442 41.5523C109.255 41.3597 108.997 41.1371 108.668 40.8847C108.283 40.5873 107.921 40.2774 107.581 39.9549C107.242 39.6278 106.957 39.2864 106.725 38.9305C106.495 38.5701 106.345 38.1919 106.275 37.7958C106.206 37.3952 106.249 36.9728 106.405 36.5284C106.554 36.1021 106.783 35.7522 107.092 35.4788C107.403 35.2007 107.771 35.001 108.195 34.8796C108.625 34.7553 109.094 34.7105 109.601 34.7453C110.109 34.7755 110.638 34.8866 111.187 35.0784C111.912 35.3322 112.507 35.6827 112.972 36.1301C113.442 36.5746 113.753 37.0828 113.904 37.6547C114.061 38.2237 114.031 38.8211 113.812 39.4469L111.438 38.6167C111.525 38.3673 111.55 38.1292 111.512 37.9022C111.479 37.6769 111.379 37.4741 111.213 37.294C111.047 37.1138 110.81 36.9698 110.502 36.8619C110.203 36.7573 109.935 36.7146 109.699 36.7339C109.464 36.7533 109.267 36.8218 109.108 36.9395C108.952 37.0526 108.842 37.1999 108.778 37.3813C108.726 37.5309 108.719 37.6813 108.758 37.8322C108.803 37.9803 108.884 38.1334 109.002 38.2916C109.124 38.4514 109.28 38.6178 109.469 38.7907C109.662 38.9652 109.884 39.147 110.133 39.336C110.6 39.6877 111.002 40.0392 111.337 40.3905C111.678 40.7389 111.943 41.0937 112.132 41.4551C112.328 41.8134 112.44 42.1835 112.469 42.5653C112.503 42.9486 112.447 43.3489 112.301 43.7661C112.146 44.2105 111.922 44.5749 111.629 44.8592C111.336 45.1436 110.987 45.3497 110.581 45.4774C110.176 45.6006 109.728 45.6449 109.236 45.6104C108.745 45.5758 108.222 45.4618 107.669 45.2683C107.161 45.0907 106.682 44.852 106.232 44.5522C105.789 44.2494 105.414 43.8945 105.109 43.4874C104.805 43.0758 104.606 42.6171 104.513 42.1113C104.427 41.6026 104.486 41.0558 104.69 40.4708L107.084 41.3081C106.983 41.5983 106.936 41.8567 106.943 42.0832C106.951 42.3096 107.008 42.5103 107.114 42.685C107.223 42.8553 107.376 43.0056 107.575 43.1362C107.775 43.2622 108.016 43.3743 108.297 43.4726C108.601 43.5789 108.861 43.6214 109.077 43.6003C109.294 43.5746 109.472 43.5043 109.609 43.3893C109.747 43.2698 109.847 43.1216 109.909 42.9448Z" fill="#31333D"/>
</g>
<defs>
<linearGradient id="paint0_linear_987_7682" x1="-1.45716" y1="148.61" x2="-1.45716" y2="227.587" gradientUnits="userSpaceOnUse">
<stop stop-color="#E5E5E5"/>
<stop offset="1" stop-color="white"/>
</linearGradient>
<linearGradient id="paint1_linear_987_7682" x1="146.736" y1="48.3587" x2="149.213" y2="57.0287" gradientUnits="userSpaceOnUse">
<stop stop-color="#F2BFAD"/>
<stop offset="1" stop-color="#F2DAD4"/>
</linearGradient>
</defs>
</svg>
