<svg width="16" height="18" viewBox="0 0 16 18" fill="none" xmlns="http://www.w3.org/2000/svg">
<path fill-rule="evenodd" clip-rule="evenodd" d="M7.98222 0.000371765C8.19556 -0.00314447 8.32356 0.017953 8.49778 0.077729C8.62578 0.12344 8.8 0.20783 8.88889 0.267606C8.97778 0.323866 9.11289 0.443418 9.19111 0.531324C9.26933 0.615714 9.376 0.773944 9.42578 0.879431C9.47911 0.984919 9.536 1.1537 9.56089 1.25215C9.58222 1.35412 9.6 1.63894 9.6 2.33515L9.83822 2.41954C9.97333 2.46526 10.24 2.58129 10.4356 2.67623C10.6311 2.77117 10.9191 2.93643 11.0756 3.0384C11.232 3.14389 11.4809 3.33377 11.6267 3.46035C11.7724 3.59045 12.0036 3.81549 12.1351 3.96317C12.2667 4.11086 12.4622 4.36051 12.5653 4.51522C12.672 4.66994 12.8213 4.92311 12.8996 5.07782C12.9778 5.23254 13.0844 5.46109 13.1342 5.58768C13.1876 5.71426 13.2622 5.93578 13.3013 6.07995C13.344 6.22411 13.4009 6.46322 13.4293 6.60738C13.4684 6.79726 13.4898 7.30712 13.5111 8.47099C13.5324 9.663 13.5538 10.1658 13.5964 10.4401C13.6284 10.644 13.7031 11.0062 13.7636 11.2488C13.824 11.4914 13.9484 11.8853 14.0373 12.1279C14.1262 12.3705 14.3004 12.7643 14.4284 13.0069C14.5529 13.2496 14.7556 13.5977 14.8764 13.7805C14.9973 13.9634 15.2 14.2411 15.3244 14.3959C15.4489 14.5506 15.6267 14.7545 15.7191 14.853C15.808 14.9479 15.9111 15.0815 15.9431 15.1413C15.9751 15.2046 16 15.303 16 15.3628C16 15.4191 15.968 15.5316 15.9289 15.609C15.8815 15.7027 15.8104 15.773 15.7156 15.8199C15.5769 15.8867 15.5022 15.8903 10.6133 15.8903L10.5138 16.1997C10.4569 16.3825 10.3467 16.6111 10.2436 16.7693C10.1476 16.9135 9.96978 17.1315 9.84533 17.251C9.72089 17.3671 9.52889 17.5218 9.42222 17.5886C9.31556 17.6554 9.15556 17.7398 9.06667 17.7785C8.97778 17.8172 8.78222 17.884 8.62933 17.9262C8.43022 17.9789 8.256 18 7.99289 18C7.70844 18 7.55911 17.9789 7.32444 17.9086C7.15733 17.8629 6.92622 17.7714 6.80889 17.7152C6.69156 17.6554 6.52444 17.5534 6.43556 17.4901C6.34667 17.4233 6.18667 17.2792 6.07289 17.1667C5.96267 17.0541 5.81689 16.8748 5.74933 16.7693C5.68178 16.6638 5.58578 16.474 5.53244 16.3474C5.48267 16.2208 5.43289 16.0661 5.40444 15.8903H2.91556C0.497778 15.8903 0.423111 15.8867 0.284444 15.8199C0.188444 15.7707 0.117333 15.7039 0.0675556 15.5984C0.0106667 15.4859 -0.00355556 15.412 0.0106667 15.2925C0.0248889 15.1905 0.0675556 15.0956 0.131556 15.0217C0.184889 14.962 0.366222 14.758 0.526222 14.5646C0.689778 14.3748 0.945778 14.0372 1.09511 13.8157C1.24444 13.5942 1.46489 13.2214 1.58222 12.9894C1.70311 12.7573 1.87378 12.3705 1.96267 12.1279C2.05156 11.8853 2.176 11.4914 2.23644 11.2488C2.29333 11.0062 2.368 10.644 2.40356 10.4401C2.44622 10.1623 2.46756 9.67003 2.48889 8.47099C2.51022 7.31415 2.53156 6.79726 2.57067 6.60738C2.59911 6.46322 2.656 6.22411 2.69867 6.07995C2.73778 5.93578 2.80533 5.72832 2.848 5.62284C2.88711 5.51735 2.99378 5.28528 3.08267 5.11298C3.168 4.93717 3.328 4.66994 3.43467 4.51522C3.53778 4.36051 3.72622 4.11789 3.84711 3.98075C3.97156 3.8401 4.19911 3.61507 4.35556 3.47793C4.512 3.3408 4.768 3.14741 4.92444 3.04192C5.08089 2.93643 5.35111 2.78172 5.52889 2.69381C5.70311 2.60942 5.97333 2.48987 6.4 2.33515V1.88508C6.4 1.63894 6.41778 1.35412 6.43911 1.25567C6.46044 1.1537 6.52089 0.981402 6.57067 0.875915C6.624 0.763396 6.752 0.594616 6.87644 0.471548C6.99733 0.351996 7.15733 0.228927 7.23556 0.190249C7.31378 0.155086 7.44889 0.0988265 7.53778 0.0636641C7.63733 0.0249854 7.80444 0.003888 7.98222 0.000371765ZM7.53067 1.34006C7.48444 1.42445 7.47022 1.54752 7.46667 1.79014V2.12418H8.53333C8.53333 1.544 8.51911 1.44203 8.46222 1.33303C8.41481 1.23926 8.3437 1.16894 8.24889 1.12205C8.17067 1.08337 8.05333 1.05173 7.98933 1.05173C7.92889 1.05173 7.81156 1.09041 7.73333 1.13963C7.65511 1.18534 7.56267 1.27677 7.53067 1.34006ZM6.77333 3.33377C6.61689 3.37596 6.32889 3.48496 6.13333 3.5799C5.93778 3.67133 5.64978 3.82956 5.49333 3.93504C5.33689 4.04053 5.056 4.27612 4.86756 4.45896C4.67911 4.64532 4.44444 4.91607 4.34844 5.06024C4.24889 5.20441 4.10311 5.45406 4.02133 5.61229C3.94311 5.77404 3.83644 6.02017 3.79022 6.15731C3.74044 6.29796 3.67644 6.53354 3.64444 6.67771C3.59467 6.8922 3.57689 7.24382 3.55556 8.54132C3.53067 9.87045 3.51644 10.2186 3.456 10.5983C3.41689 10.848 3.34222 11.2277 3.28889 11.4422C3.23556 11.6532 3.13244 12.0118 3.05778 12.2334C2.98311 12.4549 2.85511 12.7889 2.77333 12.9718C2.69156 13.1546 2.54222 13.4641 2.43556 13.6574C2.33244 13.8508 2.12978 14.1814 1.984 14.3959C1.84178 14.6068 1.72089 14.7932 1.71378 14.8073C1.71022 14.8248 4.53689 14.8354 8 14.8354C11.4596 14.8354 14.2898 14.8248 14.2862 14.8073C14.2791 14.7932 14.1582 14.6068 14.016 14.3959C13.8702 14.1814 13.6676 13.8508 13.5644 13.6574C13.4578 13.4641 13.3084 13.1546 13.2267 12.9718C13.1449 12.7889 13.0133 12.4479 12.9351 12.2158C12.8569 11.9837 12.7538 11.6286 12.704 11.4246C12.6578 11.2207 12.5831 10.848 12.544 10.5983C12.4836 10.215 12.4693 9.87749 12.4444 8.54132C12.4231 7.24382 12.4053 6.8922 12.3556 6.67771C12.3236 6.53354 12.2596 6.29796 12.2098 6.15731C12.1636 6.02017 12.0569 5.77404 11.9787 5.61229C11.8969 5.45406 11.7476 5.20441 11.6516 5.06024C11.552 4.91607 11.3493 4.67345 11.2 4.51874C11.0542 4.36754 10.8053 4.14953 10.6489 4.0335C10.4924 3.91746 10.1724 3.7311 9.93778 3.61507C9.70311 3.50255 9.39022 3.37596 9.24444 3.33728C9.09867 3.2986 8.82489 3.24234 8.64 3.21421C8.45511 3.18608 8.14933 3.16499 7.96444 3.16499C7.77956 3.1685 7.49867 3.1896 7.34222 3.21421C7.18578 3.23531 6.92978 3.29157 6.77333 3.33377ZM6.52444 15.9711C6.53867 16.0133 6.59911 16.1258 6.66311 16.2208C6.72356 16.3157 6.848 16.4599 6.93689 16.5372C7.02578 16.6181 7.17867 16.7201 7.27467 16.7658C7.37067 16.815 7.52711 16.8713 7.62667 16.8994C7.72267 16.924 7.89333 16.9451 8 16.9451C8.10667 16.9451 8.27378 16.924 8.37333 16.8994C8.46933 16.8713 8.62933 16.815 8.72533 16.7658C8.82133 16.7201 8.98133 16.6076 9.08089 16.5197C9.18044 16.4318 9.312 16.263 9.376 16.1505C9.44 16.0379 9.48978 15.9325 9.49333 15.9184C9.49333 15.9008 8.82133 15.8903 7.99644 15.8903H6.49956L6.52444 15.9711ZM2.72 1.82882C2.84089 1.82882 2.93333 1.84991 3.00444 1.89914C3.06133 1.93782 3.13956 2.01166 3.17156 2.0644C3.21067 2.12418 3.23556 2.23318 3.23556 2.33867C3.23911 2.4758 3.21778 2.5391 3.13956 2.64107C3.08622 2.71491 2.91556 2.91182 2.75911 3.0806C2.60622 3.25289 2.368 3.55881 2.23289 3.76275C2.09422 3.96317 1.888 4.31831 1.77422 4.5539C1.66044 4.78246 1.504 5.16221 1.42578 5.3978C1.34756 5.62635 1.25156 5.97798 1.21244 6.17137C1.17333 6.36476 1.12356 6.68826 1.10222 6.8922C1.08444 7.09263 1.06667 7.34931 1.06667 7.46183C1.06667 7.59545 1.04178 7.71148 0.995556 7.80642C0.948148 7.89784 0.877037 7.96817 0.782222 8.0174C0.704 8.05256 0.590222 8.08772 0.533333 8.08772C0.472889 8.08772 0.362667 8.05256 0.284444 8.0174C0.18963 7.96817 0.118519 7.89784 0.0711111 7.80642C0.0177778 7.69742 0 7.59193 0 7.35634C0 7.18756 0.0248889 6.85704 0.0568889 6.62848C0.0853333 6.39289 0.142222 6.05534 0.184889 5.87249C0.224 5.68613 0.330667 5.31341 0.419556 5.04617C0.508444 4.77191 0.689778 4.33941 0.821333 4.07921C0.952889 3.81549 1.15911 3.45332 1.28 3.27047C1.40444 3.08411 1.57156 2.84853 1.65333 2.74304C1.73867 2.63403 1.92356 2.41603 2.06578 2.2578C2.21156 2.09957 2.37511 1.9343 2.43556 1.89914C2.50667 1.84991 2.60267 1.82882 2.72 1.82882ZM13.28 1.8253C13.408 1.8253 13.4898 1.84991 13.5716 1.90617C13.6356 1.94837 13.7884 2.09605 13.9093 2.23318C14.0338 2.3668 14.2151 2.58129 14.3147 2.70788C14.4142 2.83094 14.5956 3.08411 14.72 3.27047C14.8409 3.45332 15.0507 3.82252 15.1858 4.09679C15.3209 4.36402 15.4987 4.80004 15.5876 5.06376C15.6729 5.32396 15.776 5.69668 15.8187 5.89007C15.8578 6.08347 15.9147 6.41399 15.9467 6.62848C15.9751 6.83946 16 7.15943 16 7.33876C16 7.59193 15.9858 7.6939 15.9289 7.80642C15.8815 7.89784 15.8104 7.96817 15.7156 8.0174C15.6373 8.05256 15.5236 8.08772 15.4667 8.08772C15.4062 8.08772 15.296 8.05256 15.2178 8.0174C15.123 7.96817 15.0519 7.89784 15.0044 7.80642C14.9582 7.71148 14.9333 7.59545 14.9333 7.46183C14.9333 7.34931 14.9156 7.09263 14.8978 6.8922C14.8764 6.68826 14.8267 6.36476 14.7876 6.17137C14.7484 5.97798 14.6524 5.62635 14.5742 5.3978C14.496 5.16221 14.3396 4.78246 14.2258 4.5539C14.112 4.31831 13.9058 3.96317 13.7671 3.76275C13.6284 3.55881 13.3973 3.25993 13.2551 3.09818C13.1129 2.93995 12.9422 2.74655 12.8782 2.6692C12.7822 2.54965 12.7644 2.50393 12.7644 2.3457C12.7644 2.21209 12.7858 2.13473 12.8427 2.06089C12.8818 2.00463 12.96 1.93079 13.0098 1.89211C13.0702 1.84991 13.1627 1.82882 13.28 1.8253Z" fill="url(#paint0_linear_987_8831)"/>
<defs>
<linearGradient id="paint0_linear_987_8831" x1="8.90849" y1="0.464048" x2="8.21547" y2="18.0085" gradientUnits="userSpaceOnUse">
<stop stop-color="#10A8A0"/>
<stop offset="1" stop-color="#83C24C"/>
</linearGradient>
</defs>
</svg>
