<svg width="290" height="221" viewBox="0 0 290 221" fill="none" xmlns="http://www.w3.org/2000/svg">
<path opacity="0.3" d="M43.3455 220.875C21.031 199.218 15.8966 182.631 18.3651 169.861C21.6563 152.977 36.5656 151.923 41.9961 132.341C49.0064 106.932 28.0742 93.6687 37.915 73.6251C43.8721 61.5134 52.1989 65.1008 63.4878 49.2041C76.7844 30.51 69.3133 19.2869 80.9313 9.41318C92.7469 -0.625072 113.844 -1.64536 128.819 4.87128C153.009 15.4032 147.809 39.8241 169.038 47.4927C190.891 55.3917 204.846 33.505 227.457 41.4698C246.414 48.151 258.263 71.1567 260.501 88.9293C263.068 109.664 252.009 118.847 259.645 135.204C265.24 147.184 273.238 147.941 279.952 158.111C286.897 168.577 290.78 186.843 275.904 220.875C198.384 220.875 120.865 220.875 43.3455 220.875V220.875Z" fill="#D8D8D8"/>
<path d="M261.883 199.218C261.982 196.783 262.772 185.494 271.625 178.977C276.924 175.061 285.613 172.527 288.345 175.686C291.011 178.78 287.39 186.58 283.441 191.023C276.068 199.383 264.648 199.317 261.883 199.218V199.218Z" fill="#83C24C" fill-opacity="0.43"/>
<path d="M281.894 181.841C276.54 187.984 269.87 193.777 261.883 199.218C253.897 204.66 245.306 208.653 236.113 211.198" stroke="white" stroke-width="0.9"/>
<path d="M276.957 186.811C277.154 184.989 277.363 183.168 277.582 181.347" stroke="white" stroke-width="0.9"/>
<path d="M261.06 144.814C265.701 137.508 275.147 129.346 280.544 131.847C286.041 134.414 285.975 147.579 282.618 156.564C277.023 171.539 261.521 177.101 258.164 178.22C256.946 174.403 252.306 158.44 261.06 144.814V144.814Z" fill="#83C24C" fill-opacity="0.43"/>
<path d="M276.167 142.84C271.011 155.237 265.01 167.03 258.164 178.22C251.318 189.41 244.429 200.37 237.495 211.1" stroke="white" stroke-width="0.9"/>
<path d="M266.787 162.752C266.546 158.802 266.315 154.853 266.096 150.903" stroke="white" stroke-width="0.9"/>
<path d="M271.79 152.582C272.514 151.561 273.699 151.002 274.851 150.475C276.057 149.905 277.275 149.334 278.504 148.764" stroke="white" stroke-width="0.9"/>
<path d="M100.514 90.8381C74.2282 87.4371 66.6474 80.1416 77.7718 68.9514C56.4665 50.6741 53.9542 42.5228 70.2348 44.4976C67.0314 14.8984 75.5337 11.8376 95.7419 35.315C103.729 28.184 105.956 34.3386 102.423 53.7788C119.823 47.5474 119.186 59.9005 100.514 90.8381V90.8381Z" fill="#83C24C" fill-opacity="0.43"/>
<path d="M122.105 128.457C116.817 124.025 110.114 112.593 101.995 94.1624C93.8768 75.7096 88.4792 58.1125 85.8024 41.3711" stroke="white" stroke-width="0.9"/>
<path d="M92.9444 69.4778C89.2801 67.0204 85.6049 64.5629 81.9187 62.1055" stroke="#BBB4F8" stroke-width="2.2" stroke-dasharray="7 7"/>
<path d="M89.0278 55.5891C90.6734 52.1223 92.319 48.6665 93.9646 45.2217" stroke="white" stroke-width="0.9"/>
<path d="M101.798 116.74C83.6082 124.025 77.673 121.436 83.9922 108.973C65.9782 108.227 60.5367 105.111 67.6677 99.6257C55.7754 79.7906 60.6025 77.366 82.1491 92.3521C85.3526 86.0329 88.6767 87.8431 92.1215 97.7826C101.513 86.2194 104.815 92.5935 102.028 116.905" fill="#83C24C" fill-opacity="0.43"/>
<path d="M82.1491 100.251C97.6837 113.482 109.455 123.092 117.464 129.082" stroke="#BBB4F8" stroke-width="2.2" stroke-dasharray="7 7"/>
<path d="M245.262 219.394H63.3233V102.555H245.262V219.394Z" fill="url(#paint0_linear_29_952)"/>
<path d="M245.262 102.555L154.293 176.739L63.3233 102.555H245.262Z" fill="#10A8A0"/>
<path d="M63.3233 102.555L154.293 28.3706L245.262 102.555H63.3233Z" fill="#046D68"/>
<path d="M20.1423 108.71C19.9887 108.622 19.8242 108.523 19.6486 108.413C19.4841 108.315 19.2866 108.216 19.0891 108.15C18.3651 108.413 17.5093 108.282 16.8511 107.887C16.5878 107.755 16.3574 107.558 16.127 107.36C15.9954 107.261 15.8966 107.163 15.8308 107.031C15.7321 106.932 15.6663 106.768 15.6992 106.636C15.7321 106.439 15.8966 106.307 15.9954 106.142C16.127 106.011 16.1929 105.78 16.0941 105.616C16.0283 105.517 15.8966 105.484 15.765 105.418C15.3042 105.221 15.008 104.892 14.8434 104.398C16.0941 104.596 17.279 104.958 18.4309 105.517C18.5954 105.287 18.6942 105.023 18.5954 104.76C18.5625 104.596 18.4309 104.464 18.3651 104.299C18.2663 104.135 18.2005 103.97 18.2334 103.806C18.2334 103.608 18.398 103.444 18.5625 103.444C18.76 103.477 18.8917 103.674 18.9904 103.839C19.144 104.146 19.2976 104.442 19.4512 104.727C19.5828 104.99 19.7145 105.287 19.7474 105.583C19.7803 105.715 19.7803 105.879 19.879 105.978C19.9449 106.11 20.0765 106.175 20.1752 106.208C20.4824 106.362 20.7896 106.515 21.0968 106.669C20.7677 107.36 20.4714 108.018 20.1423 108.71V108.71Z" fill="#F26D6D"/>
<path d="M58.9789 105.089C53.4935 110.904 48.6334 115.007 44.3987 117.398C40.3395 119.658 32.1992 116.762 19.9778 108.71L20.9981 106.537C27.7999 107.613 34.2617 109.423 40.3834 111.968C45.1008 108.15 49.3026 104.047 52.9888 99.6587L58.9789 105.089Z" fill="#046D68"/>
<path d="M25.3096 216.859L22.1171 215.642L22.4133 214.852L25.6058 216.07L25.3096 216.859Z" fill="#F6A19E"/>
<path d="M25.6058 216.069C26.1982 217.32 25.8581 218.231 24.5855 218.801L16.3245 215.641C16.3574 215.477 16.4891 214.621 17.246 213.996C17.8714 213.502 18.5625 213.469 18.7929 213.469C20.1094 213.974 21.4259 214.479 22.7424 214.983C23.4665 215.905 24.4209 216.267 25.6058 216.069V216.069Z" fill="#505050"/>
<path d="M17.246 214.588C16.9169 215.049 16.7524 215.477 16.6536 215.773L15.403 215.313L15.5346 214.918C16.0283 213.634 17.4764 212.976 18.7929 213.469C18.4638 213.601 17.8056 213.897 17.246 214.588Z" fill="#505050"/>
<path d="M26.0007 214.457L25.2437 216.037L23.1044 215.247L23.631 213.634L26.0007 214.457Z" fill="#F6A19E"/>
<path d="M61.0523 129.576C61.0743 137.036 60.4818 142.105 59.275 144.782C58.0683 147.48 53.7787 154.875 46.4063 166.964L26.0995 215.247L23.1044 214.095L29.5881 169.894C29.5881 169.894 41.0746 133.624 45.3531 126.416C48.1836 121.611 53.4167 122.664 61.0523 129.576V129.576Z" fill="#393939"/>
<path d="M54.3382 216.991H51.1457V216.234H54.3382V216.991Z" fill="#F6A19E"/>
<path d="M54.3382 216.234C55.2597 217.111 55.2597 218.011 54.3382 218.933H46.0772C46.0114 218.768 45.8468 217.978 46.3405 217.188C46.7355 216.53 47.295 216.3 47.4924 216.201C48.8089 216.223 50.1254 216.234 51.4419 216.234C52.4074 216.782 53.3728 216.782 54.3382 216.234V216.234Z" fill="#505050"/>
<path d="M46.538 217.715C46.3734 218.209 46.3734 218.636 46.4063 218.933H45.1557V218.571C45.1557 217.254 46.2089 216.201 47.4924 216.201C47.2621 216.431 46.7684 216.925 46.538 217.715V217.715Z" fill="#505050"/>
<path d="M53.68 214.259L54.1078 216.267L51.8369 216.366L51.1786 213.798L53.68 214.259Z" fill="#F6A19E"/>
<path d="M63.3891 131.222C64.0912 133.35 64.0583 136.312 63.2904 140.108C62.1713 145.571 56.653 155.335 46.7355 169.4L54.4369 214.391L50.4875 215.444L34.8541 173.843C33.6035 170.486 33.406 166.8 34.3275 163.311C37.0593 153.075 42.9176 131.748 44.9911 129.642L45.6494 123.586L63.3891 131.222Z" fill="#505050"/>
<path d="M17.7068 107.59L13.7903 101.173C13.4941 100.712 13.6586 100.086 14.1194 99.8232C14.5802 99.5269 15.2055 99.6586 15.4688 100.152L19.3854 106.57C19.6816 107.031 19.5499 107.656 19.0562 107.92C18.9026 108.029 18.7381 108.084 18.5625 108.084C18.2334 108.084 17.9043 107.92 17.7068 107.59Z" fill="#3E3D3D"/>
<path d="M15.5017 102.983C15.8308 103.246 16.1929 103.608 16.522 104.003C17.8056 105.451 18.2663 106.735 18.6613 106.636C19.155 106.505 18.8588 104.596 19.3195 104.464C19.7145 104.398 20.274 105.484 20.4715 106.011C20.7677 106.669 21.0639 107.36 20.8664 108.117L21.5247 108.71L19.9778 110.355L18.8917 109.335C18.0689 109.105 16.8182 108.611 15.8308 107.426C14.646 106.011 14.5143 104.398 14.5473 103.378C14.5802 102.884 15.1397 102.654 15.5017 102.983V102.983Z" fill="#FB9C98"/>
<path d="M51.6723 90.2457C52.5812 90.2457 53.3179 89.0226 53.3179 87.5139C53.3179 86.0053 52.5812 84.7822 51.6723 84.7822C50.7635 84.7822 50.0267 86.0053 50.0267 87.5139C50.0267 89.0226 50.7635 90.2457 51.6723 90.2457Z" fill="#F95F6A"/>
<path d="M54.0749 94.8863C55.556 94.3926 57.0699 95.5775 57.0041 97.1573C57.0041 97.6839 56.9712 98.2214 56.9053 98.77C56.0825 108.644 50.3558 116.181 45.5835 120.92C43.3784 123.125 39.9884 123.619 37.2567 122.105C35.5672 121.161 33.8558 120.152 32.1224 119.077C27.2843 116.148 23.1702 113.548 19.3524 110.618C19.5499 110.333 19.7583 110.037 19.9778 109.73C20.4166 109.115 20.8444 108.501 21.2613 107.887C24.2673 109.357 27.394 110.816 30.6413 112.264C34.2617 113.866 37.8052 115.358 41.272 116.74C43.1809 112.297 44.5632 108.94 45.3202 107.097C45.3202 107.097 48.6444 97.1902 53.285 95.1825C53.5483 95.0728 53.8116 94.9741 54.0749 94.8863V94.8863Z" fill="#10A8A0"/>
<path d="M49.4014 96.6635L47.5583 91.6938L51.047 89.5874C52.9778 92.1107 53.8884 93.4381 53.7787 93.5698C52.3306 95.369 50.8715 96.4002 49.4014 96.6635Z" fill="#F6A19E"/>
<path d="M51.7711 90.6406C51.7052 90.8161 51.6394 90.9807 51.5736 91.1343C51.0141 92.4508 49.7963 93.6027 48.4798 94.1622L47.5583 91.6938L51.047 89.5874C51.2664 89.8946 51.5078 90.2457 51.7711 90.6406V90.6406Z" fill="#F26D6D"/>
<path d="M51.047 83.1365C52.8901 84.1897 53.3509 87.1847 52.4293 89.2911C51.409 91.6608 48.3482 93.471 46.1102 92.3849C43.8063 91.2659 43.4443 87.5468 44.7607 85.3087C45.7481 83.6302 47.4925 83.0707 47.7229 83.0049C48.2165 82.8732 49.7305 82.4124 51.047 83.1365Z" fill="#F6A19E"/>
<path d="M53.7787 93.4382C61.2388 93.9209 64.4423 106.461 63.3891 131.057C57.8598 132.11 52.166 131.913 46.7026 130.497L43.7076 129.773L44.4316 108.051C44.5304 101.798 48.1507 96.137 53.7787 93.4382V93.4382Z" fill="#10A8A0"/>
<path d="M50.29 88.8964C49.4672 88.2381 50.5862 86.6913 49.6318 85.5393C48.6115 84.3216 46.6696 85.3748 44.9253 84.2887C44.0696 83.7621 43.1809 82.676 42.8189 80.2075C45.0569 78.8581 46.4063 78.9569 47.2292 79.286C48.2494 79.7139 48.3153 80.5038 49.5659 81.0304C51.1457 81.7215 51.9356 80.8658 53.2192 81.4253C54.7332 82.0835 56.0497 84.3874 55.3585 86.3951C54.5357 88.7977 51.2774 89.7192 50.29 88.8964V88.8964Z" fill="#3E3D3D"/>
<path d="M51.9685 89.6204C52.5684 89.6204 53.0546 89.1342 53.0546 88.5343C53.0546 87.9345 52.5684 87.4482 51.9685 87.4482C51.3687 87.4482 50.8824 87.9345 50.8824 88.5343C50.8824 89.1342 51.3687 89.6204 51.9685 89.6204Z" fill="#F6A19E"/>
<path d="M44.8924 218.637L54.5686 218.67V219.394L44.8924 219.361V218.637Z" fill="#393939"/>
<path d="M15.2713 214.885L24.9475 218.571L24.6513 219.328L14.9751 215.642L15.2713 214.885Z" fill="#393939"/>
<path d="M43.9708 122.138C48.2055 119.351 51.3432 115.764 53.3837 111.375" stroke="white" stroke-linecap="round"/>
<path d="M2.43551 76.3237H20.7018C22.0512 76.3237 23.1374 77.4098 23.1374 78.7592V88.2709C23.1374 89.6203 22.0512 90.7064 20.7018 90.7064H2.43551C1.08611 90.7064 0 89.6203 0 88.2709V78.7592C0 77.4098 1.08611 76.3237 2.43551 76.3237Z" fill="#F4F4F4"/>
<path d="M2.23803 94.0306V90.7065H7.37235L2.23803 94.0306Z" fill="#F4F4F4"/>
<path d="M29.6869 74.5796V84.0912C29.6869 85.4406 28.5679 86.5267 27.2185 86.5267H8.98507C7.63566 86.5267 6.54956 85.4406 6.54956 84.0912V74.5796C6.54956 73.2301 7.63566 72.144 8.98507 72.144H27.2185C28.5679 72.144 29.6869 73.2301 29.6869 74.5796Z" fill="url(#paint1_linear_29_952)"/>
<path d="M22.3146 86.5267H27.416V89.8509L22.3146 86.5267Z" fill="url(#paint2_linear_29_952)"/>
<path d="M18.1018 81.0632C18.8652 81.0632 19.4841 80.4443 19.4841 79.6809C19.4841 78.9175 18.8652 78.2986 18.1018 78.2986C17.3383 78.2986 16.7195 78.9175 16.7195 79.6809C16.7195 80.4443 17.3383 81.0632 18.1018 81.0632Z" fill="white"/>
<path d="M23.269 81.0632C24.0324 81.0632 24.6513 80.4443 24.6513 79.6809C24.6513 78.9175 24.0324 78.2986 23.269 78.2986C22.5056 78.2986 21.8867 78.9175 21.8867 79.6809C21.8867 80.4443 22.5056 81.0632 23.269 81.0632Z" fill="white"/>
<path d="M12.9345 81.0632C13.698 81.0632 14.3168 80.4443 14.3168 79.6809C14.3168 78.9175 13.698 78.2986 12.9345 78.2986C12.1711 78.2986 11.5522 78.9175 11.5522 79.6809C11.5522 80.4443 12.1711 81.0632 12.9345 81.0632Z" fill="white"/>
<path d="M228.905 37.0264C233.085 33.1427 240.424 29.5224 243.419 32.0237C246.513 34.5579 244.275 42.8848 240.655 48.052C234.632 56.6421 223.837 57.6295 221.533 57.794C221.401 55.161 221.105 44.2671 228.905 37.0264Z" fill="#83C24C" fill-opacity="0.43"/>
<path d="M243.979 59.5385C249.475 60.9866 256.486 65.2652 255.992 69.116C255.498 73.0984 247.27 75.6655 240.984 75.3693C230.485 74.8756 223.869 66.3184 222.487 64.4424C224.626 62.8955 233.677 56.8068 243.979 59.5385V59.5385Z" fill="#83C24C" fill-opacity="0.43"/>
<path d="M201.95 40.1202C201.325 34.4593 202.839 26.3958 206.623 25.4742C210.474 24.5198 215.839 31.2997 217.814 37.2569C221.105 47.2293 215.477 56.4776 214.226 58.4195C212.021 56.9713 203.069 50.6851 201.95 40.1202V40.1202Z" fill="#83C24C" fill-opacity="0.43"/>
<path d="M236.936 38.4089C231.703 45.8471 225.252 53.9435 217.419 62.2045C211.856 68.0958 206.327 73.2631 201.094 77.772" stroke="white" stroke-width="0.9"/>
<path d="M244.209 68.1288C235.981 67.8655 226.854 66.1101 216.826 62.8628C212.284 56.8727 209.651 48.151 208.927 36.6975" stroke="white" stroke-width="0.9"/>
<path d="M75.7641 55.6221H232.525V112.955L154.293 176.739L75.7641 112.692V55.6221Z" fill="#F4F4F4"/>
<path d="M63.3233 219.394L154.293 160.974L245.262 219.394H63.3233Z" fill="url(#paint3_linear_29_952)"/>
<path d="M65.2322 218.143L154.293 160.974L243.683 218.341" stroke="white" stroke-linecap="round"/>
<path d="M218.998 83.3012H153.141C151.627 83.3012 150.376 82.0835 150.376 80.5366C150.376 78.9897 151.627 77.772 153.141 77.772H218.998C220.545 77.772 221.763 78.9897 221.763 80.5366C221.763 82.0835 220.545 83.3012 218.998 83.3012Z" fill="white"/>
<path d="M157.222 95.7092H107.59C106.191 95.7092 105.056 96.8439 105.056 98.2435V98.7372C105.056 100.137 106.191 101.271 107.59 101.271H157.222C158.622 101.271 159.756 100.137 159.756 98.7372V98.2435C159.756 96.8439 158.622 95.7092 157.222 95.7092Z" fill="white"/>
<path d="M166.668 113.646H107.459C105.95 113.646 104.727 114.869 104.727 116.378V116.477C104.727 117.985 105.95 119.208 107.459 119.208H166.668C168.177 119.208 169.4 117.985 169.4 116.477V116.378C169.4 114.869 168.177 113.646 166.668 113.646Z" fill="white"/>
<path d="M198.955 119.176H186.251C184.704 119.176 183.486 117.958 183.486 116.411C183.486 114.897 184.704 113.646 186.251 113.646H198.955C200.502 113.646 201.719 114.897 201.719 116.411C201.719 117.958 200.502 119.176 198.955 119.176Z" fill="white"/>
<path d="M187.304 130.168H107.524C105.978 130.168 104.727 128.951 104.727 127.404C104.727 125.89 105.978 124.639 107.524 124.639H187.304C188.818 124.639 190.069 125.89 190.069 127.404C190.069 128.951 188.818 130.168 187.304 130.168Z" fill="white"/>
<path d="M200.469 136.882H107.492C105.965 136.882 104.727 138.12 104.727 139.647V139.68C104.727 141.207 105.965 142.444 107.492 142.444H200.469C201.996 142.444 203.233 141.207 203.233 139.68V139.647C203.233 138.12 201.996 136.882 200.469 136.882Z" fill="white"/>
<defs>
<linearGradient id="paint0_linear_29_952" x1="226.959" y1="142.583" x2="76.783" y2="159.393" gradientUnits="userSpaceOnUse">
<stop stop-color="#10A8A0"/>
<stop offset="1" stop-color="#83C24C"/>
</linearGradient>
<linearGradient id="paint1_linear_29_952" x1="19.432" y1="72.6005" x2="18.9678" y2="89.8737" gradientUnits="userSpaceOnUse">
<stop stop-color="#10A8A0"/>
<stop offset="1" stop-color="#83C24C"/>
</linearGradient>
<linearGradient id="paint2_linear_29_952" x1="19.432" y1="72.6005" x2="18.9678" y2="89.8737" gradientUnits="userSpaceOnUse">
<stop stop-color="#10A8A0"/>
<stop offset="1" stop-color="#83C24C"/>
</linearGradient>
<linearGradient id="paint3_linear_29_952" x1="226.959" y1="180.988" x2="82.1585" y2="213.405" gradientUnits="userSpaceOnUse">
<stop stop-color="#10A8A0"/>
<stop offset="1" stop-color="#83C24C"/>
</linearGradient>
</defs>
</svg>
