<svg width="16" height="12" viewBox="0 0 16 12" fill="none" xmlns="http://www.w3.org/2000/svg">
<path opacity="0.5" fill-rule="evenodd" clip-rule="evenodd" d="M13.1218 0H13.3287C13.5257 0 13.5424 0.00680887 13.6826 0.146391C13.7894 0.248523 13.8361 0.326825 13.8528 0.425554C13.8662 0.500451 13.8662 0.616202 13.8528 0.680886C13.8361 0.783019 13.045 1.60349 8.38512 6.35607C3.83206 10.9997 2.9141 11.9223 2.79393 11.9666C2.68044 12.0074 2.63037 12.0108 2.52689 11.9768C2.46013 11.953 2.35999 11.8951 2.30658 11.8474C2.25317 11.7998 2.18975 11.7215 2.16638 11.6704C2.13968 11.6159 2.11965 11.5206 2.11965 11.4559C2.11965 11.3912 2.13634 11.2959 2.15303 11.2448C2.17306 11.1904 2.5369 10.7955 2.96417 10.3597C3.39144 9.92392 3.73191 9.56305 3.7219 9.55624C3.71189 9.54603 3.47822 9.38602 3.20451 9.19877C2.92745 9.01153 2.53022 8.71534 2.31325 8.53831C2.09962 8.36469 1.74245 8.05148 1.5188 7.84721C1.29182 7.63954 0.921296 7.26506 0.690972 7.01313C0.460648 6.7612 0.213634 6.47182 0.136859 6.36969C0.0133521 6.20287 0 6.16542 0 5.9952C0 5.82498 0.0166901 5.78072 0.133521 5.61731C0.206958 5.51518 0.447296 5.23261 0.670943 4.9909C0.891253 4.74578 1.25844 4.37129 1.48876 4.15681C1.71575 3.94574 2.05622 3.64615 2.23982 3.49295C2.42675 3.34315 2.7472 3.09463 2.95749 2.94143C3.16779 2.79163 3.47155 2.58396 3.63845 2.48183C3.80201 2.37629 4.06572 2.22309 4.2226 2.13798C4.37949 2.04947 4.69327 1.89627 4.92359 1.79414C5.15391 1.692 5.50441 1.55582 5.70803 1.48774C5.90831 1.41965 6.16534 1.34135 6.27549 1.31411C6.38565 1.28347 6.58927 1.23921 6.72613 1.21198C6.86298 1.18474 7.15673 1.14389 7.37704 1.12346C7.62405 1.09623 7.95786 1.08942 8.24493 1.09963C8.50196 1.11325 8.8925 1.1541 9.11281 1.19155C9.33312 1.229 9.65691 1.30049 9.83049 1.34815C10.0041 1.39582 10.3212 1.50135 10.5315 1.58306C10.7418 1.66477 10.9955 1.7669 11.2658 1.88946L12.1938 0.943027L13.1218 0ZM6.7762 2.31842C6.5926 2.35927 6.26548 2.45119 6.04851 2.52268C5.83487 2.59758 5.48772 2.73376 5.28076 2.82908C5.0738 2.92441 4.75669 3.08782 4.5731 3.19336C4.38951 3.29889 4.04235 3.52018 3.80535 3.68359C3.56501 3.8436 3.16779 4.14319 2.92077 4.34746C2.67042 4.55172 2.18307 5.00451 1.83592 5.35517L1.20169 5.9918C2.18307 6.98589 2.67042 7.43868 2.92077 7.63954C3.16779 7.8404 3.54165 8.12638 3.75528 8.27277C3.96558 8.41575 4.22928 8.58597 4.33944 8.64725L4.53972 8.7596L5.76144 7.50677C5.58452 7.16633 5.50107 6.96547 5.46101 6.84631C5.42429 6.72375 5.37756 6.52289 5.35753 6.40033C5.33751 6.28118 5.32415 6.08372 5.32415 5.96797C5.32415 5.85222 5.34418 5.64455 5.37089 5.50837C5.39759 5.37219 5.45767 5.15431 5.50441 5.02154C5.55448 4.89217 5.62791 4.72195 5.67131 4.64705C5.7147 4.57215 5.82152 4.41555 5.91165 4.29299C6.00177 4.17383 6.17201 3.9934 6.29218 3.89807C6.40901 3.79935 6.60596 3.66657 6.72613 3.59848C6.84296 3.5338 7.06994 3.43848 7.22683 3.39081C7.39373 3.33634 7.63407 3.29208 7.81098 3.27847C7.99124 3.26825 8.21822 3.27506 8.37845 3.3023C8.52532 3.32613 8.74897 3.3806 8.87915 3.42826C9.006 3.47252 9.19293 3.55763 9.29641 3.61551L9.48 3.71764C10.2177 2.96185 10.4313 2.73376 10.4313 2.72354C10.4313 2.71674 10.3078 2.65886 10.1543 2.60099C10.0041 2.54311 9.73703 2.45459 9.56345 2.40693C9.38653 2.35927 9.10948 2.29459 8.94591 2.26395C8.77901 2.23331 8.41183 2.20607 8.1281 2.19586C7.84103 2.18905 7.49721 2.19926 7.36035 2.21628C7.22015 2.23331 6.95979 2.28097 6.7762 2.31842ZM13.2186 3.20697C13.2353 3.20697 13.302 3.224 13.3688 3.24783C13.4322 3.26825 13.6492 3.42486 13.8528 3.59508C14.0531 3.7619 14.3969 4.0683 14.6206 4.27937C14.8409 4.48704 15.188 4.84451 15.395 5.07941C15.5986 5.31091 15.8122 5.55944 15.869 5.63433C15.9257 5.70923 15.9791 5.81817 15.9925 5.87264C16.0025 5.93052 16.0025 6.03265 15.9925 6.10415C15.9791 6.18926 15.9124 6.30501 15.7989 6.44459C15.7021 6.56034 15.4751 6.82588 15.2882 7.03015C15.1046 7.23442 14.7574 7.58507 14.5204 7.80976C14.2801 8.03105 13.8962 8.36809 13.6692 8.55534C13.4389 8.74258 13.0183 9.05238 12.7346 9.24644C12.4475 9.44049 12.0369 9.69582 11.8166 9.81838C11.5963 9.94094 11.2425 10.118 11.0322 10.2099C10.8185 10.3018 10.458 10.438 10.2311 10.5129C10.0007 10.5912 9.63355 10.6899 9.41324 10.7376C9.19293 10.7852 8.83242 10.8397 8.61211 10.8635C8.3651 10.8908 8.02796 10.8976 7.74422 10.884C7.4872 10.8738 7.14004 10.8397 6.97648 10.8125C6.80958 10.7818 6.63266 10.7342 6.57925 10.7001C6.52584 10.6661 6.44907 10.598 6.41235 10.5435C6.35894 10.472 6.34225 10.3971 6.34225 10.2473C6.34225 10.1009 6.35894 10.026 6.41235 9.95456C6.44907 9.90009 6.53252 9.82178 6.59594 9.77753C6.69608 9.70603 6.7328 9.69922 6.9431 9.71625C7.06994 9.72986 7.28691 9.75369 7.42711 9.77072C7.56397 9.78774 7.80765 9.80476 7.96787 9.80476C8.1281 9.80476 8.40849 9.79114 8.58541 9.77072C8.76566 9.75029 9.05273 9.70263 9.22965 9.66518C9.40322 9.62773 9.717 9.53922 9.93063 9.46772C10.1409 9.39623 10.4781 9.26346 10.6817 9.17154C10.882 9.07962 11.2058 8.9128 11.3994 8.80386C11.5896 8.69151 11.9435 8.46682 12.1838 8.30341C12.4208 8.1434 12.818 7.84381 13.0684 7.63954C13.3154 7.43528 13.8027 6.98589 14.7875 5.99861L14.2701 5.46752C13.983 5.17474 13.5858 4.79344 13.3855 4.62322C13.1819 4.44959 12.9482 4.23852 12.8614 4.15341C12.7413 4.03425 12.7012 3.96957 12.6812 3.84701C12.6645 3.72785 12.6712 3.66317 12.7279 3.54061C12.7646 3.4589 12.8381 3.36017 12.8881 3.32272C12.9415 3.28868 13.0283 3.24783 13.0851 3.23421C13.1385 3.22059 13.1986 3.20697 13.2186 3.20697ZM7.11 4.64705C7.01653 4.70833 6.87967 4.82748 6.79956 4.916C6.72279 5.00451 6.61931 5.1509 6.57591 5.24623C6.52918 5.33815 6.46576 5.51177 6.43572 5.62752C6.399 5.77732 6.38898 5.9135 6.40234 6.09734C6.41235 6.23692 6.44573 6.42416 6.47243 6.51268C6.50248 6.60119 6.53586 6.67609 6.54921 6.67609C6.56256 6.67609 7.04658 6.19266 7.62739 5.60369L8.67887 4.5313C8.45189 4.43257 8.295 4.41214 8.04465 4.40193C7.73421 4.39512 7.64408 4.40533 7.47718 4.46321C7.36703 4.50406 7.20013 4.58577 7.11 4.64705Z" fill="#31333D"/>
</svg>
