<svg width="17" height="18" viewBox="0 0 17 18" fill="none" xmlns="http://www.w3.org/2000/svg">
<path fill-rule="evenodd" clip-rule="evenodd" d="M9.44957 0C9.5222 0 9.61299 0.0175838 9.64568 0.0351676C9.682 0.0562681 11.2291 0.538064 13.0885 1.10778C14.9443 1.68101 16.506 2.17687 16.5568 2.21204C16.6077 2.24721 16.6585 2.31403 16.673 2.35974C16.6839 2.40546 16.6948 4.08999 16.6948 6.10158C16.6948 8.11316 16.6839 9.79769 16.673 9.84341C16.6585 9.88912 16.6077 9.95594 16.5568 9.99111C16.506 10.0298 14.8971 10.5397 12.9796 11.1305C11.062 11.7214 9.46773 12.2032 9.43867 12.2032C9.40962 12.2032 7.8153 11.7214 5.89776 11.1305C3.98022 10.5397 2.37138 10.0263 2.32054 9.99111C2.26969 9.95594 2.21885 9.87857 2.20069 9.81527C2.18616 9.75549 2.1789 8.04283 2.19343 2.31403L2.28422 2.24018C2.34596 2.18742 3.51537 1.81113 5.78881 1.1113C7.6664 0.534547 9.22803 0.0492346 9.25709 0.0316508C9.28614 0.014067 9.3733 0 9.44594 0H9.44957ZM8.29469 0.991726C8.27653 1.00579 8.41816 1.06206 8.60701 1.12185C8.79586 1.17811 10.1178 1.58254 11.5378 2.01862L14.1272 2.81341C14.9661 2.55317 15.2131 2.46173 15.2167 2.44415C15.2203 2.42305 13.9347 2.01159 12.3586 1.52276C10.786 1.03393 9.47136 0.636533 9.4423 0.636533C9.41325 0.636533 9.14814 0.710385 8.8576 0.801821C8.56343 0.893257 8.30921 0.977659 8.29469 0.991726ZM6.08298 1.66343C6.04303 1.67749 6.01761 1.69508 6.0285 1.70563C6.0394 1.71266 7.35408 2.12412 8.95202 2.61647L11.8574 3.51324C12.7871 3.22838 13.0377 3.13343 13.0195 3.12288C12.9977 3.11233 11.6903 2.7079 10.1142 2.22259C8.53438 1.73376 7.21244 1.33988 7.17249 1.33988C7.13254 1.33988 6.88559 1.4067 6.62773 1.49111C6.36625 1.57199 6.12293 1.64936 6.08298 1.66343ZM3.88217 2.33864L2.85076 2.65515L2.83261 9.548C7.61919 11.018 9.03192 11.4506 9.06098 11.4576C9.10819 11.4646 9.11545 11.3837 9.11545 10.9301C9.11545 10.5819 9.12998 10.3498 9.15903 10.2725C9.19172 10.188 9.24256 10.1353 9.32246 10.1036C9.42051 10.065 9.46409 10.065 9.55852 10.1036C9.64205 10.1353 9.69289 10.188 9.72558 10.2725C9.75463 10.3498 9.76916 10.5819 9.76916 10.9301C9.76916 11.4189 9.77279 11.4646 9.8309 11.4541C9.86721 11.447 11.2799 11.0145 12.9723 10.494L16.052 9.548V2.84857L14.4359 3.36202C14.4032 5.52131 14.3887 5.73232 14.3451 5.78155C14.316 5.8132 14.1417 5.88705 13.9638 5.94332C13.7822 6.00311 13.5861 6.04882 13.528 6.04882C13.4662 6.04882 13.3936 6.02772 13.3609 6.00311C13.3282 5.97849 13.2846 5.92574 13.2629 5.88354C13.2374 5.83782 13.2265 5.76045 13.2374 5.7077C13.2447 5.65143 13.2846 5.5811 13.3173 5.54944C13.3536 5.51779 13.4735 5.45801 13.5824 5.42284L13.7822 5.35602L13.8003 3.55193C13.3936 3.67853 13.0232 3.79458 12.7181 3.88953L12.1661 4.06186C12.1661 5.63736 12.177 5.83782 12.2097 5.83782C12.2351 5.83782 12.3331 5.8132 12.4276 5.78507C12.5256 5.75693 12.6309 5.74287 12.6636 5.75342C12.6999 5.76748 12.7653 5.80968 12.8125 5.85189C12.867 5.90112 12.8961 5.96442 12.8961 6.04882C12.8961 6.13088 12.8682 6.1977 12.8125 6.24928C12.7653 6.29148 12.5474 6.3794 12.3295 6.44973C12.108 6.52007 11.901 6.57634 11.8646 6.57634C11.832 6.57634 11.763 6.55524 11.7121 6.53414C11.6613 6.50952 11.6068 6.45325 11.585 6.41105C11.5632 6.36182 11.5487 5.91167 11.5487 5.29272C11.5487 4.48035 11.5378 4.25879 11.5015 4.26583C11.4797 4.27286 11.0766 4.39595 10.6117 4.54014L9.76916 4.80037C9.76916 8.98883 9.76553 9.17171 9.70379 9.28424C9.66384 9.36513 9.60573 9.41436 9.5331 9.43546C9.46773 9.45305 9.3842 9.44953 9.32246 9.42843C9.26435 9.40381 9.20261 9.34051 9.16993 9.26666C9.12271 9.16116 9.11545 8.82355 9.11545 6.97021V4.80037C4.39424 3.34795 3.96207 3.20377 3.8749 3.12288C3.81317 3.05958 3.77685 2.98573 3.77685 2.91891C3.77685 2.85561 3.80953 2.77824 3.86764 2.72549C3.92575 2.6657 3.99475 2.63757 4.07465 2.63757C4.14002 2.63757 5.3748 3.00331 6.82021 3.44642L9.4423 4.25528C10.4555 3.94229 10.7497 3.8403 10.7461 3.82975C10.7425 3.8192 9.59484 3.45697 8.193 3.02441C6.79479 2.59185 5.48012 2.18742 5.28037 2.12764L4.90994 2.01862L3.88217 2.33864ZM2.11353 12.2032H3.43547C4.53951 12.2032 4.7792 12.2137 4.86999 12.2559C4.94626 12.2946 4.98984 12.3473 5.01526 12.4423C5.03342 12.5197 5.05158 13.2687 5.05158 16.0188L5.87597 16.3494C6.32993 16.5323 6.98001 16.789 7.32139 16.9262C7.65914 17.0598 8.10221 17.2075 8.30195 17.2532C8.50169 17.2989 8.83581 17.3517 9.04645 17.3693C9.28251 17.3904 9.58394 17.3904 9.84542 17.3693C10.0742 17.3517 10.4156 17.2989 10.6081 17.2532C10.7969 17.2075 12.0971 16.7468 13.4953 16.2298C14.8935 15.7129 16.0811 15.2662 16.1355 15.2346C16.19 15.2029 16.2663 15.1185 16.3062 15.0517C16.3462 14.9849 16.3789 14.8829 16.3789 14.8231C16.3789 14.7669 16.3498 14.6543 16.3099 14.577C16.2699 14.4996 16.1864 14.4046 16.1174 14.3695C16.052 14.3308 15.9358 14.3027 15.8559 14.3027C15.7506 14.3062 15.3075 14.4715 14.3306 14.8759C13.5716 15.1889 12.8525 15.4737 12.7326 15.5054C12.5401 15.5546 12.2532 15.5617 10.4555 15.5617C8.45085 15.5617 8.39637 15.5617 8.31648 15.4913C8.2729 15.4526 8.22205 15.3858 8.20389 15.3436C8.18574 15.2944 8.18937 15.2205 8.21116 15.1572C8.22932 15.0974 8.29105 15.0306 8.35642 14.999C8.44722 14.9533 8.75591 14.9462 10.4338 14.9462C12.3404 14.9462 12.4094 14.9427 12.522 14.8759C12.5874 14.8372 12.6636 14.7493 12.6963 14.6825C12.7254 14.6156 12.7508 14.5242 12.7508 14.482C12.7508 14.4363 12.7217 14.3484 12.6854 14.2816C12.6491 14.2183 12.5656 14.1339 12.4966 14.0987C12.3767 14.0354 12.2714 14.0319 10.9713 14.0319C9.89264 14.0319 9.5222 14.0213 9.35514 13.9826C9.2353 13.9545 8.93023 13.8455 8.68328 13.74C8.43269 13.6345 8.04047 13.4903 7.81167 13.4199C7.57924 13.3531 7.20518 13.2617 6.97638 13.223C6.74395 13.1843 6.32993 13.1421 6.05029 13.1281C5.59633 13.107 5.53096 13.0964 5.45106 13.0261C5.38206 12.9698 5.36027 12.9135 5.36027 12.8186C5.36027 12.7236 5.38206 12.6674 5.45833 12.6041C5.54912 12.5267 5.58907 12.5197 5.94134 12.5197C6.14835 12.5197 6.51152 12.5443 6.74758 12.5724C6.98364 12.6041 7.31413 12.6603 7.48482 12.699C7.65187 12.7377 7.94604 12.8186 8.13852 12.8784C8.32737 12.9382 8.64696 13.0577 8.8467 13.1421C9.04645 13.23 9.27525 13.325 9.35514 13.3566C9.47499 13.4059 9.74374 13.4164 12.5874 13.4516L12.7617 13.5395C12.8597 13.5888 13.0123 13.7083 13.0994 13.8033C13.1902 13.9017 13.2846 14.0494 13.3137 14.1374C13.3428 14.2253 13.3682 14.3624 13.3682 14.4468C13.3682 14.5277 13.3754 14.5945 13.3863 14.5945C13.3936 14.5945 13.8875 14.3941 14.4831 14.1479C15.5617 13.7013 15.5654 13.7013 15.8559 13.6978C16.0956 13.6978 16.1791 13.7154 16.3462 13.7927C16.4588 13.8455 16.6113 13.958 16.7021 14.0565C16.7856 14.1479 16.8873 14.3097 16.9272 14.4117C16.9672 14.5172 16.9999 14.6825 16.9999 14.8056C16.9999 14.9286 16.9672 15.0939 16.9272 15.2029C16.8873 15.3014 16.7856 15.4632 16.7021 15.5581C16.6149 15.6496 16.4624 15.7656 16.3643 15.8113C16.2626 15.8571 15.1041 16.2896 13.7858 16.7785C12.4675 17.2638 11.2327 17.7069 11.0439 17.7667C10.8514 17.8229 10.5681 17.8933 10.4083 17.9249C10.2485 17.9531 9.85632 17.9882 9.53673 17.9953C9.19172 18.0058 8.87939 17.9988 8.77407 17.9742C8.67238 17.9531 8.46174 17.9108 8.30195 17.8792C8.14215 17.8475 7.86978 17.7772 7.70272 17.7209C7.53203 17.6647 6.87106 17.408 5.06973 16.68L5.02252 16.8347C4.98984 16.9437 4.94626 17 4.86999 17.0387C4.7792 17.0844 4.54314 17.0914 3.45363 17.0914C2.52754 17.0914 2.12079 17.0809 2.06269 17.0492C2.0191 17.0281 1.961 16.9859 1.93558 16.9543C1.91379 16.9226 1.89199 16.8699 1.89199 16.8382C1.89199 16.7785 1.82662 16.7749 0.185095 16.7749L0.0943022 16.687C0.0325633 16.6307 -0.00012207 16.5604 -0.00012207 16.4866C-0.00012207 16.4092 0.0289316 16.3389 0.192358 16.1771H1.89199V15.9661C1.89199 15.7902 1.90652 15.741 1.97916 15.6672C2.04089 15.6074 2.1099 15.5792 2.19706 15.5792C2.28785 15.5792 2.35322 15.6074 2.41859 15.6672C2.50212 15.7516 2.50938 15.7762 2.50938 16.4936H4.39787V12.801H2.50938V13.7505C2.50938 14.4046 2.49486 14.7247 2.4658 14.7809C2.44401 14.8231 2.3968 14.8794 2.36412 14.9005C2.33506 14.9251 2.2588 14.9462 2.20069 14.9462C2.12442 14.9497 2.05542 14.9181 1.88836 14.7528L1.89199 13.1175L0.203253 13.121L0.101566 13.0296C0.0289316 12.9663 0.00350963 12.9065 0.00350963 12.8186C0.00350963 12.7342 0.0325633 12.6674 0.181463 12.5197H1.03491C1.85205 12.5197 1.89199 12.5161 1.88836 12.4528C1.88836 12.4142 1.93921 12.3438 2.00095 12.2946L2.11353 12.2032ZM3.76959 7.63137C3.82406 7.63137 3.90396 7.65598 3.95117 7.68412C3.99475 7.71225 4.04923 7.79665 4.06738 7.86699C4.08917 7.94084 4.1037 8.17295 4.1037 8.38747C4.1037 8.59847 4.08917 8.8341 4.06738 8.90443C4.04923 8.97828 3.99475 9.06269 3.95117 9.09082C3.90396 9.11895 3.82043 9.14357 3.75869 9.14357C3.68969 9.14357 3.61705 9.11192 3.55895 9.05214C3.47179 8.96422 3.46815 8.95367 3.46815 7.80017L3.56984 7.71577C3.62795 7.67005 3.71511 7.63137 3.76959 7.63137ZM5.02979 7.94787C5.11695 7.94787 5.18595 7.97601 5.24769 8.03579C5.33848 8.12371 5.33848 8.13075 5.33848 9.28424L5.22953 9.37216C5.17142 9.4214 5.08063 9.46008 5.02979 9.46008C4.97894 9.46008 4.89178 9.41436 4.72109 9.24907L4.72472 8.68288C4.72472 8.13778 4.72835 8.11668 4.81188 8.03228C4.87362 7.97601 4.93899 7.94787 5.02979 7.94787Z" fill="#83C24C"/>
</svg>
