<svg width="16" height="16" viewBox="0 0 16 16" fill="none" xmlns="http://www.w3.org/2000/svg">
<path d="M7.37124 0.0247527C8.98638 -0.102585 10.6021 0.263477 12.0047 1.0745C13.4072 1.88553 14.5305 3.10329 15.2258 4.56665C15.9211 6.03002 16.1557 7.67002 15.8986 9.26964C15.6415 10.8693 14.9047 12.3531 13.7858 13.5249C12.6669 14.6966 11.2187 15.501 9.63259 15.8316C8.04653 16.1623 6.39746 16.0036 4.90358 15.3765C3.4097 14.7494 2.14143 13.6835 1.26658 12.3198C0.391725 10.9562 -0.0484704 9.35905 0.00423588 7.73975C0.00719062 7.64126 0.0295156 7.54432 0.0699364 7.45445C0.110357 7.36459 0.168082 7.28357 0.239816 7.21601C0.311549 7.14846 0.395886 7.09569 0.488011 7.06073C0.580135 7.02577 0.678244 7.0093 0.776736 7.01225C0.875227 7.01521 0.972172 7.03753 1.06204 7.07795C1.1519 7.11837 1.23292 7.1761 1.30048 7.24783C1.36803 7.31957 1.42079 7.4039 1.45576 7.49603C1.49072 7.58815 1.50719 7.68626 1.50424 7.78475C1.45356 9.31761 1.94654 10.819 2.896 12.0235C3.84546 13.2279 5.19024 14.0579 6.69256 14.3665C8.19487 14.6752 9.75794 14.4427 11.1054 13.7101C12.4528 12.9776 13.4978 11.7921 14.0556 10.3635C14.6134 8.93481 14.648 7.35492 14.1534 5.90318C13.6587 4.45144 12.6667 3.22137 11.3526 2.43047C10.0386 1.63956 8.48722 1.33879 6.97282 1.58131C5.45843 1.82384 4.07857 2.59405 3.07724 3.75575L2.87324 4.00375H5.25224L5.35424 4.01175C5.53375 4.03645 5.69825 4.12531 5.81733 4.26189C5.9364 4.39847 6.00201 4.57355 6.00201 4.75475C6.00201 4.93596 5.9364 5.11103 5.81733 5.24762C5.69825 5.3842 5.53375 5.47305 5.35424 5.49775L5.25224 5.50475H1.25224L1.15024 5.49775C0.988084 5.47549 0.837668 5.40079 0.721933 5.28505C0.606199 5.16932 0.531501 5.0189 0.509236 4.85675L0.502236 4.75475V0.754753L0.509236 0.652753C0.531501 0.490601 0.606199 0.340185 0.721933 0.22445C0.837668 0.108716 0.988084 0.0340183 1.15024 0.0117527L1.25224 0.0047527L1.35424 0.0117527C1.51639 0.0340183 1.6668 0.108716 1.78254 0.22445C1.89827 0.340185 1.97297 0.490601 1.99524 0.652753L2.00224 0.754753L2.00124 2.70775C3.37378 1.1487 5.30032 0.185504 7.37124 0.0247527ZM7.74924 4.00375L7.85124 4.01075C8.01339 4.03302 8.1638 4.10772 8.27954 4.22345C8.39527 4.33918 8.46997 4.4896 8.49224 4.65175L8.49924 4.75375V7.99875L10.2492 7.99975L10.3512 8.00675C10.5315 8.03064 10.697 8.11921 10.8168 8.25598C10.9366 8.39275 11.0027 8.56841 11.0027 8.75025C11.0027 8.9321 10.9366 9.10775 10.8168 9.24452C10.697 9.38129 10.5315 9.46986 10.3512 9.49375L10.2492 9.49975H7.74924L7.64724 9.49375C7.48494 9.47144 7.33441 9.39659 7.21866 9.28066C7.10291 9.16473 7.0283 9.01409 7.00624 8.85175L6.99924 8.74975V4.75375L7.00624 4.65175C7.0285 4.4896 7.1032 4.33918 7.21893 4.22345C7.33467 4.10772 7.48508 4.03302 7.64724 4.01075L7.74924 4.00375Z" fill="url(#paint0_linear_987_8830)"/>
<defs>
<linearGradient id="paint0_linear_987_8830" x1="8.9085" y1="0.412487" x2="8.36075" y2="16.0127" gradientUnits="userSpaceOnUse">
<stop stop-color="#10A8A0"/>
<stop offset="1" stop-color="#83C24C"/>
</linearGradient>
</defs>
</svg>
