<svg width="14" height="17" viewBox="0 0 14 17" fill="none" xmlns="http://www.w3.org/2000/svg">
<path fill-rule="evenodd" clip-rule="evenodd" d="M1.47955 0.00332031L10.3727 0L10.8277 0.454883C11.0759 0.703906 11.8777 1.52402 12.6095 2.27109C13.4623 3.14766 13.9491 3.67227 13.9682 3.73535C13.9905 3.80176 14 5.79395 14 9.5625C14 13.5004 13.9905 15.3531 13.965 15.4893C13.9459 15.5988 13.8759 15.808 13.8091 15.9541C13.7232 16.1434 13.6277 16.2828 13.4845 16.4355C13.3732 16.5551 13.195 16.6979 13.09 16.7576C12.9882 16.8141 12.81 16.8937 12.4886 17H1.51136L1.30455 16.9303C1.19 16.8937 1.01182 16.8141 0.91 16.7576C0.808182 16.6979 0.63 16.5551 0.515455 16.4355C0.369091 16.2795 0.276818 16.1434 0.190909 15.9541C0.124091 15.808 0.0540909 15.5988 0.035 15.4893C0.00954545 15.3531 0 13.1949 0 8.5C0 3.80508 0.00954545 1.64687 0.035 1.51074C0.0540909 1.40117 0.124091 1.18867 0.194091 1.03594C0.286364 0.833398 0.369091 0.710547 0.521818 0.554492C0.633182 0.441602 0.798636 0.305469 0.894091 0.252344C0.989545 0.195898 1.15818 0.119531 1.27273 0.0796875L1.47955 0.00332031ZM1.37773 1.10234C1.33 1.13223 1.24409 1.20527 1.19 1.26504C1.13273 1.3248 1.06273 1.42773 1.03091 1.49082C0.973636 1.60371 0.970455 1.84277 0.970455 8.49668V15.3863C1.07864 15.5922 1.155 15.7018 1.21545 15.7582C1.27273 15.8146 1.37136 15.891 1.43182 15.9242C1.54 15.984 1.74045 15.984 7 15.984C12.2595 15.984 12.46 15.984 12.5682 15.9242C12.6286 15.891 12.7273 15.8146 12.7845 15.7582C12.845 15.7018 12.9214 15.5922 12.9595 15.5191L13.0295 15.3863L13.0455 4.4127L10.5795 4.39609C10.2836 4.25332 10.1341 4.15039 10.0609 4.0707C9.98455 3.99434 9.88909 3.86484 9.84773 3.78184C9.80636 3.70215 9.75864 3.54277 9.73955 3.4332C9.71727 3.31367 9.70455 2.7957 9.70455 2.11504V0.992773C3.45227 0.999414 1.60045 1.0127 1.55273 1.02598C1.505 1.03926 1.42545 1.07578 1.37773 1.10234ZM10.7227 3.3502C10.7832 3.41328 10.8277 3.4166 11.5341 3.4166C12.0018 3.4166 12.2882 3.40664 12.2977 3.3834C12.3073 3.3668 11.9541 2.98828 11.5182 2.54668C11.0791 2.10508 10.71 1.73652 10.6941 1.72988C10.6782 1.72324 10.6655 2.07188 10.6623 2.50352C10.6591 3.24395 10.6623 3.29043 10.7227 3.3502ZM6.94273 7.90234C10.1755 7.89902 10.4109 7.90566 10.5191 7.95879C10.5859 7.99199 10.6655 8.06172 10.7036 8.11484C10.7514 8.18789 10.7705 8.26758 10.7705 8.39707C10.7705 8.52988 10.7514 8.60957 10.7036 8.6793C10.6655 8.73574 10.5859 8.80547 10.5191 8.83867C10.4109 8.8918 10.1755 8.89512 6.94273 8.89512C3.71318 8.89512 3.47773 8.8918 3.37273 8.83867C3.31227 8.80547 3.22955 8.7291 3.18818 8.6627C3.14045 8.58633 3.115 8.5 3.115 8.39707C3.115 8.29746 3.14045 8.21113 3.18818 8.13145C3.22955 8.06836 3.31227 7.99199 3.37273 7.95879C3.47773 7.90566 3.71318 7.90234 6.94591 7.90234H6.94273ZM6.31909 9.89453C8.96 9.89121 9.17 9.89785 9.275 9.95098C9.34182 9.98418 9.42136 10.0539 9.45954 10.107C9.50727 10.1801 9.52636 10.2598 9.52636 10.3893C9.52636 10.5221 9.50727 10.6018 9.45954 10.6715C9.42136 10.7279 9.34182 10.7977 9.275 10.8309C9.17 10.884 8.96 10.8873 6.31909 10.8873C3.68136 10.8873 3.47455 10.884 3.36955 10.8309C3.30909 10.7977 3.22636 10.7213 3.185 10.6549C3.13727 10.5785 3.11182 10.4922 3.11182 10.3893C3.11182 10.2896 3.13727 10.2033 3.185 10.1236C3.22636 10.0605 3.30909 9.98418 3.36955 9.95098C3.47455 9.89785 3.68136 9.89453 6.32227 9.89453H6.31909ZM9.84136 11.8867L9.96227 11.9598C10.0355 12.0063 10.1086 12.0859 10.1436 12.1656C10.1786 12.2387 10.2073 12.3383 10.2073 12.3814C10.2073 12.4279 10.1786 12.5242 10.1436 12.5973C10.1086 12.6803 10.0355 12.76 9.84136 12.8795H6.65955C3.69409 12.8795 3.47136 12.8762 3.36636 12.823C3.30591 12.7898 3.22318 12.7135 3.18182 12.6471C3.13409 12.5707 3.10864 12.4844 3.10864 12.3814C3.10864 12.2818 3.13409 12.1955 3.18182 12.1158C3.22318 12.0527 3.30591 11.9764 3.36636 11.9432C3.47136 11.89 3.69409 11.8867 9.84136 11.8867Z" fill="url(#paint0_linear_987_8835)"/>
<defs>
<linearGradient id="paint0_linear_987_8835" x1="7.79493" y1="0.438267" x2="7.08865" y2="17.0038" gradientUnits="userSpaceOnUse">
<stop stop-color="#10A8A0"/>
<stop offset="1" stop-color="#83C24C"/>
</linearGradient>
</defs>
</svg>
