<svg width="19" height="19" viewBox="0 0 19 19" fill="none" xmlns="http://www.w3.org/2000/svg">
<path fill-rule="evenodd" clip-rule="evenodd" d="M9.44683 0.000533673C10.0185 -0.00318151 10.3043 0.0116792 10.6903 0.0711222C10.965 0.111989 11.3176 0.171432 11.4698 0.204869C11.622 0.238306 11.8893 0.301464 12.0637 0.349761C12.2382 0.398059 12.5389 0.494654 12.7319 0.565242C12.9249 0.635831 13.2441 0.765862 13.4371 0.855027C13.6302 0.944191 13.9234 1.08908 14.0867 1.18196C14.25 1.27113 14.5396 1.44574 14.7326 1.57206C14.9256 1.69466 15.1298 1.85441 15.1892 1.91757C15.2448 1.98444 15.3042 2.10333 15.3154 2.17763C15.3265 2.25565 15.3265 2.37454 15.3154 2.4377C15.3042 2.50457 15.2486 2.61231 15.1929 2.67547C15.1335 2.73863 15.0221 2.81293 14.9405 2.84637C14.8514 2.8798 14.74 2.89466 14.6621 2.8798C14.5915 2.86866 14.3577 2.74606 14.1424 2.60488C13.9271 2.4637 13.5782 2.25565 13.3629 2.14048C13.1476 2.02903 12.7801 1.85813 12.5463 1.76525C12.3124 1.67237 11.893 1.53862 11.6183 1.46803C11.3436 1.39744 10.9242 1.30828 10.6903 1.27484C10.3897 1.22655 10.0444 1.20797 9.52106 1.20797C8.99026 1.20797 8.65619 1.22655 8.35181 1.27113C8.11796 1.30828 7.75048 1.38258 7.53519 1.4346C7.3199 1.48661 6.9784 1.58692 6.77425 1.65751C6.57009 1.7281 6.21004 1.8767 5.97618 1.98816C5.74233 2.10333 5.40826 2.27794 5.2338 2.38197C5.05934 2.48599 4.7661 2.6829 4.58422 2.82036C4.39862 2.95782 4.09796 3.20303 3.91607 3.37021C3.73048 3.53368 3.45579 3.81232 3.30361 3.99064C3.15142 4.16897 2.9287 4.44018 2.81363 4.59622C2.69856 4.75226 2.49812 5.0569 2.3682 5.27238C2.242 5.48786 2.04898 5.85567 1.94504 6.08973C1.84111 6.32378 1.70377 6.67672 1.64067 6.86991C1.57756 7.0631 1.48105 7.39747 1.4328 7.61295C1.38083 7.82843 1.31402 8.19995 1.28061 8.43772C1.25092 8.68664 1.22493 9.15104 1.22493 9.51513C1.22493 9.86807 1.25092 10.3325 1.2769 10.5479C1.30659 10.7634 1.36599 11.1052 1.41053 11.3096C1.45507 11.5139 1.559 11.8817 1.63695 12.1269C1.71862 12.3721 1.90421 12.8142 2.04527 13.1114C2.19003 13.4086 2.41646 13.8173 2.55009 14.0216C2.68372 14.226 2.91385 14.5418 3.06233 14.7275C3.21081 14.9096 3.52261 15.2477 3.75275 15.4706C3.9866 15.6972 4.30211 15.9758 4.4543 16.0873C4.60649 16.2025 4.87375 16.3882 5.04821 16.5034C5.22267 16.6148 5.56416 16.808 5.80915 16.9306C6.05414 17.0532 6.41419 17.213 6.60721 17.2836C6.80023 17.3542 7.15286 17.4656 7.38671 17.5288C7.62056 17.5919 8.04001 17.6774 8.31469 17.7183C8.67475 17.7703 9.01253 17.7926 9.50251 17.7926C9.93309 17.7963 10.3488 17.774 10.6161 17.7368C10.8499 17.7034 11.21 17.6365 11.4141 17.5882C11.6183 17.5399 11.9115 17.4582 12.0637 17.4099C12.2159 17.3579 12.4758 17.265 12.6391 17.1981C12.8024 17.135 13.129 16.9827 13.3629 16.8563C13.5967 16.7337 13.9717 16.5071 14.1981 16.3548C14.4208 16.1987 14.7549 15.9424 14.9405 15.7864C15.1223 15.6266 15.3859 15.3814 15.5232 15.2328C15.6643 15.0879 15.8796 14.839 16.0021 14.6792C16.1283 14.5232 16.3102 14.2743 16.4067 14.1331C16.5032 13.9882 16.6665 13.7207 16.7667 13.5387C16.8707 13.3529 17.0154 13.0631 17.0934 12.8885C17.1713 12.7139 17.2938 12.387 17.3718 12.1641C17.4497 11.9374 17.5537 11.5622 17.6056 11.3281C17.6576 11.0941 17.7244 10.7486 17.7504 10.5665C17.7764 10.3771 17.7986 9.90151 17.7949 9.47055C17.7949 8.93927 17.7764 8.58633 17.7318 8.30026C17.6947 8.07364 17.6205 7.6984 17.5611 7.46434C17.5017 7.23029 17.3903 6.86991 17.3161 6.66558C17.2381 6.46124 17.0859 6.10087 16.9783 5.86681C16.8261 5.54359 16.7779 5.3987 16.7779 5.27238C16.7779 5.17207 16.8076 5.0569 16.8521 4.9826C16.8929 4.91944 16.9635 4.83771 17.008 4.80799C17.0563 4.77826 17.1528 4.7374 17.2233 4.71511C17.305 4.69281 17.4015 4.69281 17.4831 4.71511C17.5537 4.73368 17.6613 4.78569 17.7207 4.83399C17.7949 4.88972 17.9174 5.09406 18.0807 5.43957C18.2181 5.72564 18.4 6.16031 18.4816 6.40552C18.5633 6.65072 18.6821 7.05939 18.7415 7.31574C18.8046 7.57208 18.8825 7.95475 18.9159 8.17023C18.9493 8.38571 18.9827 8.88726 18.9939 9.28479C19.0087 9.83835 18.9976 10.1281 18.9493 10.5108C18.9159 10.7857 18.8491 11.2055 18.7971 11.4396C18.7489 11.6737 18.6598 12.0377 18.5967 12.2458C18.5373 12.4576 18.4185 12.7994 18.3332 13.0074C18.2515 13.2192 18.0659 13.6167 17.9211 13.8916C17.7801 14.1665 17.5388 14.5752 17.3903 14.8018C17.2419 15.0247 16.9857 15.3703 16.8224 15.5635C16.6591 15.7566 16.3213 16.117 16.0689 16.3622C15.8165 16.6074 15.449 16.9269 15.256 17.0718C15.063 17.2167 14.7363 17.4433 14.5322 17.5697C14.328 17.6997 13.9271 17.9189 13.6413 18.0563C13.3555 18.1938 12.9546 18.3684 12.7504 18.4427C12.5463 18.5207 12.1268 18.6433 11.8225 18.7214C11.5144 18.7994 11.0578 18.8923 10.8017 18.9331C10.4565 18.9814 10.1224 19 9.50251 19C8.89375 19 8.54483 18.9814 8.22189 18.9331C7.97691 18.8997 7.53519 18.8068 7.23824 18.7362C6.94128 18.6619 6.50699 18.5319 6.27314 18.4502C6.03929 18.3647 5.58643 18.1678 5.27092 18.0118C4.95541 17.8557 4.50255 17.5957 4.2687 17.4396C4.03485 17.2836 3.68964 17.031 3.50776 16.8823C3.32216 16.7337 2.95469 16.3882 2.69114 16.117C2.42388 15.8421 2.08981 15.4594 1.94133 15.2662C1.79657 15.073 1.57385 14.7461 1.44394 14.5418C1.31773 14.3374 1.09873 13.9362 0.961386 13.6501C0.824045 13.3641 0.653297 12.9703 0.579059 12.7771C0.508533 12.5839 0.389751 12.1975 0.319225 11.9226C0.244986 11.6476 0.144765 11.1312 0.0927979 10.7783C0.0222715 10.3065 0 9.98324 0 9.5337C0 9.13618 0.0259834 8.73122 0.0779502 8.33741C0.118781 8.01048 0.219003 7.49035 0.296953 7.18571C0.374904 6.87734 0.497397 6.46124 0.571635 6.25691C0.649585 6.05257 0.838893 5.6179 0.998505 5.29096C1.16183 4.96402 1.41795 4.50334 1.57756 4.26928C1.73346 4.03523 1.98588 3.68971 2.13435 3.50767C2.28283 3.32191 2.59463 2.98383 2.82848 2.7572C3.05862 2.52686 3.3964 2.2185 3.582 2.06989C3.76388 1.925 4.09053 1.68723 4.30582 1.54605C4.52111 1.40487 4.96283 1.15967 5.28948 0.999919C5.61613 0.840166 6.05042 0.646976 6.25458 0.568957C6.45873 0.494654 6.8856 0.368337 7.20112 0.290318C7.51663 0.212299 7.98433 0.115704 8.24045 0.0748374C8.56339 0.02654 8.92716 0.00424886 9.44683 0.000533673ZM16.158 3.00612C16.2545 3.00612 16.3807 3.03213 16.4438 3.06185C16.5032 3.09157 16.6108 3.18816 16.6814 3.27361C16.7519 3.36278 16.8261 3.50024 16.8484 3.58197C16.8744 3.67857 16.8744 3.77516 16.8521 3.86061C16.8335 3.9312 16.7816 4.03894 16.7333 4.09839C16.6851 4.15783 16.5923 4.22842 16.5255 4.25814C16.4623 4.28414 16.3473 4.30644 16.2768 4.30644C16.2062 4.30644 16.0837 4.27671 16.0095 4.23956C15.9353 4.20613 15.8165 4.1021 15.7497 4.00922C15.6791 3.91634 15.6086 3.78259 15.59 3.71201C15.5678 3.63027 15.5678 3.53368 15.59 3.45194C15.6123 3.38135 15.6532 3.28476 15.6828 3.23646C15.7125 3.19188 15.7942 3.12129 15.8573 3.08042C15.9353 3.03213 16.0466 3.00612 16.1543 3.00612H16.158ZM6.8856 5.01232H9.37259C11.6703 5.01232 11.8744 5.01604 11.9895 5.07919C12.06 5.11263 12.1491 5.18322 12.1862 5.23523C12.2233 5.28724 12.2716 5.39499 12.2864 5.47672C12.3087 5.56588 12.305 5.67734 12.2827 5.75536C12.2642 5.82595 12.1936 5.94112 12.1305 6.00799C12.0637 6.07486 11.9524 6.14545 11.8818 6.16403C11.8113 6.18632 11.5738 6.20118 11.351 6.20118C11.132 6.20118 10.9539 6.20861 10.9539 6.21976C10.9539 6.2309 10.9984 6.30892 11.0541 6.39809C11.1135 6.48354 11.1877 6.63586 11.2879 6.90707H11.5923C11.8336 6.90707 11.9264 6.92193 12.0192 6.98137C12.086 7.02224 12.1677 7.09283 12.1974 7.13741C12.2271 7.18571 12.2679 7.28973 12.2864 7.37146C12.305 7.46063 12.305 7.56837 12.2864 7.63896C12.2679 7.70583 12.2048 7.81729 12.1454 7.88045C12.0897 7.94732 11.9746 8.02534 11.8967 8.04763C11.8187 8.07363 11.6814 8.09593 11.5923 8.09593C11.4401 8.09593 11.4364 8.09964 11.4141 8.23339C11.403 8.31141 11.3548 8.50831 11.3028 8.67178C11.2545 8.83525 11.1506 9.07674 11.0726 9.20305C10.9984 9.33308 10.8611 9.52999 10.7683 9.63773C10.6755 9.74547 10.5233 9.89779 10.4268 9.97581C10.3303 10.0575 10.1632 10.1764 10.0556 10.2433C9.94794 10.3065 9.70666 10.4142 9.52478 10.4774C9.29093 10.5591 9.08677 10.6 8.8455 10.6185C8.6599 10.6297 8.504 10.652 8.504 10.6668C8.504 10.6854 9.01624 11.2353 9.63985 11.8928C10.2672 12.5542 10.8017 13.1486 10.8277 13.2117C10.8574 13.2786 10.8796 13.3789 10.8796 13.4347C10.8796 13.4941 10.8462 13.6093 10.8054 13.6947C10.7646 13.7839 10.6792 13.8879 10.6087 13.9288C10.5456 13.9696 10.4305 14.0142 10.36 14.0254C10.2783 14.0402 10.1744 14.0254 10.0816 13.9882C9.9665 13.9436 9.60273 13.5795 8.42976 12.3461C7.602 11.473 6.82993 10.6557 6.71114 10.5257C6.54782 10.3399 6.49585 10.2545 6.47729 10.1281C6.45873 10.0055 6.46987 9.93494 6.5404 9.79005C6.59607 9.6786 6.67774 9.57829 6.7594 9.52999C6.88189 9.45568 6.95242 9.45197 9.04223 9.41482L9.29093 9.29222C9.43198 9.22906 9.63613 9.08417 9.7512 8.97643C9.87741 8.86125 9.9999 8.69779 10.0667 8.56032C10.1261 8.43772 10.1855 8.28169 10.23 8.09593L8.57824 8.0885C7.08605 8.07735 6.9153 8.06992 6.80394 8.01048C6.74084 7.97704 6.64804 7.89159 6.6035 7.82472C6.55153 7.75413 6.51441 7.63524 6.50699 7.52007C6.49957 7.3789 6.51812 7.30088 6.58123 7.18942C6.62948 7.1114 6.72599 7.01481 6.79652 6.97765C6.9153 6.91078 7.03408 6.90707 8.41863 6.90707C9.24267 6.90707 9.92195 6.89592 9.93309 6.87734C9.94051 6.86248 9.86998 6.77332 9.77347 6.68044C9.67696 6.58756 9.54705 6.4761 9.48766 6.43524C9.42456 6.39437 9.30206 6.33121 9.20926 6.29035C9.0645 6.2309 8.9086 6.21976 7.96206 6.20118C6.88932 6.1826 6.88189 6.1826 6.74826 6.08973C6.6666 6.03771 6.57752 5.92626 6.52926 5.82966C6.47358 5.70706 6.45873 5.62533 6.47358 5.51387C6.48472 5.43214 6.52926 5.3244 6.56638 5.27238C6.6035 5.22037 6.69259 5.14235 6.7594 5.09405L6.8856 5.01232Z" fill="#83C24C"/>
</svg>
