<svg width="31" height="30" viewBox="0 0 31 30" fill="none" xmlns="http://www.w3.org/2000/svg">
<path fill-rule="evenodd" clip-rule="evenodd" d="M2.81946 6.44313H14.0342L14.2446 6.64917C14.3989 6.80026 14.455 6.91702 14.455 7.09558C14.455 7.26728 14.3989 7.3909 14.0482 7.74803H3.58394L3.48575 8.04335C3.42964 8.20131 3.00882 9.4238 2.53891 10.7562C2.069 12.0817 1.69027 13.2011 1.69027 13.2423C1.69027 13.2904 4.21516 13.3179 16.5029 13.3454L16.6713 13.5308C16.7835 13.6544 16.8396 13.8055 16.8396 13.9635C16.8396 14.1283 16.7765 14.2725 16.6432 14.4168C16.517 14.5541 16.3627 14.6365 15.8717 14.7189L16.026 14.9181C16.1032 15.028 16.3276 15.2752 16.524 15.4744C16.7624 15.7217 16.9658 15.859 17.1552 15.914C17.3095 15.9552 17.541 15.9895 17.6602 15.9895C17.8285 15.9895 17.9548 16.0513 18.1371 16.2299C18.3054 16.3947 18.3826 16.5321 18.3826 16.6763C18.3826 16.8205 18.3054 16.9579 17.8706 17.3974L17.4428 17.3425C17.2113 17.315 16.8256 17.1983 16.5941 17.0952C16.3627 16.9853 16.005 16.7518 15.4369 16.2642L15.1002 16.5252C14.9179 16.6763 14.6584 16.8549 14.5251 16.9373C14.3919 17.0128 14.0903 17.1296 13.8588 17.1914C13.5713 17.2738 13.2697 17.3013 12.912 17.2875C12.5122 17.2669 12.2808 17.212 11.9301 17.0472C11.6776 16.9304 11.2778 16.6763 10.5975 16.1269L10.2609 16.4359C10.0785 16.6076 9.69276 16.8686 9.41222 17.006C8.90724 17.2532 8.85815 17.2601 8.14977 17.2601C7.45543 17.2601 7.37127 17.2463 6.95045 17.0403C6.69796 16.9235 6.33326 16.6832 5.79321 16.2024L5.65294 16.3398C5.57579 16.4222 5.33733 16.6007 5.12692 16.745C4.91652 16.8823 4.55882 17.0678 4.33439 17.1433C4.06086 17.2463 3.78032 17.2944 2.91765 17.2875L3.26833 17.6515L3.33846 26.1196L5.19706 26.154L5.23213 18.7229L5.68801 18.3246H10.4572L10.9131 18.7229V25.1238L10.7378 25.3024C10.6045 25.4329 10.4853 25.4809 10.2609 25.4878C9.99434 25.5015 9.92421 25.4741 9.54548 25.0551V19.6982H6.59977V26.154L22.6258 26.1196L22.6959 22.9123L22.8713 22.775C22.9695 22.6994 23.1238 22.6239 23.2219 22.6033C23.3201 22.5827 23.4744 22.5895 23.5656 22.6239C23.6568 22.6582 23.7971 22.775 23.8812 22.878C24.0215 23.0634 24.0285 23.1733 24.0636 26.154H25.7468L26.1676 26.5661V28.0289C26.1676 29.3063 26.1536 29.5055 26.0484 29.6497C25.9783 29.7459 25.817 29.8626 25.6907 29.9107C25.5154 29.9794 24.3652 30 20.1009 30C15.0091 30 14.7215 29.9931 14.469 29.8695C14.3007 29.7871 14.1744 29.6635 14.1113 29.5124C14.0412 29.3476 14.0342 29.2171 14.0762 29.0797C14.1113 28.9698 14.2305 28.8187 14.3357 28.7363C14.5321 28.5921 14.5672 28.5921 24.7649 28.5577V27.4589H1.33959V28.5577L6.80317 28.5715C12.2457 28.5921 12.2738 28.5921 12.4701 28.7363C12.5753 28.8187 12.6946 28.9698 12.7296 29.0797C12.7717 29.2171 12.7647 29.3476 12.6946 29.5124C12.6314 29.6635 12.5052 29.7871 12.3299 29.8695C12.0844 29.9931 11.7898 30 6.38937 30C1.86561 30 0.659276 29.9794 0.476923 29.9107C0.357692 29.8626 0.19638 29.7459 0.126244 29.6497C0.0210407 29.5055 0.00701358 29.3063 0 26.5317L0.19638 26.3394C0.385747 26.1609 0.427828 26.154 1.93575 26.1196L1.95679 21.8959C1.97081 18.7092 1.99887 17.6515 2.06199 17.576C2.11109 17.521 2.23733 17.4249 2.56697 17.2326L2.35656 17.157C2.23733 17.1158 2.00588 17.0128 1.83054 16.9304C1.6552 16.848 1.32557 16.6076 1.09412 16.3947C0.848643 16.1681 0.575113 15.8247 0.434842 15.5706C0.301584 15.3302 0.154299 14.9731 0.09819 14.7876C0.049095 14.5953 0.00701358 14.3 0.00701358 14.1146C0.00701358 13.8742 0.315611 12.9127 1.23439 10.2685C2.20226 7.50766 2.50385 6.71785 2.64412 6.59423L2.81946 6.44313ZM1.93575 15.1516C2.069 15.3508 2.30045 15.5912 2.44072 15.6804C2.58801 15.7697 2.85452 15.8796 3.03688 15.9208C3.21923 15.962 3.50679 15.9758 3.6681 15.9483C3.83643 15.9277 4.09593 15.8453 4.25023 15.7697C4.40452 15.6942 4.59389 15.5774 4.67805 15.5225C4.7552 15.4607 4.9586 15.2478 5.1129 15.0486L5.40747 14.6846C2.52489 14.6846 1.69027 14.7121 1.69027 14.7395C1.69027 14.767 1.80249 14.9525 1.93575 15.1516ZM6.43846 15.0486C6.59276 15.2478 6.86629 15.5088 7.06267 15.6324C7.25905 15.7629 7.57466 15.8934 7.79208 15.9346C8.06561 15.9826 8.27602 15.9826 8.50747 15.9277C8.68982 15.8865 8.96335 15.7972 9.10362 15.7217C9.25091 15.653 9.46833 15.4881 9.58756 15.3645C9.70679 15.2409 9.85407 15.0555 9.9172 14.9593C9.98733 14.87 10.0364 14.767 10.0364 14.7395C10.0364 14.7121 9.16674 14.6846 8.10068 14.6846H6.17195L6.43846 15.0486ZM11.2919 14.9112C11.362 15.0349 11.5443 15.2546 11.6916 15.3989C11.8389 15.5362 12.0844 15.7148 12.2387 15.7835C12.393 15.8521 12.6455 15.9346 12.7998 15.9552C12.9541 15.9826 13.2557 15.9689 13.4661 15.9277C13.6765 15.8865 13.9851 15.7697 14.1534 15.6667C14.3147 15.5637 14.5952 15.3027 14.7636 15.0829L15.0792 14.6915H11.1586L11.2919 14.9112ZM23.0256 0.00105177C23.4043 -0.00581612 23.9514 0.0216554 24.2529 0.0628628C24.5545 0.10407 25.0665 0.220824 25.3891 0.310107C25.7188 0.406257 26.2588 0.612294 26.5814 0.770256C26.9111 0.935085 27.388 1.19606 27.6335 1.36776C27.886 1.53259 28.3068 1.86912 28.5733 2.11636C28.8398 2.36361 29.2326 2.79628 29.45 3.07787C29.6674 3.36632 29.976 3.8402 30.1373 4.14239C30.2986 4.44458 30.5161 4.93907 30.6213 5.24125C30.7195 5.54344 30.8527 6.01733 30.9018 6.29204C30.9579 6.56676 31 7.18487 31 7.66562C31 8.14637 30.9579 8.80569 30.9088 9.12161C30.8527 9.4444 30.7265 10.0007 30.6283 10.3578C30.5301 10.7218 30.3197 11.3399 30.1584 11.7314C30.0041 12.1297 29.5903 12.9951 29.2396 13.6544C28.8959 14.3206 28.5382 14.9318 28.4541 15.0143C28.3699 15.1035 28.2086 15.1928 28.0894 15.2134C27.9491 15.2409 27.8088 15.2134 27.6545 15.1241C27.5283 15.0555 27.395 14.925 27.36 14.8426C27.3179 14.7602 27.2828 14.6365 27.2828 14.5678C27.2828 14.4992 27.6265 13.7849 28.0403 12.9676C28.5172 12.0405 28.91 11.1751 29.0923 10.6325C29.2466 10.1655 29.436 9.49935 29.4991 9.15595C29.5833 8.75075 29.6253 8.24252 29.6253 7.64502C29.6183 6.92389 29.5833 6.63544 29.443 6.09974C29.3448 5.74261 29.1484 5.22065 29.0081 4.9322C28.8609 4.65061 28.6084 4.23167 28.44 4.00503C28.2717 3.77839 27.921 3.39379 27.6615 3.13968C27.395 2.89243 26.9882 2.56278 26.7568 2.40481C26.5253 2.25372 26.1186 2.03395 25.845 1.91719C25.5785 1.79357 25.1367 1.63561 24.8631 1.56006C24.5405 1.46391 24.0706 1.40897 23.4604 1.3815C22.8853 1.36089 22.3593 1.3815 22.0226 1.43644C21.7351 1.47765 21.2932 1.58753 21.0407 1.66995C20.7952 1.75923 20.3674 1.9378 20.0939 2.06829C19.8274 2.19878 19.4136 2.45289 19.1821 2.61772C18.9507 2.78942 18.586 3.11221 18.3686 3.33198C18.1581 3.55175 17.8145 3.97756 17.6181 4.27975C17.4147 4.58194 17.1622 5.06269 17.05 5.34427C16.9378 5.63272 16.7975 6.09974 16.7344 6.39506C16.6783 6.69038 16.6222 7.21921 16.6222 7.57634C16.6222 7.94033 16.6713 8.46916 16.7344 8.76448C16.7975 9.0598 16.9518 9.60236 17.0781 9.9801C17.2043 10.3578 17.4568 10.9965 17.6391 11.388C17.8215 11.7864 18.2072 12.5281 18.5018 13.0363C18.7964 13.5514 19.3855 14.4786 19.8063 15.0967C20.2342 15.7217 21.1389 16.9579 21.8262 17.8438C22.5136 18.7367 23.1448 19.5471 23.3903 19.8355L24.1618 18.8259C24.5896 18.2696 25.2769 17.3356 25.6907 16.745C26.2658 15.9483 26.5043 15.6598 26.6726 15.5912C26.7989 15.5431 26.9742 15.5225 27.0584 15.5431C27.1425 15.5637 27.2968 15.6598 27.388 15.7491C27.5143 15.8727 27.5633 15.9964 27.5633 16.1612C27.5633 16.2986 27.5283 16.4771 27.4862 16.5595C27.4441 16.642 27.0724 17.1776 26.6656 17.7408C26.2588 18.3109 25.4663 19.3754 24.8982 20.1102C24.3371 20.852 23.8251 21.4907 23.776 21.5388C23.7199 21.5868 23.5656 21.6349 23.4253 21.6349C23.2921 21.6418 23.1167 21.6143 23.0396 21.5731C22.9624 21.5319 22.3663 20.8108 21.707 19.966C21.0548 19.1213 20.2201 18.0293 19.8554 17.5416C19.4907 17.0472 18.8735 16.1681 18.4808 15.5774C18.081 14.9937 17.562 14.1764 17.3235 13.7574C17.0781 13.3454 16.6993 12.6311 16.4749 12.1778C16.2575 11.7245 15.9489 10.9828 15.7946 10.5295C15.6403 10.0762 15.4509 9.4444 15.3808 9.12161C15.2896 8.6958 15.2615 8.26313 15.2615 7.50766C15.2686 6.6423 15.2966 6.38132 15.4509 5.82502C15.5421 5.46789 15.7385 4.91159 15.8857 4.5888C16.026 4.27288 16.3206 3.74405 16.538 3.42126C16.7554 3.10534 17.2043 2.57651 17.5339 2.25372C17.8636 1.9378 18.3545 1.53259 18.6281 1.35403C18.8946 1.17546 19.3855 0.907613 19.7081 0.749652C20.0378 0.59169 20.5287 0.399389 20.7952 0.323843C21.0688 0.241428 21.5247 0.13841 21.8122 0.0903344C22.1068 0.0422591 22.6468 0.00105177 23.0256 0.00105177ZM23.0747 3.97756C23.25 3.97756 23.6147 4.01877 23.8812 4.08058C24.1548 4.13552 24.5826 4.27975 24.8281 4.40337C25.1086 4.54073 25.4663 4.80171 25.7398 5.06956C26.0344 5.35801 26.2799 5.6808 26.4201 5.96238C26.5464 6.20963 26.6796 6.56676 26.7217 6.75219C26.7708 6.94449 26.8059 7.31536 26.8129 7.57634C26.8129 7.84418 26.7778 8.22879 26.7287 8.43482C26.6726 8.64773 26.5394 9.01859 26.4201 9.25897C26.2799 9.54742 26.0344 9.87021 25.7398 10.1587C25.4453 10.4609 25.1226 10.6944 24.793 10.8523C24.5054 10.9965 24.0916 11.1339 23.776 11.182C23.4885 11.2301 23.0606 11.2575 22.8292 11.2369C22.5977 11.2163 22.205 11.127 21.9525 11.0515C21.707 10.9691 21.3283 10.7905 21.1109 10.6532C20.9005 10.5158 20.5778 10.2479 20.3955 10.0556C20.2061 9.86334 19.9466 9.49248 19.8204 9.22463C19.6871 8.96365 19.5398 8.54471 19.4977 8.29746C19.4486 8.05022 19.4276 7.63128 19.4486 7.33596C19.4697 7.05438 19.5468 6.65604 19.617 6.45687C19.6941 6.23023 19.8204 6.03106 19.9466 5.94178C20.0775 5.84563 20.2295 5.80213 20.4025 5.81129C20.5638 5.81816 20.7181 5.87997 20.8163 5.98299C20.9005 6.0654 20.9916 6.23023 21.0127 6.34012C21.0337 6.45687 21.0057 6.69038 20.9495 6.85521C20.8934 7.0269 20.8233 7.28788 20.8023 7.43898C20.7812 7.59007 20.8023 7.88539 20.8514 8.09143C20.9005 8.30433 21.0267 8.61339 21.1249 8.77822C21.2231 8.94991 21.4405 9.20403 21.6088 9.34825C21.7842 9.48561 22.0857 9.66417 22.2891 9.73972C22.5206 9.829 22.8222 9.87708 23.1097 9.87708C23.3903 9.87708 23.7129 9.829 23.9373 9.74659C24.1407 9.67104 24.4704 9.46501 24.6808 9.28644C24.8912 9.10101 25.1296 8.80569 25.2208 8.60652C25.312 8.42109 25.4102 8.07769 25.4382 7.85105C25.4663 7.55573 25.4453 7.32909 25.3541 7.0269C25.291 6.80026 25.1647 6.51181 25.0805 6.37446C24.9964 6.24397 24.786 6.01733 24.6176 5.87997C24.4423 5.73574 24.1407 5.55718 23.9373 5.48163C23.7059 5.39921 23.4043 5.35114 23.1308 5.35114C22.8923 5.35114 22.5627 5.39921 22.4084 5.45416C22.2541 5.5091 22.0367 5.55031 21.9174 5.55031C21.8052 5.55031 21.6439 5.49537 21.5597 5.43355C21.4756 5.36488 21.3704 5.23439 21.3213 5.13823C21.2792 5.04895 21.2581 4.87725 21.2792 4.7605C21.3002 4.65061 21.3774 4.50639 21.4475 4.44458C21.5106 4.38277 21.6509 4.29348 21.7421 4.24541C21.8403 4.19733 22.1068 4.12179 22.3382 4.07371C22.5697 4.02564 22.9063 3.98443 23.0747 3.97756ZM13.2697 18.3933C14.0272 18.3933 14.0271 18.4001 14.2025 18.5993C14.3217 18.7367 14.3778 18.8946 14.3778 19.0457C14.3778 19.2243 14.3217 19.3479 14.1744 19.4921C14.0201 19.6501 13.9079 19.6982 13.4661 19.6982V23.4068H18.7262V19.6982H15.3597L15.1493 19.4921C14.995 19.3479 14.9389 19.2243 14.9389 19.0457C14.9389 18.874 15.002 18.7504 15.3527 18.3933H17.4989C19.4206 18.3933 19.6591 18.407 19.8204 18.5169C19.9186 18.5856 20.0308 18.7435 20.0658 18.874C20.1009 19.0114 20.129 20.2407 20.129 21.6074C20.129 23.6678 20.1149 24.1417 20.0238 24.334C19.9536 24.4942 19.8367 24.6087 19.6731 24.6774C19.4697 24.7667 18.9016 24.7804 16.0962 24.7804C13.2907 24.7804 12.7296 24.7667 12.5192 24.6774C12.386 24.6224 12.2457 24.5126 12.2036 24.437C12.1615 24.3546 12.1335 23.2214 12.1195 18.7573L12.3088 18.5787C12.4982 18.407 12.5403 18.3933 13.2697 18.3933Z" fill="white"/>
</svg>
