<svg width="13" height="17" viewBox="0 0 13 17" fill="none" xmlns="http://www.w3.org/2000/svg">
<path d="M6.42614 6.52679H6.16761C6.15782 6.52679 6.14842 6.53078 6.1415 6.5379C6.13457 6.54502 6.13068 6.55467 6.13068 6.56473V7.02009C6.13068 7.03015 6.13457 7.03981 6.1415 7.04692C6.14842 7.05404 6.15782 7.05804 6.16761 7.05804H6.42614C6.43593 7.05804 6.44532 7.05404 6.45225 7.04692C6.45918 7.03981 6.46307 7.03015 6.46307 7.02009V6.56473C6.46307 6.55467 6.45918 6.54502 6.45225 6.5379C6.44532 6.53078 6.43593 6.52679 6.42614 6.52679ZM6.16761 6.56473H6.42614V6.90625H6.16761V6.56473ZM6.16761 7.02009V6.9442H6.42614V7.02009H6.16761Z" fill="url(#paint0_linear_242_2579)"/>
<path d="M6.27841 6.96317H6.31534V7.00112H6.27841V6.96317Z" fill="url(#paint1_linear_242_2579)"/>
<path d="M5.96449 6.45089H6.62926V7.13393H5.96449V6.45089Z" fill="url(#paint2_linear_242_2579)"/>
<path d="M11.8182 6.67857C11.8182 5.22935 11.2579 3.83949 10.2605 2.81474C9.26317 1.78999 7.91047 1.21429 6.5 1.21429C5.08953 1.21429 3.73683 1.78999 2.73948 2.81474C1.74212 3.83949 1.18182 5.22935 1.18182 6.67857C1.18182 8.92014 2.92736 11.8417 6.5 15.3413C10.0726 11.8417 11.8182 8.92014 11.8182 6.67857ZM6.5 17C2.16627 12.9528 0 9.5115 0 6.67857C0 4.9073 0.68482 3.20858 1.90381 1.95611C3.12279 0.703633 4.77609 0 6.5 0C8.22391 0 9.87721 0.703633 11.0962 1.95611C12.3152 3.20858 13 4.9073 13 6.67857C13 9.5115 10.8337 12.9528 6.5 17Z" fill="url(#paint3_linear_242_2579)"/>
<path d="M6.5 8.5C6.97016 8.5 7.42106 8.3081 7.75351 7.96652C8.08596 7.62493 8.27273 7.16164 8.27273 6.67857C8.27273 6.1955 8.08596 5.73221 7.75351 5.39063C7.42106 5.04904 6.97016 4.85714 6.5 4.85714C6.02984 4.85714 5.57894 5.04904 5.24649 5.39063C4.91404 5.73221 4.72727 6.1955 4.72727 6.67857C4.72727 7.16164 4.91404 7.62493 5.24649 7.96652C5.57894 8.3081 6.02984 8.5 6.5 8.5ZM6.5 9.71429C5.71641 9.71429 4.96491 9.39445 4.41082 8.82515C3.85674 8.25584 3.54545 7.48369 3.54545 6.67857C3.54545 5.87345 3.85674 5.1013 4.41082 4.532C4.96491 3.96269 5.71641 3.64286 6.5 3.64286C7.28359 3.64286 8.03509 3.96269 8.58918 4.532C9.14326 5.1013 9.45455 5.87345 9.45455 6.67857C9.45455 7.48369 9.14326 8.25584 8.58918 8.82515C8.03509 9.39445 7.28359 9.71429 6.5 9.71429Z" fill="url(#paint4_linear_242_2579)"/>
<defs>
<linearGradient id="paint0_linear_242_2579" x1="7.23815" y1="0.438267" x2="6.47776" y2="16.999" gradientUnits="userSpaceOnUse">
<stop stop-color="#10A8A0"/>
<stop offset="1" stop-color="#83C24C"/>
</linearGradient>
<linearGradient id="paint1_linear_242_2579" x1="7.23815" y1="0.438267" x2="6.47776" y2="16.999" gradientUnits="userSpaceOnUse">
<stop stop-color="#10A8A0"/>
<stop offset="1" stop-color="#83C24C"/>
</linearGradient>
<linearGradient id="paint2_linear_242_2579" x1="7.23815" y1="0.438267" x2="6.47776" y2="16.999" gradientUnits="userSpaceOnUse">
<stop stop-color="#10A8A0"/>
<stop offset="1" stop-color="#83C24C"/>
</linearGradient>
<linearGradient id="paint3_linear_242_2579" x1="7.23815" y1="0.438267" x2="6.47776" y2="16.999" gradientUnits="userSpaceOnUse">
<stop stop-color="#10A8A0"/>
<stop offset="1" stop-color="#83C24C"/>
</linearGradient>
<linearGradient id="paint4_linear_242_2579" x1="7.23815" y1="0.438267" x2="6.47776" y2="16.999" gradientUnits="userSpaceOnUse">
<stop stop-color="#10A8A0"/>
<stop offset="1" stop-color="#83C24C"/>
</linearGradient>
</defs>
</svg>
