<svg width="14" height="16" viewBox="0 0 14 16" fill="none" xmlns="http://www.w3.org/2000/svg">
<path fill-rule="evenodd" clip-rule="evenodd" d="M6.93735 0.00048224C7.95306 -0.00264389 8.9057 0.00986062 9.06171 0.0254913C9.21771 0.0411219 9.5762 0.0786354 9.85834 0.106771C10.1405 0.13178 10.6351 0.197428 10.9537 0.247446C11.2724 0.30059 11.6375 0.375617 11.7669 0.419383C11.8931 0.460023 12.0823 0.541302 12.1819 0.597572C12.2814 0.650717 12.4839 0.810149 12.6333 0.947699C12.8557 1.15402 12.9287 1.24781 13.0548 1.49477C13.1478 1.67609 13.2274 1.88866 13.2606 2.04184C13.3071 2.2638 13.3104 2.82337 13.3038 7.18432C13.2938 11.9423 13.2905 12.0798 13.2308 12.233C13.1942 12.3205 13.1279 12.4518 13.0814 12.53C13.0349 12.6082 12.9088 12.7551 12.7959 12.8582C12.6831 12.9614 12.5105 13.0833 12.4109 13.1302C12.3146 13.1771 12.1586 13.2303 12.0657 13.249C11.9761 13.2709 11.8599 13.2959 11.8134 13.3084C11.7304 13.3272 11.7802 13.3834 12.7329 14.3119C13.2905 14.8527 13.805 15.3685 13.878 15.4529C13.9975 15.5905 14.0108 15.6217 13.9942 15.7186C13.9842 15.778 13.9344 15.8656 13.7917 16H11.2027L11.0998 15.9C11.0433 15.8437 10.7877 15.5186 10.0575 14.562H3.98317L3.51183 15.1778C3.25292 15.5186 2.99733 15.8437 2.83801 16H0.199158L0.0995792 15.8906C0.043151 15.8312 0 15.753 0 15.7186C0 15.6843 0.0132772 15.6217 0.0331931 15.578C0.0497896 15.5342 0.570921 15.0121 2.30692 13.3303L2.12436 13.2959C2.02478 13.2771 1.88205 13.2396 1.80902 13.2177C1.736 13.1927 1.60986 13.1396 1.52688 13.0958C1.4439 13.0521 1.29121 12.9333 1.18499 12.8364C1.08209 12.7363 0.949322 12.5706 0.896213 12.4675C0.839785 12.3643 0.773398 12.1893 0.746844 12.0767C0.703693 11.8985 0.697054 11.2358 0.713651 2.0731L0.803272 1.82301C0.853062 1.68546 0.949322 1.48227 1.01903 1.36973C1.08873 1.25719 1.25802 1.06024 1.39411 0.932068C1.53352 0.803897 1.73268 0.647591 1.84221 0.588194C1.95175 0.528798 2.13099 0.447518 2.24053 0.413131C2.35007 0.375617 2.70855 0.30059 3.03717 0.250572C3.36578 0.197428 3.8504 0.13178 4.11594 0.106771C4.38148 0.0786354 4.7101 0.0473741 4.84619 0.0317435C4.98228 0.0161129 5.92496 0.00048224 6.93735 0.00048224ZM4.01636 0.7445C3.7143 0.778888 3.29607 0.838284 3.08695 0.872672C2.87784 0.907059 2.62889 0.957077 2.53927 0.982086C2.44633 1.0071 2.29032 1.06962 2.19074 1.12589C2.09116 1.17903 1.93184 1.2947 1.8389 1.38223C1.74927 1.46976 1.61982 1.63857 1.55675 1.76049C1.48705 1.88554 1.42066 2.0731 1.39743 2.19815C1.36755 2.36383 1.36092 3.60803 1.36755 7.19995L1.37751 11.9829C1.50365 12.2268 1.60322 12.3518 1.67625 12.4175C1.74927 12.4862 1.87541 12.5706 1.95839 12.605C2.10776 12.6707 2.13763 12.6707 7.00374 12.6707C11.8698 12.6707 11.8997 12.6707 12.0491 12.605C12.1321 12.5706 12.2648 12.48 12.3445 12.4018C12.4275 12.3268 12.5237 12.2018 12.5603 12.1236C12.63 11.9829 12.63 11.9485 12.6366 7.15931C12.6466 2.88902 12.6399 2.31382 12.5934 2.12937C12.5669 2.01058 12.4972 1.83239 12.4374 1.72923C12.381 1.62607 12.2582 1.46976 12.1653 1.38223C12.0756 1.2947 11.9163 1.17903 11.8167 1.12589C11.7172 1.06962 11.5578 1.0071 11.4682 0.982086C11.3753 0.957077 11.0765 0.900807 10.8043 0.857041C10.5288 0.813275 10.104 0.757005 9.85834 0.731996C9.61271 0.703861 9.16461 0.669473 8.86255 0.650717C8.56049 0.635086 7.67092 0.622581 6.88756 0.622581C6.10088 0.625708 5.25778 0.641338 5.01215 0.653843C4.76652 0.669473 4.31842 0.710113 4.01636 0.7445ZM3.01393 13.5304C2.90107 13.6492 2.42309 14.1149 1.95839 14.562L1.11197 15.3779L2.53927 15.3748C3.72094 13.843 4.07611 13.3772 4.0927 13.3553C4.11262 13.3178 4.03628 13.3115 3.67115 13.3115H3.22637L3.01393 13.5304ZM4.47774 13.9211C6.47265 13.9336 7.61781 13.9336 8.3049 13.9305L9.5596 13.9211L9.09158 13.3115H4.94909L4.47774 13.9211ZM10.7346 14.3869L11.4981 15.3779L12.8756 15.3748C12.4275 14.9215 11.9595 14.4588 11.5479 14.0524L10.801 13.3147C9.99443 13.3115 9.92141 13.3209 9.94464 13.3553C9.96124 13.3772 10.3164 13.843 10.7346 14.3869ZM4.35493 1.24781C4.38812 1.24781 4.45783 1.26969 4.51094 1.30095C4.56737 1.33221 4.62711 1.38848 4.64371 1.426C4.66363 1.46351 4.6769 1.52291 4.6769 1.55729C4.6769 1.59168 4.66363 1.6542 4.64371 1.69172C4.62711 1.72923 4.56405 1.78863 4.5043 1.81989C4.43127 1.86053 4.36489 1.87303 4.29518 1.86053C4.24207 1.85115 4.15909 1.80426 4.11262 1.76049C4.05619 1.7011 4.02964 1.64482 4.02964 1.56042C4.02964 1.48852 4.05619 1.41037 4.0927 1.36973C4.1259 1.33221 4.18565 1.28845 4.22548 1.27594C4.26531 1.26031 4.32174 1.24781 4.35493 1.24781ZM7.01038 1.24781C8.27171 1.24468 8.40448 1.25093 8.4941 1.30095C8.55053 1.33221 8.61028 1.38848 8.62688 1.426C8.64679 1.46351 8.66007 1.52291 8.66007 1.55729C8.66007 1.59168 8.64347 1.65733 8.62024 1.7011C8.597 1.74173 8.53394 1.80113 8.47751 1.82614C8.39453 1.86678 8.18873 1.87303 5.54324 1.85428L5.4503 1.76987C5.3806 1.70422 5.35736 1.65108 5.35736 1.56042C5.35736 1.48852 5.38391 1.41037 5.42043 1.36973C5.45362 1.33221 5.51337 1.28845 5.5532 1.27594C5.59303 1.26031 6.24693 1.24781 7.01038 1.24781ZM9.66582 1.24781C9.69901 1.24781 9.76872 1.26969 9.82183 1.30095C9.87825 1.33221 9.938 1.38848 9.9546 1.426C9.97451 1.46351 9.98779 1.52291 9.98779 1.55729C9.98779 1.59168 9.97451 1.6542 9.9546 1.69172C9.938 1.72923 9.87494 1.78863 9.81519 1.81989C9.74216 1.86053 9.67578 1.87303 9.60607 1.86053C9.55296 1.85115 9.46998 1.80426 9.42351 1.76049C9.36708 1.7011 9.34053 1.64482 9.34053 1.56042C9.34053 1.48852 9.36708 1.41037 9.40359 1.36973C9.43679 1.33221 9.49654 1.28845 9.53637 1.27594C9.5762 1.26031 9.63263 1.24781 9.66582 1.24781ZM7.01038 2.49826C11.435 2.49513 11.7205 2.49826 11.8134 2.5514C11.8698 2.58266 11.9296 2.63893 11.9462 2.67645C11.9694 2.72334 11.9794 3.66118 11.9794 5.40243C11.9794 7.46567 11.9727 8.07839 11.9395 8.14092C11.9163 8.18156 11.8532 8.24095 11.7968 8.26596C11.7105 8.30973 11.1595 8.31285 2.22394 8.2941L2.03805 8.12216V5.40556C2.03805 2.81712 2.04137 2.68583 2.10112 2.62018C2.13431 2.58266 2.19406 2.5389 2.23389 2.52639C2.27373 2.51076 4.42132 2.49826 7.01038 2.49826ZM2.68532 7.6845H6.66849V3.12036H2.68532V7.6845ZM7.33235 7.6845H11.3155V3.12036H7.33235V7.6845ZM3.32594 9.25069C3.39565 9.25069 3.52842 9.2632 3.62468 9.28508C3.72094 9.30384 3.87363 9.35385 3.96325 9.39762C4.05619 9.44139 4.19892 9.54142 4.28191 9.6227C4.36821 9.70085 4.47111 9.82903 4.51094 9.90405C4.55409 9.98221 4.61052 10.1166 4.63375 10.201C4.65699 10.2886 4.6769 10.423 4.6769 10.498C4.6769 10.5762 4.65699 10.7106 4.63375 10.795C4.61052 10.8825 4.55409 11.017 4.51094 11.092C4.47111 11.1701 4.36821 11.2983 4.28191 11.3765C4.19892 11.4546 4.05619 11.5578 3.96325 11.6015C3.87363 11.6453 3.69439 11.6984 3.56493 11.7203C3.38569 11.7516 3.29275 11.7516 3.13343 11.7235C3.02389 11.7047 2.85792 11.6516 2.76166 11.6078C2.6654 11.5672 2.51271 11.4609 2.41977 11.3733C2.33015 11.2889 2.2173 11.1451 2.17415 11.0545C2.12768 10.9638 2.07457 10.7981 2.05465 10.6856C2.02478 10.5355 2.02478 10.4355 2.05465 10.2948C2.07457 10.1917 2.12768 10.0353 2.17415 9.94469C2.2173 9.85403 2.32683 9.71336 2.41314 9.62895C2.49944 9.54767 2.63553 9.44764 2.71187 9.41012C2.78822 9.37261 2.93095 9.32259 3.02721 9.29758C3.12347 9.27258 3.25624 9.25069 3.32594 9.25069ZM2.77826 10.2167C2.72847 10.3136 2.68532 10.4386 2.68532 10.498C2.68532 10.5605 2.72847 10.6856 2.77826 10.7794C2.85792 10.9232 2.90439 10.9669 3.05376 11.042C3.20977 11.117 3.25956 11.1295 3.41557 11.1139C3.5417 11.1014 3.64128 11.067 3.7309 11.0076C3.80061 10.9607 3.89687 10.8575 3.9367 10.7794C3.98649 10.695 4.01636 10.5855 4.01636 10.498C4.01636 10.4136 3.98649 10.3042 3.9367 10.2167C3.89687 10.1416 3.80061 10.0385 3.7309 9.99158C3.64128 9.93219 3.5417 9.8978 3.41557 9.8853C3.25956 9.86967 3.20977 9.87904 3.05376 9.9572C2.90439 10.0291 2.85792 10.076 2.77826 10.2167ZM10.6284 9.25069C10.6981 9.25069 10.8309 9.2632 10.9272 9.28508C11.0234 9.30384 11.1761 9.35385 11.2657 9.39762C11.3587 9.44139 11.5014 9.54142 11.5844 9.6227C11.6707 9.70085 11.7736 9.82903 11.8134 9.90405C11.8566 9.98221 11.913 10.1166 11.9362 10.201C11.9595 10.2886 11.9794 10.423 11.9794 10.498C11.9794 10.5762 11.9595 10.7106 11.9362 10.795C11.913 10.8825 11.8566 11.017 11.8134 11.092C11.7736 11.1701 11.6707 11.2983 11.5844 11.3765C11.5014 11.4546 11.3587 11.5578 11.2657 11.6015C11.1761 11.6453 10.9969 11.6984 10.8674 11.7203C10.6882 11.7516 10.5952 11.7516 10.4359 11.7235C10.3264 11.7047 10.1604 11.6516 10.0641 11.6078C9.96788 11.5672 9.81519 11.4609 9.72225 11.3733C9.63263 11.2889 9.51977 11.1451 9.47662 11.0545C9.43015 10.9638 9.37704 10.7981 9.35712 10.6856C9.32725 10.5355 9.32725 10.4355 9.35712 10.2948C9.37704 10.1917 9.43015 10.0353 9.47662 9.94469C9.51977 9.85403 9.62931 9.71336 9.71561 9.62895C9.80191 9.54767 9.938 9.44764 10.0143 9.41012C10.0907 9.37261 10.2334 9.32259 10.3297 9.29758C10.4259 9.27258 10.5587 9.25069 10.6284 9.25069ZM10.0807 10.2167C10.0309 10.3136 9.98779 10.4386 9.98779 10.498C9.98779 10.5605 10.0309 10.6856 10.0807 10.7794C10.1604 10.9232 10.2069 10.9669 10.3562 11.042C10.5122 11.117 10.562 11.1295 10.718 11.1139C10.8442 11.1014 10.9438 11.067 11.0334 11.0076C11.1031 10.9607 11.1993 10.8575 11.2392 10.7794C11.289 10.695 11.3188 10.5855 11.3188 10.498C11.3188 10.4136 11.289 10.3042 11.2392 10.2167C11.1993 10.1416 11.1031 10.0385 11.0334 9.99158C10.9438 9.93219 10.8442 9.8978 10.718 9.8853C10.562 9.86967 10.5122 9.87904 10.3562 9.9572C10.2069 10.0291 10.1604 10.076 10.0807 10.2167ZM7.01038 9.5633C8.27171 9.56018 8.40448 9.56643 8.4941 9.61645C8.55053 9.64771 8.61028 9.70398 8.62688 9.74149C8.64679 9.77901 8.66007 9.8384 8.66007 9.87279C8.66007 9.90718 8.64347 9.97283 8.62024 10.0166C8.597 10.0572 8.53394 10.1166 8.47751 10.1416C8.39453 10.1823 8.18873 10.1885 5.54324 10.1698L5.4503 10.0854C5.3806 10.0197 5.35736 9.96657 5.35736 9.87592C5.35736 9.80402 5.38391 9.72586 5.42043 9.68522C5.45362 9.64771 5.51337 9.60394 5.5532 9.59144C5.59303 9.57581 6.24693 9.5633 7.01038 9.5633ZM7.01038 10.8138C8.27171 10.8106 8.40448 10.8169 8.4941 10.8669C8.55053 10.8982 8.61028 10.9544 8.62688 10.9919C8.64679 11.0295 8.66007 11.0889 8.66007 11.1232C8.66007 11.1576 8.64347 11.2233 8.62024 11.267C8.597 11.3077 8.53394 11.3671 8.47751 11.3921C8.39453 11.4327 8.18873 11.439 5.54324 11.4202L5.4503 11.3358C5.3806 11.2702 5.35736 11.217 5.35736 11.1264C5.35736 11.0545 5.38391 10.9763 5.42043 10.9357C5.45362 10.8982 5.51337 10.8544 5.5532 10.8419C5.59303 10.8263 6.24693 10.8138 7.01038 10.8138Z" fill="url(#paint0_linear_29_45)"/>
<defs>
<linearGradient id="paint0_linear_29_45" x1="7.79493" y1="0.412487" x2="7.16917" y2="16.0068" gradientUnits="userSpaceOnUse">
<stop stop-color="#10A8A0"/>
<stop offset="1" stop-color="#83C24C"/>
</linearGradient>
</defs>
</svg>
