<svg width="12" height="14" viewBox="0 0 12 14" fill="none" xmlns="http://www.w3.org/2000/svg">
<path fill-rule="evenodd" clip-rule="evenodd" d="M1.77972 0.00546875L8.78081 0L9.01112 0.065625C9.13675 0.103906 9.2964 0.158594 9.36968 0.191406C9.44297 0.224219 9.57644 0.303516 9.67067 0.369141C9.76489 0.434766 9.9193 0.571484 10.0135 0.675391C10.1077 0.776563 10.2281 0.929688 10.2779 1.01172C10.3276 1.09375 10.4009 1.24141 10.4427 1.33984C10.482 1.43828 10.537 1.62695 10.5631 1.76367C10.6103 1.99336 10.6129 2.20938 10.6155 8.08008L10.5422 8.22773C10.482 8.35078 10.4427 8.3918 10.325 8.45742C10.1993 8.52578 10.1627 8.53398 10.0371 8.52031C9.95594 8.50938 9.85387 8.47656 9.80414 8.44102C9.75442 8.4082 9.68375 8.33164 9.57906 8.16484L9.55289 1.95508L9.49531 1.80469C9.4639 1.72266 9.39586 1.59961 9.34613 1.53125C9.29378 1.46289 9.20218 1.36719 9.14198 1.31797C9.07917 1.26875 8.96401 1.20039 8.74155 1.10742H1.85823L1.7012 1.17578C1.61483 1.21133 1.49182 1.28516 1.42639 1.33984C1.36096 1.39453 1.26936 1.49844 1.22225 1.575C1.17514 1.64883 1.11756 1.76914 1.09138 1.8457C1.04951 1.97422 1.04689 2.31875 1.04689 7C1.04689 11.6812 1.04951 12.0258 1.09138 12.1543C1.11756 12.2281 1.17514 12.3512 1.22225 12.425C1.26936 12.5016 1.36096 12.6055 1.42639 12.6602C1.49182 12.7148 1.61483 12.7887 1.85823 12.8926L5.26325 12.9199L5.36794 12.991C5.4229 13.0293 5.4988 13.1086 5.53544 13.1688C5.58779 13.2535 5.60087 13.3109 5.60087 13.4531C5.60087 13.5953 5.58779 13.6527 5.53544 13.7402C5.4988 13.7977 5.41767 13.8824 5.23446 14H1.80589L1.53108 13.9152C1.36881 13.8687 1.17775 13.7867 1.06783 13.7184C0.963141 13.6555 0.813959 13.5488 0.738059 13.4805C0.662159 13.4121 0.547001 13.2918 0.48157 13.2125C0.418757 13.1332 0.316685 12.9801 0.256489 12.8707C0.196292 12.7641 0.112541 12.5617 0 12.1816V1.81836L0.0732824 1.57227C0.112541 1.43555 0.196292 1.23594 0.256489 1.1293C0.316685 1.01992 0.418757 0.866797 0.48157 0.7875C0.547001 0.708203 0.662159 0.587891 0.738059 0.519531C0.813959 0.451172 0.963141 0.344531 1.06783 0.281641C1.17252 0.21875 1.37405 0.13125 1.51799 0.0847656L1.77972 0.00546875ZM11.5027 8.81289C11.5786 8.81836 11.665 8.85117 11.7487 8.90313C11.8273 8.95234 11.8979 9.02617 11.9372 9.1C11.9791 9.1793 12 9.25859 12 9.35156C12 9.44453 11.9817 9.52383 11.9424 9.59219C11.911 9.64961 11.3091 10.5383 10.6024 11.5664C9.89836 12.5973 9.27546 13.4941 9.21527 13.5598C9.15769 13.6254 9.05038 13.7184 8.9771 13.7676C8.90643 13.8168 8.75987 13.8906 8.6578 13.9289C8.51123 13.9836 8.41701 14 8.25736 14C8.11341 14 7.99564 13.9836 7.88571 13.9426C7.79411 13.9125 7.67372 13.8605 7.61614 13.8305C7.55856 13.8004 7.46434 13.7348 7.40676 13.6883C7.34918 13.6391 6.91996 13.2152 6.45147 12.7477C5.79455 12.0887 5.58779 11.8645 5.54329 11.766C5.50927 11.6949 5.4831 11.5938 5.4831 11.5391C5.4831 11.4871 5.5145 11.3777 5.55376 11.2957C5.60872 11.1863 5.65583 11.1316 5.74482 11.0797C5.81025 11.0414 5.90971 11.0059 5.96728 11.0004C6.03272 10.9922 6.11647 11.0059 6.18975 11.0359C6.26827 11.0688 6.40698 11.1863 6.60851 11.3887C6.77601 11.5555 7.17906 11.9574 7.50622 12.2855C7.8831 12.6629 8.1265 12.8871 8.17361 12.898C8.21287 12.9063 8.28615 12.9008 8.33588 12.8871C8.41963 12.8598 8.55834 12.6656 9.77012 10.8992C10.5082 9.82461 11.1363 8.92773 11.1703 8.90859C11.2017 8.88945 11.2619 8.85937 11.3064 8.84023C11.3483 8.82109 11.4373 8.81016 11.5027 8.81289ZM8.08724 3.28125L8.22857 3.35781C8.34896 3.4207 8.38561 3.45898 8.4458 3.58203C8.48768 3.6668 8.5217 3.77617 8.5217 3.82812C8.5217 3.88281 8.48768 3.99219 8.44842 4.07422C8.38822 4.19727 8.35158 4.23555 8.08724 4.37773L2.42617 4.36133L2.31363 4.2793C2.25082 4.23555 2.17492 4.14531 2.14089 4.07422C2.10164 3.99766 2.0807 3.90742 2.0807 3.82812C2.0807 3.75703 2.10687 3.65586 2.14089 3.58477C2.1723 3.51914 2.2325 3.43438 2.27699 3.40156C2.31887 3.36602 2.38953 3.32773 2.43402 3.31406C2.48113 3.29766 3.6615 3.28672 8.08724 3.28125ZM8.08724 5.46875L8.22857 5.54531C8.34896 5.6082 8.38561 5.64648 8.4458 5.76953C8.48768 5.8543 8.5217 5.96367 8.5217 6.01562C8.5217 6.07031 8.48768 6.17969 8.44842 6.26172C8.38822 6.38477 8.35158 6.42305 8.08724 6.56523L2.42617 6.54883L2.31363 6.4668C2.25082 6.42305 2.17492 6.33281 2.14089 6.26172C2.10164 6.18516 2.0807 6.09492 2.0807 6.01562C2.0807 5.94453 2.10687 5.84336 2.14089 5.77227C2.1723 5.70664 2.2325 5.62187 2.27699 5.58906C2.31887 5.55352 2.38953 5.51523 2.43402 5.50156C2.48113 5.48516 3.6615 5.47422 8.08724 5.46875ZM6.04842 7.66992L6.15311 7.74102C6.20807 7.7793 6.28397 7.85859 6.32061 7.91875C6.37296 8.00625 6.38604 8.06094 6.38604 8.20312C6.38604 8.34805 6.37296 8.40273 6.32061 8.49023C6.28397 8.54766 6.20807 8.62969 6.04842 8.73633H2.42617L2.31363 8.6543C2.25082 8.61055 2.17492 8.52031 2.14089 8.44922C2.10164 8.37266 2.0807 8.28242 2.0807 8.20312C2.0807 8.13203 2.10687 8.03086 2.14089 7.95977C2.1723 7.89414 2.2325 7.80937 2.27699 7.77656C2.31887 7.74102 2.38953 7.70273 2.43402 7.68633C2.48113 7.67266 3.22966 7.66445 6.04842 7.66992Z" fill="#83C24C"/>
</svg>
