<svg width="26" height="28" viewBox="0 0 26 28" fill="none" xmlns="http://www.w3.org/2000/svg">
<path d="M24 14.0339L14.228 23.9304C12.8715 25.2688 11.0491 26.0123 9.15523 25.9998C7.26139 25.9874 5.44862 25.2199 4.10944 23.8637C2.77027 22.5075 2.01248 20.6716 2.00015 18.7536C1.98783 16.8357 2.72197 14.99 4.0436 13.6162L14.1075 3.42409C15.0079 2.51226 16.229 2 17.5023 2C18.7756 2 19.9968 2.51226 20.8971 3.42409C21.7975 4.33592 22.3033 5.57262 22.3033 6.86214C22.3033 8.15167 21.7975 9.38837 20.8971 10.3002L11.1235 20.1984C10.6733 20.6543 10.0627 20.9104 9.42607 20.9104C8.78942 20.9104 8.17885 20.6543 7.72867 20.1984C7.27849 19.7424 7.02558 19.1241 7.02558 18.4793C7.02558 17.8346 7.27849 17.2162 7.72867 16.7603L17.2104 7.15782" stroke="url(#paint0_linear_987_6888)" stroke-width="3"/>
<defs>
<linearGradient id="paint0_linear_987_6888" x1="14.2492" y1="2.61873" x2="13.3531" y2="26.0135" gradientUnits="userSpaceOnUse">
<stop stop-color="#10A8A0"/>
<stop offset="1" stop-color="#83C24C"/>
</linearGradient>
</defs>
</svg>
