<svg width="102" height="74" viewBox="0 0 102 74" fill="none" xmlns="http://www.w3.org/2000/svg">
<path opacity="0.5" d="M68 38.6818C68 38.1913 67.8406 37.7884 67.5219 37.473L48.8219 18.973C48.5031 18.6577 48.0958 18.5 47.6 18.5C47.1042 18.5 46.6969 18.6577 46.3781 18.973L27.7313 37.4205C27.3771 37.8409 27.2 38.2614 27.2 38.6818C27.2 39.1723 27.3594 39.5753 27.6781 39.8906C27.9969 40.206 28.4042 40.3636 28.9 40.3636H40.8V58.8636C40.8 59.3191 40.9682 59.7133 41.3047 60.0462C41.6411 60.379 42.0396 60.5455 42.5 60.5455H52.7C53.1604 60.5455 53.5589 60.379 53.8953 60.0462C54.2318 59.7133 54.4 59.3191 54.4 58.8636V40.3636H66.3C66.7604 40.3636 67.1589 40.1972 67.4953 39.8643C67.8318 39.5315 68 39.1373 68 38.6818ZM102 53.8182C102 59.3892 100.008 64.1456 96.0234 68.0874C92.0391 72.0291 87.2313 74 81.6 74H23.8C17.2479 74 11.6432 71.6963 6.98594 67.0888C2.32865 62.4813 0 56.9366 0 50.4545C0 45.8996 1.23958 41.6951 3.71875 37.8409C6.19792 33.9867 9.52708 31.0961 13.7063 29.169C13.6354 28.1179 13.6 27.3646 13.6 26.9091C13.6 19.4811 16.2563 13.1392 21.5688 7.88352C26.8813 2.62784 33.2917 0 40.8 0C46.325 0 51.3807 1.52415 55.9672 4.57244C60.5536 7.62074 63.8917 11.6676 65.9813 16.7131C68.4958 14.5407 71.4354 13.4545 74.8 13.4545C78.5542 13.4545 81.7594 14.7685 84.4156 17.3963C87.0719 20.0241 88.4 23.1951 88.4 26.9091C88.4 29.572 87.674 31.9896 86.2219 34.1619C90.826 35.2481 94.6068 37.6219 97.5641 41.2834C100.521 44.9448 102 49.1231 102 53.8182Z" fill="#A2AAA1"/>
</svg>
