<svg width="16" height="14" viewBox="0 0 16 14" fill="none" xmlns="http://www.w3.org/2000/svg">
<path fill-rule="evenodd" clip-rule="evenodd" d="M1.15342 0H14.8435V1.39041L15.9969 4.23516L16 4.49087C16 4.6379 15.975 4.84566 15.9406 4.9863C15.9094 5.11735 15.8437 5.30594 15.7968 5.40183C15.75 5.49772 15.6624 5.64155 15.5999 5.72146C15.5405 5.80137 15.4343 5.91963 15.3624 5.98676C15.2936 6.05068 15.1811 6.13699 14.9998 6.24886V14H0.997139V6.24886L0.881492 6.17854C0.815855 6.13699 0.703333 6.05068 0.63457 5.98676C0.562681 5.91963 0.456411 5.80137 0.397025 5.72146C0.334513 5.64155 0.250122 5.50091 0.203238 5.40822C0.159479 5.31872 0.0907163 5.13014 0.0563348 4.99589C0.00319963 4.79772 -0.00617715 4.68904 0.00319963 4.4589C0.0188276 4.17123 0.0219532 4.16484 1.15342 1.34247V0ZM1.80979 1.37443H14.1559V0.703196H1.80979V1.37443ZM1.23156 2.94703C1.0409 3.42329 0.862739 3.87717 0.834608 3.95388L0.778347 4.09132L3.23194 4.07534C3.26945 3.80365 3.33196 3.35297 3.3976 2.90228L3.51324 2.07763H1.57537L1.23156 2.94703ZM4.0446 3.10046C3.96646 3.63744 3.90394 4.08174 3.90394 4.08493C3.90394 4.08813 4.41654 4.09132 5.04479 4.09132H6.18563C6.18563 3.98265 6.20751 3.56712 6.23251 3.10046C6.25752 2.63699 6.2794 2.21507 6.2794 2.16712V2.07763C4.65721 2.07763 4.18525 2.09041 4.18525 2.1032C4.18525 2.11598 4.12274 2.56667 4.0446 3.10046ZM6.90764 2.96621C6.88889 3.45525 6.86388 3.90594 6.85763 3.97306L6.842 4.09132C9.08306 4.09132 9.15495 4.08813 9.14244 4.03699C9.13307 4.00502 9.11119 3.55434 9.08618 3.03014L9.04555 2.07763H6.94515L6.90764 2.96621ZM9.71755 2.16712C9.71755 2.21826 9.73943 2.65936 9.76444 3.1516C9.78944 3.64384 9.81132 4.05616 9.81132 4.06895C9.81132 4.08493 10.3239 4.09452 10.9522 4.09452C11.5804 4.09452 12.093 4.08813 12.093 4.07854C12.093 4.06895 12.0305 3.62785 11.9524 3.09406C11.8742 2.56347 11.8117 2.11918 11.8117 2.1032C11.8117 2.09041 11.3397 2.08082 10.7646 2.08082H9.71755V2.16712ZM12.5681 2.67854C12.615 3.00776 12.6775 3.44247 12.7056 3.64384C12.7306 3.8484 12.765 4.03059 12.7744 4.05297C12.79 4.08173 13.0682 4.09132 14.0027 4.08493L15.2123 4.07534L14.4216 2.08082L12.4806 2.07763L12.5681 2.67854ZM0.715836 4.88402C0.728338 4.93516 0.775222 5.04384 0.81898 5.13333C0.862738 5.21963 0.972135 5.36667 1.0659 5.45616C1.15654 5.54566 1.30345 5.65114 1.38784 5.6895C1.47536 5.72785 1.62851 5.7726 1.73165 5.78858C1.8598 5.81096 1.9817 5.80776 2.10673 5.78539C2.20987 5.76621 2.36615 5.71507 2.45054 5.67032C2.53806 5.62877 2.66933 5.53288 2.74122 5.45936C2.81624 5.38584 2.92251 5.26119 2.98189 5.18128C3.03815 5.10137 3.09129 4.98311 3.10379 4.91598L3.12254 4.79772H0.690831L0.715836 4.88402ZM3.78205 4.97991C3.78205 5.03744 3.83831 5.13973 3.93833 5.26758C4.02272 5.37626 4.15399 5.5105 4.22588 5.56484C4.29777 5.61918 4.4353 5.69269 4.52906 5.72785C4.65096 5.7758 4.77599 5.79498 4.95102 5.79498C5.12918 5.79498 5.2542 5.7758 5.37297 5.72785C5.46987 5.69269 5.61052 5.61279 5.68553 5.55525C5.76367 5.49452 5.89807 5.35388 5.98247 5.24201C6.07936 5.11096 6.14187 4.9895 6.15437 4.91598L6.17 4.79452C3.97583 4.79452 3.8133 4.80091 3.79767 4.84247C3.7883 4.87123 3.78205 4.93196 3.78205 4.97991ZM6.81387 4.91598C6.81387 5.00548 6.84513 5.0758 6.93265 5.19406C6.99828 5.28356 7.10768 5.40822 7.17332 5.47534C7.24208 5.54247 7.37336 5.63516 7.46712 5.67991C7.56402 5.72466 7.7203 5.7758 7.82032 5.79178C7.92346 5.80776 8.07661 5.80776 8.17976 5.79178C8.27978 5.7758 8.43606 5.72466 8.52983 5.67671C8.62672 5.63196 8.75799 5.53927 8.82676 5.47534C8.8924 5.40822 9.00179 5.28356 9.06743 5.19406C9.15495 5.0758 9.1862 5.00548 9.1862 4.91598V4.79452H6.81075L6.81387 4.91598ZM9.8457 4.90959C9.8457 4.99589 9.88321 5.06941 10.0114 5.23562C10.102 5.35388 10.2302 5.49452 10.2989 5.54886C10.3677 5.6032 10.5083 5.67991 10.6115 5.72146C10.7521 5.7758 10.8615 5.79498 11.0491 5.79498C11.2272 5.79498 11.3491 5.7758 11.471 5.73105C11.5648 5.69269 11.7023 5.61918 11.7773 5.56484C11.8492 5.5137 11.9805 5.37945 12.0649 5.26758C12.1961 5.10137 12.2212 5.04703 12.2212 4.93196V4.79772H9.8457V4.90959ZM12.8963 4.91598C12.9088 4.98311 12.965 5.10137 13.0213 5.18128C13.0776 5.26119 13.1838 5.38584 13.2589 5.45936C13.3339 5.53288 13.4651 5.62877 13.5495 5.67032C13.637 5.71507 13.7902 5.76621 13.8933 5.78539C14.0215 5.80776 14.1434 5.81096 14.2684 5.78858C14.3716 5.7726 14.5185 5.73105 14.5966 5.69589C14.6747 5.66393 14.8154 5.56484 14.9092 5.47534C15.0029 5.38904 15.1217 5.23881 15.1717 5.14612C15.2217 5.05023 15.2749 4.93516 15.2905 4.88402L15.3155 4.79772H12.8744L12.8963 4.91598ZM3.34134 5.82055C3.3007 5.87489 3.19131 5.98037 3.09441 6.05708C3.00065 6.13059 2.84749 6.23288 2.7506 6.28082C2.65683 6.32877 2.47555 6.39589 2.34427 6.43105C2.21612 6.46301 2.00983 6.49178 1.88481 6.49178L1.65664 6.48858V13.2968H9.65817L9.67379 7.1758L13.6589 7.15982V13.2968H14.3466V6.48858C13.9965 6.49178 13.7902 6.46301 13.6589 6.43105C13.5308 6.39589 13.3495 6.32877 13.2526 6.28082C13.1588 6.23288 13.0057 6.13059 12.9088 6.05708C12.815 5.98037 12.7056 5.87489 12.6681 5.82055L12.5962 5.72146C12.2305 6.06986 12.0492 6.20091 11.9086 6.27443C11.7804 6.33836 11.571 6.41507 11.4398 6.44384C11.2772 6.479 11.1241 6.49178 10.9397 6.479C10.7959 6.46941 10.5833 6.43105 10.4708 6.39269C10.3614 6.35434 10.1926 6.28082 10.0957 6.22329C10.002 6.16895 9.83007 6.0347 9.71443 5.92283L9.50189 5.72146C9.39249 5.87489 9.28622 5.98037 9.18933 6.05708C9.09556 6.13059 8.9424 6.23288 8.84551 6.28082C8.75174 6.32877 8.57046 6.39589 8.43918 6.43105C8.31104 6.46301 8.11412 6.49178 8.0016 6.49178C7.8922 6.49178 7.68592 6.45982 7.54839 6.42466C7.41086 6.3895 7.20145 6.30639 7.08267 6.23927C6.96078 6.17534 6.77637 6.0347 6.6701 5.92603L6.47631 5.73105C6.17 6.0347 6.00434 6.16895 5.90745 6.22329C5.81368 6.28082 5.6449 6.35434 5.53238 6.39269C5.42298 6.43105 5.21044 6.46941 5.06354 6.479C4.87913 6.49178 4.72598 6.479 4.56344 6.44384C4.4353 6.41507 4.22588 6.33836 4.09773 6.27443C3.95083 6.19772 3.77892 6.07306 3.63827 5.93881L3.41323 5.72146L3.34134 5.82055ZM10.3489 10.2123C10.6896 10.2443 10.8021 10.2731 10.8584 10.3114C10.9053 10.3466 10.9584 10.4201 10.974 10.4776C10.9928 10.5416 10.9928 10.6215 10.974 10.6854C10.9584 10.7429 10.9053 10.8164 10.8584 10.8516C10.8021 10.89 10.6896 10.9187 10.5583 10.9315L10.3489 10.9475V13.2968H13.0057V7.86301H10.3489V10.2123Z" fill="url(#paint0_linear_987_8776)"/>
<defs>
<linearGradient id="paint0_linear_987_8776" x1="8.90849" y1="0.360926" x2="8.489" y2="14.015" gradientUnits="userSpaceOnUse">
<stop stop-color="#10A8A0"/>
<stop offset="1" stop-color="#83C24C"/>
</linearGradient>
</defs>
</svg>
